<svg width="73" height="72" viewBox="0 0 73 72" fill="none" xmlns="http://www.w3.org/2000/svg">
<path d="M31.4765 46.1477C31.3449 46.1825 31.2215 46.2428 31.1133 46.3253C31.0051 46.4078 30.9143 46.5109 30.8459 46.6285C30.7776 46.7462 30.7331 46.8762 30.7151 47.011C30.697 47.1459 30.7057 47.283 30.7407 47.4145C31.021 48.4307 30.9584 49.5109 30.5626 50.488C30.1668 51.465 29.46 52.2843 28.5515 52.819C28.3566 52.9313 28.2058 53.1067 28.124 53.3162C28.0449 53.5174 28.0304 53.7382 28.0824 53.9481C28.1344 54.1579 28.2504 54.3463 28.4144 54.4872C28.5783 54.6282 28.782 54.7146 28.9973 54.7346C29.2125 54.7546 29.4287 54.7071 29.6157 54.5987C30.9087 53.8321 31.9142 52.6622 32.4777 51.2687C33.0465 49.8753 33.1398 48.3331 32.7432 46.8812C32.6716 46.6173 32.4985 46.3924 32.2617 46.2557C32.1445 46.1855 32.0143 46.1398 31.879 46.1212C31.7437 46.1026 31.6082 46.1117 31.4765 46.1477Z" fill="black"/>
<path d="M24.1208 68.4608C26.0281 69.4194 28.1628 69.8335 30.2903 69.6578C33.0911 69.4421 35.776 68.4481 38.0421 66.7879C40.3082 65.1277 42.0653 62.8673 43.1153 60.2618L47.3003 49.9365C48.362 47.3397 48.6768 44.4978 48.2093 41.7315C47.7418 38.9653 46.5104 36.3847 44.6543 34.281C43.3574 32.7956 41.7035 31.6649 39.8486 30.9957C37.9936 30.3265 35.9988 30.1408 34.0523 30.456C32.1357 30.7501 30.3252 31.526 28.7904 32.7109C27.2556 33.8958 26.0468 35.4511 25.2773 37.2308L25.158 37.494C24.143 39.974 23.9714 42.719 24.6698 45.306C24.8009 45.7788 24.7724 46.2816 24.5885 46.7365C24.4046 47.1914 24.0756 47.5728 23.6528 47.8215C21.3588 49.174 19.576 51.2464 18.5813 53.7165L18.4643 54C17.7664 55.8162 17.5427 57.7803 17.8143 59.7069C18.0859 61.6335 18.8439 63.4591 20.0168 65.0115C21.0969 66.4657 22.5024 67.6469 24.1208 68.4608ZM28.7468 48.4178C29.301 47.0565 29.3958 45.5516 29.0168 44.1315L28.9875 44.1383C28.55 42.5279 28.6447 40.8192 29.2575 39.267L29.3655 39.042C29.8248 37.9475 30.5592 36.9903 31.4974 36.2634C32.4357 35.5364 33.546 35.0644 34.7205 34.893C35.9179 34.6969 37.1456 34.8095 38.2874 35.2201C39.4292 35.6308 40.4473 36.3259 41.2455 37.2398C42.5506 38.7183 43.4163 40.5324 43.7447 42.477C44.0731 44.4217 43.8512 46.4194 43.104 48.2445L38.919 58.5675C38.1819 60.3967 36.949 61.9838 35.359 63.1505C33.769 64.3171 31.885 65.017 29.919 65.1713C28.7127 65.2686 27.5015 65.0573 26.3994 64.5574C25.2973 64.0575 24.3405 63.2854 23.619 62.3138C22.9071 61.3956 22.4407 60.3113 22.264 59.163C22.0872 58.0147 22.2059 56.8403 22.6088 55.7505L22.7325 55.4535C23.3625 53.8763 24.4965 52.551 25.959 51.6848C27.219 50.9265 28.1955 49.7813 28.749 48.4178M56.424 18.315C56.3573 18.1678 56.2563 18.0387 56.1295 17.9385C56.0027 17.8383 55.8537 17.7699 55.695 17.739C55.4265 17.687 55.1483 17.741 54.9188 17.8898C54.8047 17.9641 54.7065 18.0602 54.6297 18.1726C54.5528 18.2849 54.4989 18.4113 54.471 18.5445C54.156 20.0363 54.336 21.5415 54.975 22.9095C55.611 24.2739 56.6806 25.3894 58.017 26.082C58.2599 26.21 58.5437 26.2363 58.8059 26.1551C59.0682 26.0739 59.2874 25.8918 59.4154 25.6489C59.5434 25.406 59.5697 25.1223 59.4884 24.86C59.4072 24.5978 59.2251 24.3785 58.9823 24.2505C58.0474 23.7637 57.2985 22.9831 56.8509 22.0289C56.4033 21.0747 56.2818 19.9998 56.505 18.9698C56.5441 18.7483 56.5158 18.5203 56.424 18.315Z" fill="black"/>
<path d="M58.2944 41.2582H58.5802C60.5029 41.2616 62.3963 40.7875 64.0905 39.8783C65.7847 38.9692 67.2266 37.6535 68.2867 36.0495C69.3714 34.4356 70.0274 32.5721 70.1927 30.6345C70.358 28.697 70.0273 26.7493 69.2317 24.975L69.1237 24.75C67.9954 22.3226 66.0971 20.3357 63.7237 19.098C63.2878 18.8703 62.9386 18.5062 62.7293 18.0612C62.5201 17.6163 62.4623 17.1151 62.5649 16.6342C63.1199 14.0134 62.7982 11.2828 61.6492 8.86272L61.5367 8.63772C60.6749 6.89339 59.3829 5.39735 57.7827 4.29076C56.1824 3.18417 54.3266 2.5035 52.3904 2.31297C50.4306 2.10485 48.4502 2.39903 46.6355 3.1678C44.8208 3.93657 43.2317 5.15462 42.0179 6.70722C40.2784 8.91176 39.1892 11.5584 38.8732 14.3487C38.5571 17.1391 39.0268 19.9622 40.2292 22.5L44.9789 32.58C46.1675 35.1244 48.0442 37.2856 50.3969 38.8192C52.7496 40.3528 55.4867 41.1977 58.2944 41.2582ZM48.0524 7.46772C49.0276 6.99625 50.0967 6.75091 51.1799 6.74997C52.5094 6.74591 53.813 7.11705 54.941 7.82074C56.069 8.52443 56.9755 9.53211 57.5564 10.728L57.5812 10.782C58.3106 12.3144 58.5162 14.0442 58.1662 15.705C57.8549 17.1441 58.026 18.6456 58.6531 19.9778C59.2801 21.31 60.3283 22.3987 61.6357 23.076C63.1841 23.894 64.4136 25.2075 65.1277 26.8065C65.621 27.8862 65.8268 29.0751 65.7251 30.2578C65.6234 31.4405 65.2176 32.5768 64.5472 33.5565C63.8748 34.5631 62.9595 35.3841 61.8859 35.9433C60.8122 36.5025 59.6149 36.782 58.4047 36.756C56.4319 36.714 54.5102 36.1209 52.8569 35.0438C51.2036 33.9666 49.8846 32.4484 49.0492 30.6607L44.3017 20.583C43.4568 18.8 43.1265 16.8165 43.348 14.856C43.5694 12.8954 44.3337 11.0356 45.5549 9.48597C46.2232 8.63097 47.0759 7.94247 48.0524 7.46772ZM21.1582 15.786C21.2725 15.6735 21.4109 15.5885 21.5629 15.5375C21.715 15.4864 21.8766 15.4706 22.0356 15.4912C22.3101 15.5272 22.5554 15.6712 22.7062 15.9007C22.8723 16.1188 22.9451 16.394 22.9087 16.6657C22.706 18.1552 22.0198 19.537 20.9557 20.5987C19.8939 21.6629 18.5122 22.3491 17.0227 22.5517C16.8856 22.575 16.7452 22.5705 16.6099 22.5385C16.4746 22.5065 16.3471 22.4476 16.235 22.3653C16.123 22.2831 16.0286 22.1791 15.9574 22.0596C15.8863 21.9402 15.84 21.8076 15.8211 21.6698C15.8023 21.5321 15.8113 21.392 15.8477 21.2578C15.884 21.1236 15.947 20.998 16.0329 20.8887C16.1187 20.7793 16.2257 20.6883 16.3474 20.6211C16.4691 20.5539 16.6031 20.5119 16.7414 20.4975C17.7861 20.3592 18.756 19.8804 19.5012 19.1352C20.2463 18.3901 20.7251 17.4201 20.8634 16.3755C20.8963 16.1526 20.9996 15.9461 21.1582 15.786Z" fill="black"/>
<path d="M10.7433 37.3794C13.407 38.2749 16.2684 38.4058 19.0026 37.7571C21.7369 37.1085 24.2346 35.7062 26.2121 33.7096L34.0871 25.8346C36.0807 23.8556 37.4807 21.3582 38.1289 18.6249C38.777 15.8916 38.6473 13.0315 37.7546 10.3681C37.1348 8.49407 36.0483 6.80857 34.5975 5.47026C33.1466 4.13195 31.379 3.18485 29.4611 2.7181C27.5677 2.24523 25.585 2.2621 23.6999 2.76714C21.8148 3.27217 20.0893 4.24873 18.6858 5.60485L18.4833 5.8141C16.6186 7.69559 15.4146 10.1313 15.0521 12.7554C14.9856 13.2414 14.7622 13.6924 14.4157 14.0397C14.0692 14.387 13.6187 14.6115 13.1328 14.6791C10.4855 15.0376 8.03009 16.2585 6.1466 18.1531L5.9531 18.3534C4.60328 19.7544 3.63262 21.4762 3.13267 23.3563C2.63272 25.2364 2.61996 27.2129 3.0956 29.0993C3.56242 31.0157 4.50975 32.7815 5.84821 34.2301C7.18667 35.6788 8.86989 36.7627 10.7433 37.3794ZM19.5071 13.3831C19.7411 11.6979 20.5196 10.1386 21.7233 8.9371L21.8358 8.81785C22.6868 7.99155 23.7362 7.39831 24.883 7.09526C26.0298 6.79222 27.2353 6.78958 28.3834 7.0876C29.5613 7.37681 30.6464 7.96073 31.5367 8.7845C32.427 9.60828 33.0932 10.6449 33.4729 11.7969C34.0995 13.6676 34.1903 15.6764 33.7351 17.596C33.2798 19.5157 32.2966 21.2697 30.8966 22.6599L23.0216 30.5349C21.6314 31.934 19.8777 32.9166 17.9585 33.3714C16.0393 33.8263 14.0311 33.7353 12.1608 33.1089C11.0095 32.7298 9.97369 32.0636 9.15129 31.1731C8.3289 30.2826 7.74702 29.1972 7.4606 28.0194C7.16212 26.8422 7.17617 25.6075 7.50134 24.4374C7.82651 23.2674 8.45154 22.2025 9.3146 21.3481C10.5077 20.1383 12.0695 19.3602 13.7538 19.1364C15.2109 18.9407 16.5633 18.2717 17.6029 17.2321C18.6424 16.1926 19.3115 14.8402 19.5071 13.3831Z" fill="black"/>
</svg>
