<svg width="73" height="72" viewBox="0 0 73 72" fill="none" xmlns="http://www.w3.org/2000/svg">
<path d="M35.4203 13.5678V8.16781C35.4203 7.60531 35.8703 7.13281 36.4553 7.13281C37.0178 7.13281 37.4903 7.58281 37.4903 8.16781V13.5678H35.4203ZM30.6278 13.5678H28.5803L26.7803 8.43781C26.5553 7.80781 27.0278 7.15531 27.7028 7.15531C28.1078 7.15531 28.4903 7.42531 28.6253 7.80781L30.6278 13.5678ZM42.2603 13.5678H44.3078L46.1078 8.43781C46.3328 7.80781 45.8603 7.15531 45.1853 7.15531C44.7803 7.15531 44.3978 7.42531 44.2628 7.80781L42.2603 13.5678ZM28.6118 19.7283C28.4834 19.7285 28.3581 19.6886 28.2534 19.6141C28.1488 19.5396 28.07 19.4343 28.0281 19.3128C27.9862 19.1914 27.9833 19.0599 28.0198 18.9367C28.0563 18.8135 28.1303 18.7048 28.2316 18.6258C29.4757 17.755 31.0009 17.3817 32.5066 17.5796C32.6064 17.5916 32.7017 17.6277 32.7843 17.6848C32.867 17.7419 32.9345 17.8183 32.981 17.9074C33.0276 17.9964 33.0517 18.0955 33.0514 18.196C33.051 18.2964 33.0262 18.3953 32.9791 18.4841C32.9206 18.5907 32.8314 18.6773 32.723 18.7326C32.6147 18.788 32.4923 18.8096 32.3716 18.7946C31.1874 18.6512 29.9909 18.9344 28.9966 19.5933C28.8875 19.6792 28.7507 19.7267 28.6118 19.7283ZM44.3303 19.7283C44.1945 19.7295 44.0622 19.6851 43.9546 19.6023C42.9587 18.947 41.7635 18.6641 40.5796 18.8036C40.498 18.8157 40.4147 18.8113 40.3348 18.7906C40.2549 18.7699 40.18 18.7335 40.1145 18.6833C40.049 18.6332 39.9942 18.5704 39.9533 18.4986C39.9125 18.4269 39.8865 18.3477 39.8769 18.2658C39.8672 18.1838 39.8742 18.1007 39.8972 18.0215C39.9203 17.9423 39.959 17.8685 40.0111 17.8045C40.0632 17.7405 40.1276 17.6876 40.2005 17.649C40.2735 17.6103 40.3534 17.5867 40.4356 17.5796C41.9408 17.3905 43.4629 17.763 44.7106 18.6258C44.812 18.705 44.8861 18.8139 44.9226 18.9373C44.959 19.0606 44.9559 19.1923 44.9137 19.3139C44.8716 19.4354 44.7924 19.5408 44.6874 19.6151C44.5824 19.6894 44.459 19.729 44.3303 19.7283ZM30.9878 20.6778C29.4803 20.6778 28.2203 21.7128 27.8828 23.1078C27.7703 23.4903 28.0853 23.8728 28.4903 23.8728H29.4803C29.3986 23.5687 29.3879 23.2499 29.449 22.9409C29.5101 22.632 29.6414 22.3413 29.8328 22.0912C30.0241 21.8411 30.2705 21.6383 30.5527 21.4986C30.8349 21.3589 31.1454 21.2859 31.4603 21.2853C31.7753 21.2859 32.0858 21.3589 32.368 21.4986C32.6502 21.6383 32.8965 21.8411 33.0879 22.0912C33.2793 22.3413 33.4106 22.632 33.4717 22.9409C33.5328 23.2499 33.5221 23.5687 33.4403 23.8728H33.5978C33.9353 23.8728 34.1828 23.5803 34.1153 23.2428C33.8453 21.7803 32.5403 20.6778 30.9878 20.6778ZM41.9453 20.6778C43.4528 20.6778 44.7128 21.7128 45.0503 23.1078C45.1403 23.5128 44.8478 23.8953 44.4428 23.8953H43.4528C43.4978 23.7153 43.5203 23.5353 43.5203 23.3553C43.5203 22.2303 42.5978 21.3078 41.4728 21.3078C41.1579 21.3084 40.8474 21.3814 40.5652 21.5211C40.283 21.6608 40.0366 21.8636 39.8453 22.1137C39.6539 22.3638 39.5226 22.6545 39.4615 22.9634C39.4004 23.2724 39.4111 23.5912 39.4928 23.8953H39.3353C39.2568 23.8972 39.1788 23.8812 39.1074 23.8484C39.036 23.8157 38.9729 23.7672 38.923 23.7064C38.8732 23.6457 38.8378 23.5744 38.8196 23.498C38.8013 23.4216 38.8007 23.342 38.8178 23.2653C39.1103 21.7803 40.3928 20.6778 41.9453 20.6778Z" fill="black"/>
<path d="M31.4599 22.1627C31.6617 22.1606 31.8605 22.2112 32.0368 22.3093C32.2131 22.4075 32.3607 22.5499 32.4652 22.7225C32.5697 22.8951 32.6274 23.092 32.6326 23.2937C32.6378 23.4954 32.5904 23.695 32.4949 23.8727H30.4249C30.3306 23.6937 30.2843 23.4932 30.2906 23.2909C30.2969 23.0885 30.3556 22.8913 30.4609 22.7185C30.4889 22.7617 30.5257 22.7985 30.569 22.8263C30.6124 22.8541 30.6612 22.8722 30.7121 22.8796C30.7631 22.8869 30.815 22.8832 30.8644 22.8688C30.9138 22.8543 30.9595 22.8295 30.9985 22.7959C31.0375 22.7622 31.0688 22.7206 31.0904 22.6739C31.1119 22.6271 31.1232 22.5763 31.1234 22.5248C31.1236 22.4734 31.1128 22.4224 31.0917 22.3755C31.0706 22.3286 31.0396 22.2867 31.0009 22.2527C31.1459 22.1909 31.3023 22.1602 31.4599 22.1627ZM41.4724 22.1627C41.3319 22.1608 41.1922 22.1852 41.0607 22.2347C41.104 22.2684 41.139 22.3116 41.1631 22.3609C41.1872 22.4101 41.1997 22.4643 41.1997 22.5192C41.1996 22.574 41.1871 22.6282 41.1629 22.6774C41.1387 22.7267 41.1036 22.7698 41.0603 22.8034C41.0169 22.837 40.9665 22.8603 40.9127 22.8714C40.859 22.8826 40.8035 22.8813 40.7503 22.8676C40.6972 22.854 40.6478 22.8284 40.6061 22.7928C40.5643 22.7572 40.5313 22.7126 40.5094 22.6622C40.3735 22.8593 40.3012 23.0933 40.3024 23.3327C40.3024 23.5352 40.3699 23.7152 40.4374 23.8727H42.5074C42.5974 23.7152 42.6424 23.5352 42.6424 23.3327C42.6424 22.6802 42.1249 22.1627 41.4724 22.1627ZM36.4774 30.7352C35.2624 30.7352 34.1149 30.4427 33.1474 29.9477C32.8099 29.7677 32.4724 30.1502 32.6749 30.4652C33.4849 31.7027 34.8799 32.5352 36.4774 32.5352C38.0749 32.5352 39.4699 31.7027 40.2799 30.4652C40.4824 30.1502 40.1224 29.7902 39.8074 29.9477C38.8174 30.4427 37.6924 30.7352 36.4774 30.7352ZM34.5649 27.0002L35.7574 23.1527C36.0274 22.3202 37.2199 22.3202 37.4674 23.1527L38.6599 27.0002C38.9074 27.7877 38.3224 28.5752 37.4899 28.5752H35.7349C34.9024 28.5752 34.3174 27.7877 34.5649 27.0002Z" fill="black"/>
<path fill-rule="evenodd" clip-rule="evenodd" d="M24.2825 2.25C18.4708 2.25 15.584 9.2655 19.6768 13.3582L20.7275 14.409V15.795C20.7275 16.5195 20.9795 17.1878 21.4025 17.712C21.41 17.8455 21.4198 17.976 21.4318 18.1035L21.515 19.3725C20.9059 19.9341 20.42 20.616 20.088 21.3751C19.7561 22.1342 19.5854 22.954 19.5868 23.7825C19.5868 25.2675 20.1268 26.631 21.02 27.6772V28.935C21.02 30.8565 21.7873 32.6362 23.0675 33.9368C23.258 34.4618 23.4845 34.9658 23.747 35.4487L21.7108 36.9428C20.8805 37.485 20.0593 38.0947 19.301 38.7202H19.2988C16.2314 41.2474 13.762 44.4225 12.0677 48.0175C10.3735 51.6126 9.49658 55.5382 9.50001 59.5125V67.5C9.50001 68.0967 9.73706 68.669 10.159 69.091C10.581 69.5129 11.1533 69.75 11.75 69.75H61.25C62.4155 69.75 63.4775 69.264 64.2425 68.5642C65.012 67.86 65.6375 66.7868 65.6375 65.4975V54.27C65.6375 51.9795 63.9163 50.085 61.7 49.806V47.259L61.7023 47.2545L61.7045 47.25C61.7195 47.222 61.7402 47.1974 61.7653 47.178C62.7485 46.4873 63.509 45.5423 64.0018 44.4352C64.6394 43.0234 64.9711 41.4925 64.975 39.9433C64.9789 38.3941 64.6549 36.8616 64.0243 35.4465C63.4912 34.256 62.6246 33.2454 61.5293 32.5371C60.434 31.8287 59.1569 31.4528 57.8525 31.455C56.5495 31.4525 55.2736 31.8272 54.1788 32.5339C53.0841 33.2406 52.2172 34.249 51.683 35.4375C51.4673 35.9162 51.2853 36.4094 51.1385 36.9135L50.8775 36.7447L49.3993 35.6737C49.8403 34.9087 50.186 34.092 50.4365 33.2235C51.3645 31.9862 51.8665 30.4816 51.8675 28.935V27.837C52.8824 26.7309 53.4446 25.2837 53.4425 23.7825C53.4425 22.122 52.7675 20.6213 51.683 19.5345L51.7685 18.1305C51.8045 17.811 51.8308 17.4893 51.8473 17.1653C52.0543 16.749 52.1735 16.272 52.16 15.7567V14.4315L53.2333 13.3582C57.326 9.2655 54.437 2.25 48.6275 2.25H24.2825ZM50.0518 10.1767L48.5218 11.7067C48.2533 11.9173 48.0362 12.1861 47.8869 12.4928C47.7376 12.7996 47.66 13.1363 47.66 13.4775V14.625H25.2275V13.4775C25.2274 12.8808 24.9902 12.3086 24.5683 11.8868L22.8583 10.1767C21.596 8.9145 22.4893 6.75 24.2825 6.75H48.6275C50.4208 6.75 51.314 8.9145 50.0518 10.1767ZM34.4525 37.0575C32.918 37.0589 31.4171 36.608 30.1374 35.7612C28.8576 34.9145 27.8558 33.7094 27.257 32.2965L27.1738 32.0378C27.1341 31.9042 27.0821 31.7747 27.0185 31.6508C26.8835 31.2273 26.7856 30.7929 26.726 30.3525L26.0825 20.6213C26.0897 20.5179 26.0897 20.4141 26.0825 20.3108L25.9183 17.7863L25.9138 17.7345C25.8881 17.4486 25.8716 17.162 25.8643 16.875H47.3315C47.3195 17.0205 47.3045 17.166 47.2865 17.3115L47.2798 17.3497L46.4675 30.3547C46.2039 32.2157 45.2769 33.9187 43.8571 35.1504C42.4374 36.382 40.6205 37.0593 38.741 37.0575H34.4525ZM23.4005 41.238C22.9715 41.5455 22.5583 41.8627 22.1608 42.1898C19.6053 44.295 17.5481 46.9404 16.137 49.9356C14.726 52.9308 13.9961 56.2015 14 59.5125V65.25H51.1655C51.2121 64.8434 51.3374 64.4499 51.5345 64.0913C51.2666 63.6252 51.1252 63.0972 51.1245 62.5596C51.1237 62.022 51.2635 61.4936 51.53 61.0267C51.2615 60.557 51.1214 60.0248 51.1238 59.4837C51.1261 58.9426 51.2709 58.4117 51.5435 57.9443C51.266 57.4522 51.129 56.8934 51.1475 56.3288C51.1835 54.8775 52.2748 53.6332 53.7035 53.478C53.8017 53.4509 53.9031 53.4373 54.005 53.4375H55.1075V47.0993C55.1057 46.9132 55.0587 46.7304 54.9705 46.5665C54.8823 46.4027 54.7556 46.2627 54.6013 46.1587L54.5878 46.1475L54.572 46.1385C53.7715 45.5557 53.132 44.7792 52.7135 43.8818C52.6424 43.7284 52.5756 43.5731 52.5133 43.416C52.151 43.3254 51.8169 43.146 51.5413 42.894C50.8917 42.3025 50.208 41.7495 49.4938 41.238H39.8143C40.5899 41.7789 41.2234 42.4992 41.661 43.3375C42.0986 44.1758 42.3272 45.1074 42.3275 46.053V49.8105C40.7724 49.8105 39.2807 49.1936 38.1798 48.0953C37.0789 46.9969 36.4586 45.5066 36.455 43.9515C36.4514 45.5066 35.8312 46.9969 34.7302 48.0953C33.6293 49.1936 32.1377 49.8105 30.5825 49.8105V46.053C30.5825 44.0618 31.577 42.3 33.0958 41.238H23.4005ZM61.1375 57.5775V55.6875H54.2413C54.1636 55.7041 54.0844 55.7124 54.005 55.7122C53.735 55.7122 53.4065 55.971 53.3975 56.3873V56.3985C53.3927 56.5263 53.4174 56.6534 53.4697 56.7701C53.522 56.8867 53.6005 56.9898 53.699 57.0713C53.8387 57.1783 53.9513 57.3166 54.0277 57.4751C54.1042 57.6336 54.1425 57.8078 54.1394 57.9837C54.1364 58.1596 54.0921 58.3324 54.0101 58.4881C53.9281 58.6438 53.8108 58.7781 53.6675 58.8803C53.5753 58.9527 53.5009 59.0453 53.4502 59.151C53.3995 59.2568 53.3738 59.3727 53.375 59.49C53.375 59.7938 53.51 59.9963 53.645 60.0885C53.7948 60.1904 53.9178 60.3269 54.0036 60.4865C54.0893 60.6461 54.1352 60.824 54.1374 61.0051C54.1396 61.1863 54.0981 61.3653 54.0162 61.5269C53.9344 61.6885 53.8148 61.828 53.6675 61.9335C53.5747 62.0064 53.5 62.0998 53.4492 62.2063C53.3985 62.3129 53.3731 62.4297 53.375 62.5477C53.375 62.8493 53.51 63.0517 53.645 63.144C53.7941 63.2451 53.9168 63.3806 54.0026 63.5391C54.0885 63.6975 54.135 63.8742 54.1383 64.0544C54.1416 64.2345 54.1016 64.4129 54.0216 64.5743C53.9417 64.7358 53.8241 64.8757 53.6788 64.9823C53.5873 65.0522 53.5153 65.1444 53.4695 65.25H61.1375V57.5775ZM57.8525 36.3375C56.9413 36.3375 56.1335 36.8685 55.7758 37.6717C55.4619 38.3772 55.2997 39.1429 55.2997 39.915C55.2997 40.6871 55.4619 41.4506 55.7758 42.156C56.1335 42.9615 56.9413 43.4925 57.8525 43.4925C58.7638 43.4925 59.5715 42.9615 59.9293 42.1582C60.5638 40.7407 60.5638 39.096 59.9338 37.6807C59.7495 37.2829 59.4561 36.9455 59.0877 36.7077C58.7193 36.47 58.291 36.3416 57.8525 36.3375Z" fill="black"/>
</svg>
