<svg width="191" height="190" viewBox="0 0 191 190" fill="none" xmlns="http://www.w3.org/2000/svg">
<rect x="0.190002" width="190" height="190" rx="95" fill="#FFD40D"/>
<rect x="6.44" y="6.25" width="177.5" height="177.5" rx="88.75" stroke="black" stroke-width="3"/>
<path d="M81.55 45.7089C81.6566 45.5382 81.8113 45.4209 82.014 45.3569C82.2166 45.2929 82.4673 45.2609 82.766 45.2609C83.0753 45.2609 83.3206 45.2875 83.502 45.3409C83.6833 45.3942 83.822 45.4582 83.918 45.5329C84.014 45.6075 84.0833 45.7195 84.126 45.8689C84.19 46.0502 84.222 46.3275 84.222 46.7009V51.5329C84.222 52.9409 83.7846 54.2209 82.91 55.3729C82.4833 55.9169 81.934 56.3595 81.262 56.7009C80.59 57.0315 79.8433 57.1969 79.022 57.1969C78.2113 57.1969 77.47 57.0262 76.798 56.6849C76.1366 56.3435 75.598 55.8955 75.182 55.3409C74.318 54.2102 73.886 52.9302 73.886 51.5009V46.6849C73.886 46.4289 73.8913 46.2422 73.902 46.1249C73.9233 45.9969 73.9766 45.8529 74.062 45.6929C74.1473 45.5329 74.2913 45.4209 74.494 45.3569C74.6966 45.2929 74.9686 45.2609 75.31 45.2609C75.6513 45.2609 75.9233 45.2929 76.126 45.3569C76.3286 45.4209 76.4673 45.5329 76.542 45.6929C76.67 45.9382 76.734 46.2742 76.734 46.7009V51.5009C76.734 52.1515 76.894 52.7702 77.214 53.3569C77.374 53.6555 77.614 53.8955 77.934 54.0769C78.254 54.2582 78.6326 54.3489 79.07 54.3489C79.8486 54.3489 80.43 54.0609 80.814 53.4849C81.198 52.9089 81.39 52.2422 81.39 51.4849V46.5889C81.39 46.1729 81.4433 45.8795 81.55 45.7089ZM94.1513 47.6449C94.4287 48.2102 94.5673 48.8395 94.5673 49.5329C94.5673 50.2262 94.4287 50.8555 94.1513 51.4209C93.874 51.9755 93.5167 52.4182 93.0793 52.7489C92.194 53.4315 91.2767 53.7729 90.3273 53.7729H88.3273V55.5809C88.3273 55.8262 88.3167 56.0129 88.2953 56.1409C88.2847 56.2582 88.2367 56.3969 88.1513 56.5569C88.002 56.8449 87.586 56.9889 86.9033 56.9889C86.1567 56.9889 85.7193 56.7915 85.5913 56.3969C85.5273 56.2155 85.4953 55.9382 85.4953 55.5649V46.6849C85.4953 46.4395 85.5007 46.2582 85.5113 46.1409C85.5327 46.0129 85.586 45.8689 85.6713 45.7089C85.8207 45.4209 86.2367 45.2769 86.9193 45.2769H90.3433C91.282 45.2769 92.194 45.6182 93.0793 46.3009C93.5167 46.6315 93.874 47.0795 94.1513 47.6449ZM90.3433 50.9409C90.6633 50.9409 90.978 50.8235 91.2873 50.5889C91.5967 50.3542 91.7513 50.0022 91.7513 49.5329C91.7513 49.0635 91.5967 48.7115 91.2873 48.4769C90.978 48.2315 90.658 48.1089 90.3273 48.1089H88.3273V50.9409H90.3433ZM95.7008 45.2609H104.597C104.938 45.2609 105.189 45.3035 105.349 45.3889C105.509 45.4635 105.615 45.5862 105.669 45.7569C105.722 45.9275 105.749 46.1515 105.749 46.4289C105.749 46.7062 105.722 46.9302 105.669 47.1009C105.615 47.2609 105.525 47.3729 105.397 47.4369C105.205 47.5329 104.933 47.5809 104.581 47.5809H101.525V55.6289C101.525 55.8742 101.514 56.0555 101.493 56.1729C101.482 56.2902 101.434 56.4289 101.349 56.5889C101.274 56.7382 101.135 56.8449 100.933 56.9089C100.73 56.9729 100.463 57.0049 100.133 57.0049C99.8022 57.0049 99.5355 56.9729 99.3328 56.9089C99.1408 56.8449 99.0022 56.7382 98.9168 56.5889C98.8422 56.4289 98.7942 56.2902 98.7728 56.1729C98.7622 56.0449 98.7568 55.8582 98.7568 55.6129V47.5809H95.6848C95.3435 47.5809 95.0928 47.5435 94.9328 47.4689C94.7728 47.3835 94.6662 47.2555 94.6128 47.0849C94.5595 46.9142 94.5328 46.6902 94.5328 46.4129C94.5328 46.1355 94.5595 45.9169 94.6128 45.7569C94.6662 45.5862 94.7568 45.4689 94.8848 45.4049C95.0768 45.3089 95.3488 45.2609 95.7008 45.2609ZM111.187 45.1329C112.765 45.1329 114.136 45.7035 115.299 46.8449C116.461 47.9862 117.043 49.4049 117.043 51.1009C117.043 52.7862 116.488 54.2262 115.379 55.4209C114.269 56.6049 112.904 57.1969 111.283 57.1969C109.661 57.1969 108.28 56.6102 107.139 55.4369C106.008 54.2635 105.443 52.8662 105.443 51.2449C105.443 50.3595 105.603 49.5329 105.923 48.7649C106.243 47.9862 106.669 47.3355 107.203 46.8129C107.736 46.2902 108.349 45.8795 109.043 45.5809C109.736 45.2822 110.451 45.1329 111.187 45.1329ZM108.275 51.1649C108.275 52.1142 108.579 52.8875 109.187 53.4849C109.805 54.0715 110.493 54.3649 111.251 54.3649C112.008 54.3649 112.691 54.0769 113.299 53.5009C113.907 52.9249 114.211 52.1515 114.211 51.1809C114.211 50.2102 113.901 49.4315 113.283 48.8449C112.675 48.2582 111.992 47.9649 111.235 47.9649C110.477 47.9649 109.795 48.2635 109.187 48.8609C108.579 49.4475 108.275 50.2155 108.275 51.1649Z" fill="black"/>
<path d="M63.9751 106.44C65.6151 106.44 66.7751 106.64 67.4551 107.04C68.1751 107.4 68.6551 107.98 68.8951 108.78C69.1351 109.54 69.2551 110.56 69.2551 111.84C69.2551 113.08 69.1151 114.08 68.8351 114.84C68.5951 115.6 68.1751 116.12 67.5751 116.4C66.6951 116.88 65.4551 117.12 63.8551 117.12H40.3951C38.9551 117.12 37.7151 116.58 36.6751 115.5C35.6351 114.42 35.1151 113.16 35.1151 111.72C35.1151 109.56 35.8551 107.58 37.3351 105.78C38.8551 103.94 40.6751 102.38 42.7951 101.1C44.9151 99.78 47.0351 98.5 49.1551 97.26C51.2751 95.98 53.0751 94.54 54.5551 92.94C56.0751 91.34 56.8351 89.64 56.8351 87.84C56.8351 87.48 56.6951 86.98 56.4151 86.34C56.1351 85.66 55.8151 85.12 55.4551 84.72C55.1351 84.28 54.6151 83.88 53.8951 83.52C53.1751 83.16 52.1751 82.98 50.8951 82.98C49.6151 82.98 48.4951 83.46 47.5351 84.42C46.6151 85.34 46.0951 86.26 45.9751 87.18L45.7351 88.56V88.92C45.7351 89.8 45.6951 90.46 45.6151 90.9C45.5751 91.34 45.3951 91.84 45.0751 92.4C44.4751 93.36 42.9151 93.84 40.3951 93.84C37.5951 93.84 35.9351 93.08 35.4151 91.56C35.2151 90.92 35.1151 89.9 35.1151 88.5C35.1151 84.34 36.5951 80.62 39.5551 77.34C42.5551 74.02 46.4551 72.36 51.2551 72.36C56.0951 72.36 60.0151 74.04 63.0151 77.4C66.0151 80.72 67.5151 84.52 67.5151 88.8C67.5151 91.08 67.0151 93.24 66.0151 95.28C65.0151 97.32 63.8151 98.96 62.4151 100.2C59.4551 102.84 56.8151 104.62 54.4951 105.54L52.9951 106.14V106.44H63.9751ZM76.2376 78.12C77.3976 76.48 79.0176 75.12 81.0976 74.04C83.2176 72.92 85.6576 72.36 88.4176 72.36C91.1776 72.36 93.5776 72.9 95.6176 73.98C97.6976 75.06 99.3176 76.4 100.478 78C101.678 79.6 102.638 81.48 103.358 83.64C104.558 87.24 105.158 91.06 105.158 95.1C105.158 102.34 103.598 108.08 100.478 112.32C99.3176 113.92 97.6976 115.24 95.6176 116.28C93.5776 117.32 91.1976 117.84 88.4776 117.84C85.7576 117.84 83.3376 117.32 81.2176 116.28C79.1376 115.2 77.4976 113.88 76.2976 112.32C75.1376 110.76 74.1776 108.9 73.4176 106.74C72.2576 103.3 71.6776 99.4 71.6776 95.04C71.6776 91.04 72.1376 87.62 73.0576 84.78C74.0176 81.94 75.0776 79.72 76.2376 78.12ZM88.3576 107.16C92.4776 107.16 94.5376 103.24 94.5376 95.4V95.04C94.5376 87 92.4976 82.98 88.4176 82.98C84.3376 82.98 82.2976 87.02 82.2976 95.1C82.2976 103.14 84.3176 107.16 88.3576 107.16ZM134.342 105.96C134.342 102.52 135.242 99.78 137.042 97.74C138.842 95.7 141.342 94.68 144.542 94.68C147.782 94.68 150.262 95.68 151.982 97.68C153.702 99.68 154.562 102.46 154.562 106.02C154.562 109.54 153.702 112.28 151.982 114.24C150.262 116.16 147.822 117.12 144.662 117.12C141.502 117.12 138.982 116.12 137.102 114.12C135.262 112.08 134.342 109.36 134.342 105.96ZM144.422 109.92C146.862 109.92 148.082 108.56 148.082 105.84C148.082 104.4 147.782 103.38 147.182 102.78C146.622 102.18 145.702 101.88 144.422 101.88C143.182 101.88 142.282 102.2 141.722 102.84C141.162 103.44 140.882 104.46 140.882 105.9C140.882 107.34 141.162 108.38 141.722 109.02C142.322 109.62 143.222 109.92 144.422 109.92ZM109.082 84.12C109.082 80.68 109.982 77.94 111.782 75.9C113.582 73.86 116.082 72.84 119.282 72.84C122.482 72.84 124.942 73.84 126.662 75.84C128.422 77.84 129.302 80.6 129.302 84.12C129.302 87.64 128.422 90.38 126.662 92.34C124.942 94.26 122.502 95.22 119.342 95.22C116.222 95.22 113.722 94.22 111.842 92.22C110.002 90.22 109.082 87.52 109.082 84.12ZM119.162 88.02C121.562 88.02 122.762 86.68 122.762 84C122.762 82.56 122.482 81.54 121.922 80.94C121.362 80.34 120.442 80.04 119.162 80.04C117.922 80.04 117.002 80.36 116.402 81C115.842 81.6 115.562 82.62 115.562 84.06C115.562 85.46 115.862 86.48 116.462 87.12C117.062 87.72 117.962 88.02 119.162 88.02ZM141.302 71.34C141.822 70.42 142.322 69.96 142.802 69.96C143.322 69.96 144.062 70.22 145.022 70.74C145.982 71.26 146.462 71.82 146.462 72.42C146.462 72.7 146.322 73.08 146.042 73.56L122.822 117.42L122.702 117.6C122.262 118.4 121.802 118.8 121.322 118.8C120.842 118.8 120.122 118.54 119.162 118.02C118.202 117.54 117.722 117.06 117.722 116.58C117.722 116.1 117.862 115.62 118.142 115.14L141.302 71.34Z" fill="black"/>
<path d="M56.0145 132.556L58.9745 132.572C60.5212 132.572 61.8812 133.132 63.0545 134.252C64.2278 135.361 64.8145 136.732 64.8145 138.364C64.8145 139.985 64.2385 141.377 63.0865 142.54C61.9452 143.702 60.5585 144.284 58.9265 144.284H55.9985C55.3478 144.284 54.9425 144.15 54.7825 143.884C54.6545 143.66 54.5905 143.318 54.5905 142.86V133.964C54.5905 133.708 54.5958 133.521 54.6065 133.404C54.6278 133.286 54.6812 133.148 54.7665 132.988C54.9158 132.7 55.3318 132.556 56.0145 132.556ZM58.9745 141.452C59.7425 141.452 60.4358 141.169 61.0545 140.604C61.6732 140.028 61.9825 139.308 61.9825 138.444C61.9825 137.58 61.6785 136.86 61.0705 136.284C60.4732 135.697 59.7692 135.404 58.9585 135.404H57.4225V141.452H58.9745ZM65.8561 133.98C65.8561 133.734 65.8615 133.553 65.8721 133.436C65.8935 133.308 65.9468 133.164 66.0321 133.004C66.1815 132.716 66.5975 132.572 67.2801 132.572C68.0268 132.572 68.4695 132.769 68.6081 133.164C68.6615 133.345 68.6881 133.622 68.6881 133.996V142.892C68.6881 143.148 68.6775 143.334 68.6561 143.452C68.6455 143.569 68.5975 143.708 68.5121 143.868C68.3628 144.156 67.9468 144.3 67.2641 144.3C66.5175 144.3 66.0801 144.097 65.9521 143.692C65.8881 143.521 65.8561 143.249 65.8561 142.876V133.98ZM70.1415 142.652C69.8642 142.31 69.7255 142.006 69.7255 141.74C69.7255 141.462 69.9548 141.1 70.4135 140.652C70.6802 140.396 70.9628 140.268 71.2615 140.268C71.5602 140.268 71.9762 140.534 72.5095 141.068C72.6588 141.249 72.8722 141.425 73.1495 141.596C73.4268 141.756 73.6828 141.836 73.9175 141.836C74.9095 141.836 75.4055 141.43 75.4055 140.62C75.4055 140.374 75.2668 140.172 74.9895 140.012C74.7228 139.841 74.3868 139.718 73.9815 139.644C73.5762 139.569 73.1388 139.452 72.6695 139.292C72.2002 139.121 71.7628 138.924 71.3575 138.7C70.9522 138.476 70.6108 138.124 70.3335 137.644C70.0668 137.153 69.9335 136.566 69.9335 135.884C69.9335 134.945 70.2802 134.129 70.9735 133.436C71.6775 132.732 72.6322 132.38 73.8375 132.38C74.4775 132.38 75.0588 132.465 75.5815 132.636C76.1148 132.796 76.4828 132.961 76.6855 133.132L77.0855 133.436C77.4162 133.745 77.5815 134.006 77.5815 134.22C77.5815 134.433 77.4535 134.726 77.1975 135.1C76.8348 135.633 76.4615 135.9 76.0775 135.9C75.8535 135.9 75.5762 135.793 75.2455 135.58C75.2135 135.558 75.1495 135.505 75.0535 135.42C74.9682 135.334 74.8882 135.265 74.8135 135.212C74.5895 135.073 74.3015 135.004 73.9495 135.004C73.6082 135.004 73.3202 135.089 73.0855 135.26C72.8615 135.42 72.7495 135.649 72.7495 135.948C72.7495 136.236 72.8828 136.47 73.1495 136.652C73.4268 136.833 73.7682 136.956 74.1735 137.02C74.5788 137.084 75.0215 137.185 75.5015 137.324C75.9815 137.452 76.4242 137.612 76.8295 137.804C77.2348 137.996 77.5708 138.332 77.8375 138.812C78.1148 139.281 78.2535 139.862 78.2535 140.556C78.2535 141.249 78.1148 141.862 77.8375 142.396C77.5602 142.918 77.1975 143.324 76.7495 143.612C75.8855 144.177 74.9628 144.46 73.9815 144.46C73.4802 144.46 73.0055 144.401 72.5575 144.284C72.1095 144.156 71.7468 144.001 71.4695 143.82C70.9042 143.478 70.5095 143.148 70.2855 142.828L70.1415 142.652ZM86.6216 141.228L86.9096 141.02C87.2723 140.806 87.5283 140.7 87.6776 140.7C88.0083 140.7 88.3656 140.998 88.7496 141.596C88.9843 141.969 89.1016 142.268 89.1016 142.492C89.1016 142.716 89.027 142.902 88.8776 143.052C88.739 143.201 88.5736 143.334 88.3816 143.452C88.1896 143.569 88.003 143.681 87.8216 143.788C87.651 143.894 87.2936 144.033 86.7496 144.204C86.2056 144.374 85.6776 144.46 85.1656 144.46C84.6643 144.46 84.1523 144.396 83.6296 144.268C83.1176 144.129 82.5843 143.905 82.0296 143.596C81.4856 143.276 80.995 142.892 80.5576 142.444C80.1203 141.985 79.7576 141.404 79.4696 140.7C79.1923 139.985 79.0536 139.212 79.0536 138.38C79.0536 137.548 79.1923 136.796 79.4696 136.124C79.747 135.441 80.099 134.881 80.5256 134.444C80.963 133.996 81.459 133.622 82.0136 133.324C83.059 132.748 84.1096 132.46 85.1656 132.46C85.667 132.46 86.1736 132.54 86.6856 132.7C87.2083 132.849 87.603 133.004 87.8696 133.164L88.2536 133.388C88.4456 133.505 88.595 133.601 88.7016 133.676C88.979 133.9 89.1176 134.156 89.1176 134.444C89.1176 134.721 89.0056 135.014 88.7816 135.324C88.3656 135.9 87.9923 136.188 87.6616 136.188C87.4696 136.188 87.1976 136.07 86.8456 135.836C86.3976 135.473 85.8003 135.292 85.0536 135.292C84.3603 135.292 83.6776 135.532 83.0056 136.012C82.6856 136.246 82.419 136.577 82.2056 137.004C81.9923 137.43 81.8856 137.916 81.8856 138.46C81.8856 138.993 81.9923 139.473 82.2056 139.9C82.419 140.326 82.691 140.662 83.0216 140.908C83.6723 141.377 84.3496 141.612 85.0536 141.612C85.3843 141.612 85.6936 141.569 85.9816 141.484C86.2803 141.398 86.4936 141.313 86.6216 141.228ZM95.657 132.428C97.2357 132.428 98.6063 132.998 99.769 134.14C100.932 135.281 101.513 136.7 101.513 138.396C101.513 140.081 100.958 141.521 99.849 142.716C98.7397 143.9 97.3743 144.492 95.753 144.492C94.1317 144.492 92.7503 143.905 91.609 142.732C90.4783 141.558 89.913 140.161 89.913 138.54C89.913 137.654 90.073 136.828 90.393 136.06C90.713 135.281 91.1397 134.63 91.673 134.108C92.2063 133.585 92.8197 133.174 93.513 132.876C94.2063 132.577 94.921 132.428 95.657 132.428ZM92.745 138.46C92.745 139.409 93.049 140.182 93.657 140.78C94.2757 141.366 94.9637 141.66 95.721 141.66C96.4783 141.66 97.161 141.372 97.769 140.796C98.377 140.22 98.681 139.446 98.681 138.476C98.681 137.505 98.3717 136.726 97.753 136.14C97.145 135.553 96.4623 135.26 95.705 135.26C94.9477 135.26 94.265 135.558 93.657 136.156C93.049 136.742 92.745 137.51 92.745 138.46ZM110.223 133.004C110.33 132.833 110.485 132.716 110.687 132.652C110.89 132.588 111.141 132.556 111.439 132.556C111.749 132.556 111.994 132.582 112.175 132.636C112.357 132.689 112.495 132.753 112.591 132.828C112.687 132.902 112.757 133.014 112.799 133.164C112.863 133.345 112.895 133.622 112.895 133.996V138.828C112.895 140.236 112.458 141.516 111.583 142.668C111.157 143.212 110.607 143.654 109.935 143.996C109.263 144.326 108.517 144.492 107.695 144.492C106.885 144.492 106.143 144.321 105.471 143.98C104.81 143.638 104.271 143.19 103.855 142.636C102.991 141.505 102.559 140.225 102.559 138.796V133.98C102.559 133.724 102.565 133.537 102.575 133.42C102.597 133.292 102.65 133.148 102.735 132.988C102.821 132.828 102.965 132.716 103.167 132.652C103.37 132.588 103.642 132.556 103.983 132.556C104.325 132.556 104.597 132.588 104.799 132.652C105.002 132.716 105.141 132.828 105.215 132.988C105.343 133.233 105.407 133.569 105.407 133.996V138.796C105.407 139.446 105.567 140.065 105.887 140.652C106.047 140.95 106.287 141.19 106.607 141.372C106.927 141.553 107.306 141.644 107.743 141.644C108.522 141.644 109.103 141.356 109.487 140.78C109.871 140.204 110.063 139.537 110.063 138.78V133.884C110.063 133.468 110.117 133.174 110.223 133.004ZM121.737 133.068C121.843 132.876 121.998 132.748 122.201 132.684C122.403 132.62 122.654 132.588 122.953 132.588C123.262 132.588 123.507 132.614 123.689 132.668C123.881 132.721 124.019 132.785 124.105 132.86C124.201 132.934 124.27 133.046 124.313 133.196C124.377 133.366 124.409 133.638 124.409 134.012V142.892C124.409 143.148 124.398 143.334 124.377 143.452C124.366 143.569 124.318 143.708 124.233 143.868C124.083 144.156 123.667 144.3 122.985 144.3C122.569 144.3 122.281 144.268 122.121 144.204C121.961 144.14 121.827 144.038 121.721 143.9C119.321 140.7 117.742 138.609 116.985 137.628V142.892C116.985 143.148 116.974 143.334 116.953 143.452C116.942 143.569 116.894 143.708 116.809 143.868C116.659 144.156 116.243 144.3 115.561 144.3C114.899 144.3 114.494 144.156 114.345 143.868C114.259 143.708 114.206 143.564 114.185 143.436C114.174 143.308 114.169 143.121 114.169 142.876V133.948C114.169 133.542 114.217 133.249 114.313 133.068C114.419 132.876 114.574 132.748 114.777 132.684C114.979 132.62 115.241 132.588 115.561 132.588C115.881 132.588 116.131 132.62 116.313 132.684C116.505 132.737 116.638 132.801 116.713 132.876C116.755 132.908 116.878 133.046 117.081 133.292C119.331 136.353 120.835 138.374 121.593 139.356V133.948C121.593 133.542 121.641 133.249 121.737 133.068ZM126.452 132.556H135.348C135.69 132.556 135.94 132.598 136.1 132.684C136.26 132.758 136.367 132.881 136.42 133.052C136.474 133.222 136.5 133.446 136.5 133.724C136.5 134.001 136.474 134.225 136.42 134.396C136.367 134.556 136.276 134.668 136.148 134.732C135.956 134.828 135.684 134.876 135.332 134.876H132.276V142.924C132.276 143.169 132.266 143.35 132.244 143.468C132.234 143.585 132.186 143.724 132.1 143.884C132.026 144.033 131.887 144.14 131.684 144.204C131.482 144.268 131.215 144.3 130.884 144.3C130.554 144.3 130.287 144.268 130.084 144.204C129.892 144.14 129.754 144.033 129.668 143.884C129.594 143.724 129.546 143.585 129.524 143.468C129.514 143.34 129.508 143.153 129.508 142.908V134.876H126.436C126.095 134.876 125.844 134.838 125.684 134.764C125.524 134.678 125.418 134.55 125.364 134.38C125.311 134.209 125.284 133.985 125.284 133.708C125.284 133.43 125.311 133.212 125.364 133.052C125.418 132.881 125.508 132.764 125.636 132.7C125.828 132.604 126.1 132.556 126.452 132.556Z" fill="black"/>
</svg>
