<svg width="79" height="105" viewBox="0 0 79 105" fill="none" xmlns="http://www.w3.org/2000/svg">
<path d="M9.07091 24.8454C8.23069 25.349 7.48999 26.0051 6.88616 26.7805C6.22068 27.4977 5.61382 28.2681 5.07152 29.0841C4.08967 30.6405 3.52935 32.5654 4.28501 34.3138C4.6323 35.0329 5.14462 35.6581 5.77942 36.1372C6.41423 36.6164 7.15317 36.9357 7.93484 37.0687C8.87285 37.2562 9.8351 37.286 10.7827 37.1569C11.8013 37.0709 12.8049 36.8548 13.7694 36.5135C14.2064 36.3372 14.3606 35.5589 13.7694 35.4759C12.1244 35.1854 10.4434 35.7561 8.77275 35.5382C7.61098 35.3929 6.259 34.817 5.77578 33.6549C5.17433 32.197 5.96599 30.625 6.8039 29.4577C7.25114 28.8247 7.76006 28.2281 8.25869 27.6314C8.84854 27.0289 9.36615 26.3585 9.80087 25.634C9.85852 25.5259 9.88012 25.402 9.86245 25.2806C9.84479 25.1591 9.78881 25.0467 9.70283 24.9599C9.61684 24.8731 9.50542 24.8166 9.38511 24.7988C9.2648 24.781 9.142 24.8027 9.03493 24.8609L9.07091 24.8454Z" fill="#B72A23"/>
<path d="M26.6519 17.6598C27.6199 17.7454 28.5935 17.7454 29.5615 17.6598C30.3707 17.6373 31.1805 17.6563 31.9879 17.7168C32.6721 17.7629 33.336 17.9708 33.9259 18.3238C34.5244 18.7902 34.9324 19.4623 35.0722 20.2123C35.2144 20.6127 35.2534 21.043 35.1853 21.4627C35.0626 21.8587 34.8898 22.2371 34.6712 22.5885C34.3217 23.2526 33.9567 23.9063 33.5506 24.5341C33.161 25.1513 32.7078 25.7252 32.1986 26.2462C31.6846 26.765 30.9237 27.1697 30.5382 27.8026C30.4901 27.8888 30.465 27.986 30.4653 28.0849C30.4657 28.1838 30.4915 28.2809 30.5402 28.3667C30.5889 28.4525 30.6589 28.524 30.7432 28.5743C30.8276 28.6246 30.9235 28.6518 31.0214 28.6535C31.9107 28.7053 32.7281 27.9375 33.3038 27.3409C33.9281 26.6694 34.4764 25.9299 34.9386 25.1359C35.4166 24.3421 35.869 23.5224 36.2648 22.6871C36.7083 21.7909 36.784 20.7546 36.4756 19.8025C36.3127 18.9134 35.871 18.1007 35.2157 17.4842C34.5605 16.8677 33.7262 16.48 32.8361 16.3783C31.8939 16.2338 30.9404 16.18 29.9882 16.2175C29.4227 16.2175 28.8521 16.2745 28.2866 16.3264C27.7357 16.3331 27.188 16.4115 26.6571 16.5599C26.1995 16.7311 26.071 17.5197 26.6571 17.5975L26.6519 17.6598Z" fill="#B72A23"/>
<path d="M1.73528 8.39367C1.03719 8.75623 0.475747 9.33928 0.13656 10.0539C-0.0100842 10.4297 -0.0394364 10.8418 0.0524378 11.235C0.144312 11.6281 0.353025 11.9836 0.65062 12.2537C1.22423 12.6588 1.92281 12.8429 2.61947 12.7725C3.58125 12.7659 4.53953 12.6546 5.47764 12.4404C8.96811 11.6726 12.1604 9.75815 15.1008 7.77108C16.5582 6.85175 17.8327 5.66582 18.8586 4.27426C19.5835 3.21069 20.262 1.48305 19.1259 0.435041C18.5348 -0.0837758 17.7431 -0.0474548 17.0183 0.0822493C16.0796 0.252562 15.1511 0.475994 14.2372 0.751511C12.5582 1.25345 10.9217 1.89016 9.34337 2.65556C7.55598 3.51933 5.85221 4.54931 4.25418 5.73214C2.8765 6.76977 0.840821 8.04608 0.424432 9.84118C0.311339 10.3341 0.969335 10.8321 1.33946 10.36C1.70958 9.88788 2.07971 9.32236 2.51666 8.85542C2.99636 8.35613 3.51181 7.89314 4.05884 7.47019C5.19559 6.57458 6.39858 5.76805 7.65726 5.05768C10.1014 3.6685 12.7214 2.62127 15.4453 1.94478C16.1224 1.75967 16.8088 1.61074 17.5015 1.49861C18.2366 1.40003 18.3034 1.7995 18.103 2.42208C17.7226 3.63093 16.6173 4.65818 15.6766 5.43641C14.6011 6.2825 13.4711 7.05552 12.2941 7.75034C11.0711 8.52616 9.7986 9.21943 8.48489 9.82561C6.97272 10.5325 5.36216 11.0014 3.70928 11.216C3.19522 11.2731 1.87408 11.574 1.47312 11.1278C0.959055 10.5416 1.98717 9.5714 2.35216 9.19266C2.71714 8.81393 2.23392 8.05646 1.73015 8.38331L1.73528 8.39367Z" fill="#B72A23"/>
<path d="M0.0853023 11.5737C0.414301 12.4194 0.686754 13.2443 1.08258 14.0692C1.47841 14.8941 1.92564 15.6257 2.37287 16.4091C3.27762 17.9655 4.29545 19.522 5.31843 21.0162C6.34141 22.5104 7.33869 23.9216 8.40279 25.3327C9.33842 26.7017 10.5207 27.8808 11.8881 28.8088C12.8751 29.421 13.7799 27.849 12.7929 27.2524C11.5593 26.3958 10.4957 25.3135 9.6571 24.0616C8.60842 22.6781 7.59058 21.2635 6.60358 19.8177C5.64229 18.4169 4.73755 16.9746 3.80196 15.553C3.33416 14.8423 2.89721 14.1107 2.41914 13.4052C1.94106 12.6996 1.32419 11.9888 0.784424 11.2676C0.542816 10.946 -0.110041 11.112 0.0647395 11.5737H0.0853023Z" fill="#B72A23"/>
<path d="M18.9822 1.16676C18.756 1.56625 18.5196 1.16675 18.7817 1.55068C18.9 1.73745 19.0028 1.93463 19.121 2.12659C19.3523 2.50532 19.5631 2.89443 19.7739 3.28354C20.2005 4.07214 20.6015 4.83999 20.9562 5.68047C21.6553 7.2888 22.2208 8.95937 22.7657 10.6248C24.02 14.4121 25.2126 18.2151 26.4926 21.9921C26.8576 23.0816 28.5489 22.6302 28.2096 21.5148C26.7959 17.0426 25.3823 12.5444 23.8144 8.11891C23.1594 6.13045 22.2978 4.21748 21.2441 2.41193C20.7917 1.68559 20.216 0.61681 19.4294 0.222509C18.8383 -0.0732159 17.8461 0.222513 18.098 1.03706C18.1318 1.12278 18.1875 1.1979 18.2596 1.25463C18.3317 1.31137 18.4174 1.34767 18.508 1.35983C18.5986 1.37198 18.6908 1.35955 18.7751 1.32379C18.8593 1.28803 18.9326 1.23023 18.9873 1.15637L18.9822 1.16676Z" fill="#B72A23"/>
<path d="M11.8572 28.5134C13.3428 29.2605 15.0392 29.1152 16.638 28.8766C18.2874 28.6361 19.9128 28.2507 21.4958 27.7248C24.2255 26.7909 26.8832 25.1567 27.9678 22.3395C28.2609 21.582 27.0374 21.0684 26.6724 21.7843C25.4541 24.1709 23.2179 25.5354 20.7556 26.3292C19.3957 26.7624 18.0101 27.109 16.6071 27.3668C15.1176 27.5794 13.6109 27.642 12.1091 27.5536C12.0046 27.5632 11.9055 27.6049 11.8251 27.673C11.7447 27.7411 11.6869 27.8325 11.6595 27.9347C11.6321 28.037 11.6363 28.1452 11.6717 28.2449C11.707 28.3447 11.7718 28.4311 11.8572 28.4926V28.5134Z" fill="#B72A23"/>
<path d="M11.6671 36.8195C12.8237 38.0076 13.2093 39.7042 13.3995 41.3125C13.6411 43.1439 13.7387 45.0116 13.8158 46.8586C13.9396 48.8689 13.8465 50.8869 13.5383 52.8769C13.1938 54.8484 12.5667 56.7628 12.1349 58.7136C11.713 60.6498 11.4159 62.6116 11.2455 64.5866C11.1684 65.5049 11.1684 66.4232 11.0708 67.3259C10.9457 68.5687 10.8874 69.8174 10.896 71.0666C10.896 81.9047 14.5767 94.2837 24.1844 100.245C28.739 103.078 34.0904 104.478 39.3903 104.883C45.2808 105.324 51.1975 104.516 56.7604 102.512C61.901 100.65 66.7949 97.7805 70.5527 93.6922C73.9526 89.9944 76.438 85.5375 77.806 80.6855C79.2312 75.5635 79.383 70.1658 78.2481 64.9705C76.8914 59.0106 74.0397 53.5028 69.9666 48.9754C68.7967 47.6896 67.5504 46.4768 66.2345 45.3437C66.1435 45.2687 66.0281 45.2305 65.9107 45.2367C65.7933 45.2429 65.6824 45.2929 65.5997 45.3771C65.5169 45.4613 65.4681 45.5736 65.4629 45.6922C65.4577 45.8107 65.4964 45.9269 65.5714 46.0182C69.8278 50.5526 73.5856 55.8757 75.5287 61.8421C77.1852 66.7592 77.609 72.0139 76.7625 77.1367C75.9216 81.9637 73.9357 86.5136 70.9742 90.3977C67.8306 94.3787 63.7721 97.5256 59.1508 99.5652C53.8817 101.974 48.1614 103.212 42.377 103.197C37.1593 103.197 31.8234 102.201 27.13 99.8454C24.9916 98.8032 23.0239 97.4367 21.2954 95.7934C19.2927 93.7553 17.6529 91.3842 16.4478 88.7842C14.041 83.722 12.7185 78.2046 12.5667 72.5919C12.4973 71.0354 12.5213 69.4761 12.6386 67.9226C12.7826 66.0548 12.8443 64.1819 13.0962 62.3245C13.6411 58.3764 15.0599 54.589 15.2604 50.5993C15.3351 48.6829 15.2732 46.7635 15.0753 44.856C14.9747 43.152 14.7496 41.4578 14.4019 39.7872C14.0801 38.3902 13.3472 37.1242 12.2994 36.1554C11.8573 35.7663 11.2353 36.3785 11.6517 36.8092L11.6671 36.8195Z" fill="#B72A23"/>
<path d="M32.5789 27.3722C33.9142 29.1473 35.5693 30.6522 37.4573 31.8081C39.2514 32.965 41.3744 34.1687 43.4872 34.5786C44.1195 34.6979 44.7929 34.0286 44.3868 33.3957C43.6826 32.3061 43.9088 30.7341 44.3149 29.572C44.7609 28.3341 45.5321 27.242 46.5459 26.4124C47.6277 25.5706 48.8758 24.9726 50.206 24.6588C51.7131 24.2004 53.3032 24.0904 54.8582 24.3371C60.9036 25.5252 63.0832 32.192 64.1627 37.4943C64.5277 39.279 64.831 41.0845 65.2525 42.8589C65.5822 44.6053 66.2837 46.2587 67.3088 47.7046C67.6018 48.073 68.0542 47.6527 68.0028 47.2999C67.7406 45.4944 67.1957 43.7149 66.7999 41.9354C66.404 40.1558 66.0905 38.3711 65.7152 36.5916C65.0263 33.3594 64.0805 30.0441 62.1168 27.3566C60.3638 24.9856 57.8706 23.066 54.9199 22.6873C51.6314 22.3044 48.325 23.2355 45.708 25.2814C44.4653 26.3226 43.53 27.6884 43.004 29.2296C42.4539 30.7918 42.4539 32.4976 43.004 34.0598L44.1709 33.1518C43.2148 32.7056 42.2124 32.384 41.2613 31.9378C40.3363 31.5022 39.4385 31.0102 38.5728 30.4644C36.8495 29.2985 35.2028 28.0213 33.643 26.6407C33.1289 26.2204 32.1985 26.7808 32.6508 27.4137L32.5789 27.3722Z" fill="#B72A23"/>
<path d="M57.1768 38.3346C57.0123 37.5927 56.2566 37.1102 55.6346 36.7781C54.9349 36.4218 54.2077 36.1234 53.4601 35.8857C52.8303 35.6692 52.2714 35.2823 51.8445 34.7673C51.4175 34.2522 51.1389 33.6287 51.0389 32.9648C50.9803 32.6427 50.986 32.312 51.0558 31.9922C51.1255 31.6723 51.2578 31.3698 51.445 31.1023C51.6642 30.8666 51.9418 30.6943 52.249 30.6031C52.5563 30.5119 52.8821 30.5051 53.1928 30.5834C54.5911 30.8636 55.686 32.1918 56.3234 33.3954C56.6891 34.0832 56.936 34.8289 57.0534 35.6004C57.1243 36.1723 57.1243 36.7509 57.0534 37.3229L57.0071 37.5823V37.712C56.9506 37.8676 56.966 37.8832 57.0585 37.7587L57.403 37.6653C57.5829 37.6653 57.2385 37.5045 57.1819 37.4682C57.0409 37.3757 56.8931 37.2942 56.7398 37.2243C56.1178 36.9441 55.3776 37.7068 55.9585 38.2619C56.3176 38.6625 56.7892 38.943 57.3104 39.0661C57.9016 39.0972 58.2203 38.6147 58.3386 38.0959C58.5414 37.1559 58.5624 36.1852 58.4002 35.2372C58.0799 33.2985 57.078 31.5413 55.578 30.2877C54.7899 29.5841 53.782 29.182 52.7302 29.1515C52.24 29.151 51.7567 29.2683 51.3205 29.4939C50.8842 29.7195 50.5075 30.0467 50.2215 30.4485C49.106 32.088 49.6664 34.3812 50.8693 35.7924C51.6237 36.5932 52.5853 37.1648 53.6452 37.4422C54.1883 37.6054 54.7177 37.8119 55.2285 38.0596C55.7425 38.3242 56.1178 38.7133 56.6319 38.926C56.966 39.0609 57.2436 38.6718 57.1768 38.3761V38.3346Z" fill="#B72A23"/>
<path d="M22.1486 54.8171C20.7778 55.2161 19.5293 55.9585 18.5193 56.9754C17.63 57.9767 17.1005 59.3101 17.5837 60.6071C18.4731 63.0403 21.6962 63.7771 23.917 64.3115C29.367 65.5885 35.0472 65.4673 40.4389 63.9587C45.8598 62.5091 50.8077 59.6464 54.7863 55.6576C56.7243 53.6705 58.4207 51.1231 58.6777 48.28C58.8062 46.8585 58.5955 45.3487 57.2023 44.6483C55.8092 43.9479 54.3545 44.446 53.0899 45.1671C50.0055 46.9311 47.5226 49.5408 44.7878 51.7665C42.053 53.9922 39.0509 55.9948 35.5347 56.2957C34.9127 56.3476 34.9024 57.3334 35.5347 57.2867C41.1894 56.8405 45.2299 52.7989 49.4606 49.4681C50.5524 48.5915 51.6994 47.7873 52.8945 47.0608C53.8455 46.5005 55.3723 45.5043 56.4929 46.2099C57.4131 46.817 57.007 48.7314 56.7705 49.6238C56.4306 50.8564 55.8658 52.0141 55.105 53.0376C53.5809 55.0498 51.715 56.773 49.5943 58.1272C47.5092 59.5446 45.2662 60.7096 42.9115 61.598C38.2294 63.3483 33.2146 64.0029 28.2453 63.5125C26.8603 63.3711 25.4864 63.1354 24.1329 62.8069C22.8315 62.559 21.5692 62.1349 20.3802 61.5462C19.2185 60.8976 18.324 59.8392 18.9254 58.4333C19.2741 57.74 19.7484 57.1189 20.3237 56.6018C20.9061 55.994 21.5605 55.4608 22.272 55.0143C22.4056 54.9365 22.3182 54.703 22.164 54.7549L22.1486 54.8171Z" fill="#B72A23"/>
<path d="M23.5623 55.7513C26.0144 54.9834 28.6412 55.4192 31.1498 55.5074C33.6584 55.5956 36.5937 55.4452 38.8864 54.2986C39.2463 54.117 39.092 53.4529 38.6757 53.5048C37.3185 53.6812 35.9974 54.0236 34.6403 54.2104C33.294 54.3642 31.9373 54.4042 30.5844 54.3297C28.0912 54.2104 25.6031 53.9562 23.3207 55.1702C23.2518 55.2074 23.1992 55.2691 23.1731 55.3434C23.147 55.4177 23.1493 55.4991 23.1795 55.5717C23.2097 55.6444 23.2657 55.703 23.3365 55.7362C23.4073 55.7695 23.4878 55.7748 23.5623 55.7513Z" fill="#B72A23"/>
<path d="M16.2883 65.2146C14.9003 69.2406 14.7821 73.635 15.4093 77.827C15.7269 79.9096 16.2434 81.9564 16.9514 83.9387C17.666 85.9361 18.4936 87.9335 20.0872 89.3914C20.1201 89.4225 20.1621 89.4421 20.2069 89.4474C20.2517 89.4527 20.2969 89.4433 20.3361 89.4206C20.3752 89.398 20.4061 89.3633 20.4242 89.3216C20.4423 89.2799 20.4467 89.2335 20.4368 89.1891C19.9227 87.2332 19.0231 85.4433 18.3497 83.5496C17.6673 81.6354 17.1665 79.6602 16.8538 77.6506C16.2959 73.5855 16.3374 69.4594 16.9771 65.4065C16.9896 65.3619 16.9933 65.3153 16.9879 65.2692C16.9825 65.2232 16.9682 65.1786 16.9458 65.1381C16.9233 65.0977 16.8932 65.0621 16.8571 65.0333C16.8211 65.0046 16.7797 64.9833 16.7355 64.9707C16.6913 64.9581 16.6451 64.9544 16.5994 64.9599C16.5538 64.9653 16.5097 64.9798 16.4696 65.0024C16.4295 65.025 16.3942 65.0554 16.3657 65.0919C16.3373 65.1283 16.3162 65.17 16.3037 65.2146H16.2883Z" fill="#B72A23"/>
<path d="M25.1661 93.9775C28.086 97.0904 32.0957 98.4705 36.203 99.1138C38.4308 99.4413 40.6762 99.6318 42.9269 99.6845C44.041 99.7321 45.157 99.7096 46.2683 99.6171C47.2964 99.5237 48.4788 99.4251 49.3527 98.844C49.4229 98.8004 49.4771 98.7349 49.5072 98.6574C49.5374 98.5799 49.5418 98.4947 49.5197 98.4145C49.4977 98.3343 49.4504 98.2635 49.3851 98.2128C49.3197 98.1621 49.2398 98.1342 49.1573 98.1332C48.1292 98.1332 47.1525 98.4393 46.1347 98.512C45.1074 98.5734 44.0775 98.5734 43.0503 98.512C40.869 98.4327 38.6933 98.2387 36.532 97.9309C32.6663 97.3343 28.7234 96.0164 25.6494 93.5054C25.3152 93.2304 24.8526 93.6662 25.1661 93.9931V93.9775Z" fill="#B72A23"/>
<path d="M52.2675 98.5276C52.3683 98.5379 52.4699 98.5379 52.5708 98.5276L52.7558 98.486C52.8948 98.4577 53.0322 98.4213 53.1671 98.3771C53.3161 98.3252 53.4652 98.2837 53.604 98.2266C53.6679 98.2067 53.725 98.1689 53.7685 98.1177H53.7428L54.0204 97.9776C54.1058 97.9256 54.1718 97.8465 54.2081 97.7526C54.2444 97.6588 54.2489 97.5555 54.2209 97.4588C54.1951 97.3675 54.1405 97.2871 54.0653 97.23C53.9902 97.1729 53.8986 97.1421 53.8045 97.1423C53.6606 97.1577 53.518 97.1837 53.3778 97.2201H53.5012C53.4112 97.2243 53.3218 97.2365 53.2339 97.2564L53.0694 97.3187C52.9262 97.3628 52.7855 97.4148 52.6479 97.4743L52.3394 97.6248L52.1955 97.6922C52.1252 97.7414 52.0583 97.7951 51.995 97.8531C51.9441 97.909 51.9101 97.9784 51.8968 98.0532C51.8836 98.1279 51.8918 98.2049 51.9204 98.2751C51.949 98.3454 51.9968 98.4059 52.0583 98.4497C52.1198 98.4935 52.1923 98.5187 52.2675 98.5224V98.5276Z" fill="#B72A23"/>
<path d="M56.3697 96.8051C60.0247 95.9024 63.2221 93.4536 66.0186 91.0048C67.3197 89.7747 68.5006 88.4213 69.5451 86.9632C70.6646 85.4817 71.5332 83.8233 72.1154 82.0552C73.4982 77.9358 73.5033 73.5154 73.0355 69.2352C72.8489 67.0654 72.467 64.9173 71.8943 62.8175C71.3524 61.0049 70.6218 59.2554 69.7147 57.5982C68.6682 55.6813 67.4407 53.8709 66.0495 52.1921C64.7129 50.5838 63.217 48.8146 61.1916 48.1194C60.4308 47.86 60.1172 49.0533 60.8626 49.323C62.5487 49.9301 63.7876 51.5436 64.9185 52.8769C66.094 54.2627 67.1483 55.7486 68.0697 57.318C69.9413 60.6326 71.1007 64.3077 71.4728 68.1042C71.9509 72.1769 72.3004 76.4623 71.2723 80.478C70.383 83.954 68.3782 86.849 65.9621 89.4327C63.1964 92.3952 59.598 94.2681 56.1281 96.2085C56.0617 96.249 56.0119 96.3122 55.9878 96.3867C55.9637 96.4611 55.9669 96.5418 55.9968 96.6141C56.0267 96.6864 56.0813 96.7454 56.1507 96.7805C56.2201 96.8155 56.2996 96.8243 56.3749 96.8051H56.3697Z" fill="#B72A23"/>
<path d="M48.5715 74.2989C48.3878 74.3696 48.2208 74.4781 48.081 74.6175C47.9412 74.757 47.8318 74.9244 47.7597 75.1089C47.6877 75.2934 47.6545 75.4911 47.6624 75.6893C47.6703 75.8876 47.719 76.0819 47.8055 76.26C47.9756 76.6479 48.2432 76.9841 48.5817 77.2354C48.9348 77.5315 49.3416 77.7553 49.7795 77.8943C51.3885 78.3716 53.1826 76.8204 52.6068 75.1187C52.4682 74.6973 52.2132 74.3247 51.8717 74.0447C51.5222 73.7697 50.8436 73.5259 50.4735 73.8735C50.4137 73.9325 50.3751 74.01 50.364 74.0937C50.3528 74.1773 50.3696 74.2623 50.4118 74.3352C50.5161 74.477 50.6646 74.5793 50.8333 74.6258C50.8333 74.6258 50.9156 74.6673 50.9361 74.6828C50.9361 74.6828 51.039 74.7814 51.1006 74.8229C51.2674 74.9343 51.4078 75.0813 51.5119 75.2535C51.6248 75.4329 51.6805 75.643 51.6712 75.8554C51.6696 75.957 51.6487 76.0574 51.6096 76.1511C51.5839 76.2289 51.6096 76.1511 51.5736 76.2341C51.5428 76.302 51.5049 76.3664 51.4605 76.4261C51.3317 76.6066 51.1604 76.7518 50.9621 76.8488C50.7637 76.9457 50.5446 76.9912 50.3244 76.9812C49.7609 76.8913 49.2473 76.6027 48.8748 76.1666C48.6812 75.9912 48.5556 75.7523 48.5201 75.4922C48.5116 75.3834 48.5374 75.2747 48.5937 75.1816C48.65 75.0885 48.734 75.0156 48.8336 74.9734C49.2038 74.8074 48.9416 74.2159 48.5663 74.3249L48.5715 74.2989Z" fill="#B72A23"/>
<path d="M42.8243 87.0359C42.7003 87.2238 42.6312 87.4432 42.6248 87.6689C42.6184 87.8945 42.6751 88.1175 42.7883 88.3122C42.9074 88.5357 43.0761 88.7283 43.2812 88.875C43.4863 89.0217 43.7223 89.1185 43.9706 89.1579C44.5701 89.2229 45.1757 89.1168 45.7184 88.8518C45.9855 88.7449 46.2097 88.5514 46.3559 88.3018C46.5012 88.0135 46.5395 87.6823 46.4638 87.368C46.3872 87.0531 46.2232 86.7669 45.9909 86.543C45.7476 86.261 45.4118 86.0769 45.045 86.0242C44.9636 86.0268 44.8842 86.0503 44.8144 86.0925C44.7445 86.1347 44.6865 86.1943 44.6458 86.2654C44.6051 86.3366 44.5832 86.4172 44.5819 86.4993C44.5807 86.5815 44.6003 86.6626 44.6389 86.735C44.6996 86.8366 44.7801 86.9249 44.8754 86.9944L45.0502 87.1345L45.1067 87.176C45.0502 87.1241 45.1735 87.2227 45.1067 87.176C45.1633 87.2279 45.2455 87.3005 45.3072 87.368L45.3535 87.4198L45.4254 87.5495C45.4254 87.5962 45.4254 87.5236 45.4254 87.5184C45.4275 87.5374 45.4275 87.5565 45.4254 87.5755C45.4254 87.5755 45.4665 87.7156 45.4511 87.6481C45.4357 87.5807 45.4511 87.6948 45.4511 87.7208V87.783C45.4481 87.8019 45.4481 87.8212 45.4511 87.8401C45.4511 87.9023 45.4511 87.7986 45.4511 87.809C45.4511 87.8193 45.3637 87.9231 45.4511 87.8401C45.4228 87.8721 45.3919 87.9016 45.3586 87.9283C45.4357 87.866 45.3586 87.9283 45.302 87.9542L45.1838 88.0113L45.1221 88.0372C45.023 88.0789 44.9218 88.1153 44.8188 88.1462L44.5052 88.2292H44.4333C44.4333 88.2292 44.351 88.2292 44.4024 88.2292C44.4538 88.2292 44.3665 88.2292 44.3665 88.2292H43.9089C43.8531 88.2221 43.7981 88.2099 43.7444 88.1929C43.7444 88.1929 43.6314 88.1514 43.6725 88.1929C43.7136 88.2344 43.6211 88.1617 43.6108 88.1565L43.5183 88.0943L43.4617 88.0424C43.4093 87.994 43.3643 87.938 43.3281 87.8764C43.292 87.8234 43.2675 87.7633 43.2561 87.7C43.2382 87.6438 43.2318 87.5845 43.2371 87.5256C43.2424 87.4668 43.2593 87.4097 43.2869 87.3576C43.3062 87.3235 43.3186 87.286 43.3234 87.2471C43.3283 87.2082 43.3255 87.1687 43.3152 87.1309C43.305 87.093 43.2874 87.0576 43.2636 87.0266C43.2398 86.9957 43.2102 86.9697 43.1764 86.9503C43.1427 86.9309 43.1054 86.9184 43.0669 86.9135C43.0283 86.9086 42.9892 86.9114 42.9518 86.9217C42.9143 86.9321 42.8792 86.9498 42.8485 86.9739C42.8178 86.9979 42.7921 87.0278 42.7729 87.0619L42.8243 87.0359Z" fill="#B72A23"/>
<path d="M17.0491 40.1037C17.426 42.5837 17.5826 45.0926 17.5169 47.6007C17.424 48.4945 17.5114 49.3981 17.7739 50.257C17.9317 50.6817 18.2277 51.0397 18.6134 51.2725C18.9991 51.5053 19.4516 51.5991 19.897 51.5385C22.272 51.2272 22.2463 48.4256 22.0612 46.6045C21.9304 45.4238 21.6824 44.2592 21.321 43.1285C21.0099 42.0215 20.6358 40.9337 20.2003 39.8703C19.8045 38.9779 18.9152 38.1426 17.8665 38.4384C17.6564 38.4905 17.4623 38.5939 17.3011 38.7395C17.1398 38.885 17.0165 39.0683 16.9419 39.2732C16.8673 39.4781 16.8437 39.6984 16.8731 39.9147C16.9026 40.131 16.9842 40.3366 17.1108 40.5136C17.4347 40.9287 18.0618 40.4773 17.9436 40.0259C17.8048 39.5071 18.3086 39.3618 18.7095 39.5849C19.1092 39.8742 19.4007 40.2909 19.5372 40.7678C19.9328 41.7936 20.2575 42.8459 20.5087 43.9171C20.7836 44.9328 20.9389 45.9776 20.9714 47.03C20.9714 47.8497 20.9251 49.1416 20.2928 49.7589C19.6605 50.3763 19.0848 49.9561 18.9717 49.1882C18.8432 48.2959 18.9717 47.3672 18.8997 46.4644C18.697 44.2497 18.2592 42.0633 17.594 39.9429C17.5717 39.8729 17.5236 39.8143 17.4595 39.7793C17.3955 39.7442 17.3205 39.7355 17.2502 39.7549C17.1799 39.7743 17.1198 39.8204 17.0823 39.8834C17.0449 39.9465 17.033 40.0217 17.0491 40.0934V40.1037Z" fill="#B72A23"/>
<path d="M9.14309 16.7155C9.11739 16.8211 9.11739 16.9315 9.14309 17.0372C9.17448 17.1526 9.23465 17.258 9.31787 17.3432C9.37725 17.4097 9.45379 17.4582 9.53892 17.4833C9.61927 17.5272 9.70977 17.5487 9.80109 17.5456C9.92493 17.5702 10.0531 17.5594 10.1712 17.5145L10.3049 17.4055C10.3896 17.3205 10.4515 17.2152 10.4848 17.0994C10.5157 16.9804 10.5157 16.8553 10.4848 16.7362L10.4128 16.5702C10.3542 16.4695 10.271 16.3855 10.1712 16.3264C10.0132 16.2434 9.83169 16.2177 9.65715 16.2537C9.54361 16.2874 9.43965 16.3479 9.35386 16.4301C9.27169 16.5162 9.21168 16.6213 9.17908 16.7362L9.14309 16.7155Z" fill="#B72A23"/>
<path d="M15.656 11.88L15.692 11.8178C15.7616 11.7041 15.7973 11.5726 15.7948 11.439C15.7975 11.3038 15.7618 11.1706 15.692 11.0551C15.6282 10.9391 15.5341 10.8429 15.4199 10.777C15.3057 10.7112 15.1758 10.6782 15.0443 10.6816C14.9111 10.6803 14.78 10.7143 14.6639 10.7802C14.554 10.8486 14.4623 10.9429 14.3966 11.0551C14.3293 11.1717 14.2938 11.3041 14.2938 11.439C14.2937 11.5723 14.3292 11.7032 14.3966 11.8178L14.4326 11.88C14.4938 11.9867 14.5827 12.0746 14.6896 12.1343C14.7962 12.2005 14.9192 12.2347 15.0443 12.2328C15.171 12.234 15.2955 12.1999 15.4042 12.1343C15.5097 12.0745 15.5968 11.9865 15.656 11.88Z" fill="#B72A23"/>
<path d="M16.9156 21.8723V22.1213C16.9275 22.1771 16.9502 22.23 16.9825 22.2769C17.0375 22.3742 17.1174 22.4548 17.2138 22.5104C17.3111 22.5684 17.4221 22.5989 17.5351 22.5989C17.6481 22.5989 17.759 22.5684 17.8564 22.5104C17.9511 22.4545 18.0293 22.3738 18.0825 22.2769C18.1026 22.2556 18.1153 22.2283 18.1185 22.1991C18.1577 22.1222 18.1771 22.0365 18.1751 21.9501V21.8723C18.1797 21.7839 18.1601 21.6959 18.1185 21.618C18.0888 21.5402 18.0433 21.4695 17.9849 21.4105C17.9264 21.3515 17.8564 21.3056 17.7793 21.2756C17.7015 21.2353 17.6148 21.2156 17.5274 21.2186L17.3577 21.2445C17.2491 21.2737 17.1499 21.3309 17.0698 21.4105L16.9722 21.5402C16.9128 21.6404 16.8825 21.7555 16.8848 21.8723H16.9156Z" fill="#B72A23"/>
<path d="M20.5088 16.6015V16.5341C20.5702 16.4345 20.6023 16.3193 20.6013 16.202C20.6007 16.0864 20.5699 15.973 20.5121 15.8732C20.4543 15.7734 20.3715 15.6907 20.272 15.6334C20.1725 15.5761 20.0599 15.5462 19.9453 15.5468C19.8308 15.5473 19.7184 15.5783 19.6194 15.6365C19.5227 15.6935 19.4415 15.7737 19.383 15.87C19.3259 15.9712 19.2958 16.0856 19.2956 16.202C19.2953 16.3185 19.3255 16.4331 19.383 16.5341L19.4138 16.6015C19.4668 16.6977 19.5443 16.7779 19.6383 16.8336C19.7323 16.8894 19.8394 16.9189 19.9484 16.9189C20.0575 16.9189 20.1645 16.8894 20.2585 16.8336C20.3525 16.7779 20.4301 16.6977 20.4831 16.6015H20.5088Z" fill="#B72A23"/>
<path d="M13.2554 25.4783C13.3305 25.4795 13.4048 25.4617 13.4713 25.4264C13.5395 25.4068 13.6004 25.3671 13.646 25.3123C13.7004 25.2631 13.7411 25.2005 13.7643 25.1307C13.7959 25.0644 13.8118 24.9915 13.8105 24.918V24.7675C13.786 24.6743 13.7361 24.5898 13.6666 24.5237L13.5535 24.4355C13.4702 24.3833 13.3739 24.3563 13.2759 24.3576C13.201 24.3519 13.126 24.3681 13.06 24.4043C12.9931 24.4293 12.9331 24.4702 12.8852 24.5237C12.8311 24.5709 12.7903 24.6317 12.767 24.7C12.7361 24.7684 12.7203 24.8428 12.7207 24.918V25.0684C12.7453 25.1616 12.7952 25.2461 12.8647 25.3123L12.9778 25.4005C13.0611 25.4526 13.1574 25.4795 13.2554 25.4783Z" fill="#B72A23"/>
<path d="M19.3728 8.52839C19.4942 8.52839 19.6105 8.47974 19.6963 8.39315C19.7821 8.30655 19.8303 8.1891 19.8303 8.06664C19.8303 7.94418 19.7821 7.82672 19.6963 7.74013C19.6105 7.65354 19.4942 7.60492 19.3728 7.60492C19.2515 7.60492 19.1351 7.65354 19.0493 7.74013C18.9635 7.82672 18.9153 7.94418 18.9153 8.06664C18.9153 8.1891 18.9635 8.30655 19.0493 8.39315C19.1351 8.47974 19.2515 8.52839 19.3728 8.52839Z" fill="#B72A23"/>
<path d="M7.41565 7.65707C7.36676 7.64433 7.31547 7.64433 7.26658 7.65707H7.14834C7.09493 7.67305 7.04691 7.70355 7.00955 7.74526L6.94272 7.83348C6.90824 7.88175 6.8902 7.93998 6.89131 7.99948C6.87599 8.0555 6.87599 8.11467 6.89131 8.17069L6.93758 8.27966C6.96064 8.32963 6.99831 8.37126 7.04553 8.39897C7.08781 8.43845 7.13897 8.46696 7.19461 8.482H7.31284C7.37041 8.48368 7.42733 8.46931 7.47734 8.44049C7.53229 8.42464 7.582 8.39419 7.62128 8.3523L7.6881 8.26408L7.72923 8.15515C7.74455 8.09912 7.74455 8.03995 7.72923 7.98393C7.72547 7.92524 7.70785 7.86831 7.67782 7.8179L7.61099 7.72971C7.55609 7.67614 7.48902 7.63694 7.41565 7.61556V7.65707Z" fill="#B72A23"/>
<path d="M11.3225 5.82041C11.4273 5.78757 11.5189 5.72174 11.5839 5.6326C11.649 5.54345 11.6841 5.43565 11.6841 5.32493C11.6841 5.21421 11.649 5.10641 11.5839 5.01726C11.5189 4.92812 11.4273 4.86229 11.3225 4.82945C11.2177 4.86229 11.1261 4.92812 11.0611 5.01726C10.996 5.10641 10.9609 5.21421 10.9609 5.32493C10.9609 5.43565 10.996 5.54345 11.0611 5.6326C11.1261 5.72174 11.2177 5.78757 11.3225 5.82041Z" fill="#B72A23"/>
<path d="M18.2676 35.6315C19.085 35.7093 20.0308 35.3202 20.8019 35.1127C21.6678 34.8387 22.5174 34.5148 23.3465 34.1425C24.1587 33.7966 24.9521 33.411 25.7266 32.9856C26.4206 32.612 27.5156 32.1762 27.8446 31.4291C27.8842 31.3558 27.9045 31.2734 27.9036 31.1899C27.9027 31.1064 27.8805 31.0246 27.8392 30.9522C27.7979 30.8798 27.7389 30.8193 27.6679 30.7766C27.5968 30.7338 27.516 30.7102 27.4333 30.708C26.6108 30.708 25.8037 31.398 25.1098 31.7871C24.4158 32.1762 23.6087 32.5913 22.8325 32.9492C22.0562 33.3072 21.2903 33.6133 20.4729 33.9194C19.6556 34.2255 18.7354 34.3967 18.0517 34.8637C17.9701 34.9128 17.9066 34.9874 17.8708 35.0762C17.8349 35.165 17.8287 35.2631 17.8531 35.3558C17.8776 35.4484 17.9312 35.5305 18.006 35.5897C18.0808 35.6488 18.1726 35.6817 18.2676 35.6834V35.6315Z" fill="#B72A23"/>
</svg>
