<svg width="73" height="77" viewBox="0 0 73 77" fill="none" xmlns="http://www.w3.org/2000/svg">
<path d="M16.3783 39.703C16.9166 36.4569 17.7728 33.242 19.8915 30.6271C22.0929 27.941 25.4485 26.654 28.6546 25.6114C32.0475 24.5133 35.5611 23.6036 38.5986 21.6533C40.1725 20.7166 41.4934 19.4092 42.4463 17.8451C43.2732 16.2581 43.7593 14.5157 43.8735 12.7299C44.048 10.8521 43.9719 8.95947 43.647 7.1018C43.3932 5.61493 43.0385 4.09165 44.5874 3.2152C46.108 2.39143 47.8354 2.02774 49.559 2.16846C50.3831 2.28348 51.1755 2.56353 51.8889 2.99186C52.6023 3.42018 53.222 3.98798 53.7109 4.6613C57.4414 9.23573 57.4529 16.3001 54.3908 21.2033C53.3412 22.7402 52.0736 24.1161 50.6278 25.2879C49.1268 26.5961 47.9469 28.2321 47.1795 30.0694C46.4417 31.8482 45.8754 33.6626 44.8742 35.3201C43.8444 37.0515 42.4311 38.5236 40.7429 39.6228C40.0663 40.0634 40.8186 41.2386 41.5232 40.83C43.193 39.89 44.6875 38.6681 45.9406 37.2184C47.1033 35.7706 48.0023 34.1297 48.5966 32.3706C49.2555 30.616 49.9252 28.953 51.287 27.6098C52.6488 26.2666 54.0373 25.2269 55.2034 23.7693C59.2623 18.6813 59.9155 11.0272 56.7363 5.36145C55.8751 3.70312 54.6235 2.27909 53.0894 1.21211C51.5209 0.234072 49.6622 -0.170886 47.829 0.0660174C46.0855 0.24048 44.0401 0.801958 42.693 1.97057C41.2578 3.21278 41.1498 4.97292 41.4362 6.7348C42.0175 10.3319 42.405 14.9166 39.8416 17.889C37.3829 20.7412 33.3875 21.9161 29.9322 23.0048C25.9328 24.2397 21.7326 25.5689 18.8192 28.7574C17.4877 30.2484 16.4651 31.9886 15.8106 33.8774C15.156 35.7661 14.8825 37.7659 15.0058 39.7611C15.0536 40.5901 16.2738 40.4552 16.3783 39.703Z" fill="#B72A23"/>
<path d="M48.5324 30.93C55.0887 28.2869 63.5817 29.1327 68.6663 34.4059C70.0496 35.8392 70.9179 37.6178 70.4773 39.6311C70.0142 41.4037 68.9432 42.9573 67.4512 44.0207C65.645 45.3436 63.6276 46.3508 61.4848 46.9993C59.4344 47.7423 57.2713 48.1263 55.0904 48.1343C53.2168 48.0732 50.6986 47.1346 50.6381 44.8925C50.5945 43.0294 52.4507 41.7635 53.5235 40.4916C54.0019 39.9313 53.2329 39.3381 52.6984 39.5184C51.7417 39.8615 50.8831 40.4325 50.1969 41.1822C49.5108 41.9318 49.0177 42.8375 48.7603 43.8206C48.2327 46.0877 49.5438 48.2322 51.5077 49.3088C53.5958 50.4301 56.0517 50.2756 58.3099 49.8785C60.9995 49.4145 63.6031 48.5452 66.0319 47.3003C68.1925 46.188 70.2955 44.6512 71.5175 42.5028C72.0773 41.5768 72.434 40.5425 72.564 39.4683C72.6941 38.3942 72.5945 37.3046 72.2719 36.2718C71.4971 33.9784 69.5606 32.2052 67.6053 30.886C65.8325 29.6995 63.8769 28.8122 61.8166 28.2594C57.2214 27.0329 52.1675 27.383 47.9942 29.7574C47.8554 29.8395 47.7523 29.9704 47.7048 30.1245C47.6574 30.2786 47.6692 30.4448 47.7378 30.5907C47.8063 30.7366 47.9268 30.8518 48.0757 30.9136C48.2246 30.9754 48.3912 30.9795 48.543 30.925L48.5324 30.93Z" fill="#B72A23"/>
<path d="M67.7872 45.875C68.5299 47.7707 69.5659 49.7414 69.3347 51.8432C69.0736 54.2107 66.9322 55.5011 64.9348 56.3432C62.535 57.3465 59.9881 57.9532 57.3937 58.1398C56.1545 58.2359 54.909 58.2145 53.6738 58.0757C52.5941 58.0238 51.5553 57.6463 50.6943 56.9927C49.7485 56.1472 49.5801 54.8008 49.7525 53.6167C49.9495 52.1695 50.8256 50.932 51.0406 49.4957C51.0498 49.3399 51.0135 49.1847 50.9362 49.0492C50.8589 48.9136 50.7438 48.8034 50.605 48.732C50.4662 48.6605 50.3097 48.631 50.1544 48.6469C49.9991 48.6628 49.8518 48.7234 49.7304 48.8215C48.6947 49.976 48.0088 51.4013 47.753 52.931C47.4091 54.3744 47.5714 55.8922 48.2128 57.2303C49.6204 59.9229 52.8137 60.3764 55.5607 60.3882C58.7482 60.4072 61.9097 59.8146 64.8739 58.6424C67.4054 57.6331 70.2115 56.069 71.011 53.2549C71.8105 50.4408 70.5068 47.4478 68.9673 45.1332C68.5062 44.4404 67.5268 45.1975 67.7999 45.8884L67.7872 45.875Z" fill="#B72A23"/>
<path d="M64.2285 58.765C64.2744 61.1818 64.9832 63.6094 63.5822 65.8161C62.1811 68.0228 59.4179 68.0315 57.1153 68.0043C55.8745 67.9888 54.6376 67.8644 53.4186 67.6326C52.2958 67.4121 50.9962 67.1586 50.1573 66.3209C49.3584 65.4583 48.8465 64.3693 48.6921 63.2038C48.5338 62.0848 49.0803 61.5183 49.8826 60.851C49.9686 60.773 50.0332 60.6744 50.0705 60.5645C50.1079 60.4547 50.1165 60.3371 50.0958 60.2229C50.075 60.1087 50.0255 60.0017 49.952 59.9119C49.8784 59.8222 49.7831 59.7527 49.6752 59.7099C48.6635 59.2179 47.5405 59.9715 47.0054 60.823C46.7179 61.3652 46.546 61.9611 46.5006 62.5731C46.4552 63.1852 46.5372 63.8 46.7416 64.3786C47.0497 65.5823 47.6261 66.7006 48.4276 67.65C49.3227 68.5784 50.48 69.2114 51.7446 69.4645C54.177 70.0545 56.6914 70.2311 59.1825 69.987C60.5208 69.9339 61.8345 69.6104 63.0445 69.0361C64.0325 68.4735 64.8432 67.6455 65.3849 66.6459C66.0052 65.3881 66.3445 64.0104 66.3794 62.6084C66.4143 61.2064 66.144 59.8135 65.5871 58.5264C65.304 57.9241 64.2251 58.0442 64.2338 58.7626L64.2285 58.765Z" fill="#B72A23"/>
<path d="M58.7423 69.8331C58.3857 70.6264 57.9363 71.3747 57.4034 72.0622C56.7966 72.7183 56.0232 73.1978 55.1657 73.4494C53.2903 74.002 51.2291 73.7065 49.328 73.381C47.6869 73.1009 45.5758 72.7128 44.7009 71.0986C44.514 70.7772 44.4286 70.4069 44.4557 70.0362C44.4829 69.6654 44.6214 69.3115 44.8532 69.0209C45.1271 68.7115 45.5413 68.5362 45.6872 68.1193C45.746 67.9493 45.7594 67.767 45.7261 67.5904C45.6929 67.4137 45.6141 67.2487 45.4975 67.1118C45.3841 66.9783 45.2376 66.8767 45.0728 66.8173C44.9079 66.7579 44.7304 66.7426 44.5578 66.7731C42.1275 67.2704 41.628 70.4208 42.7081 72.2933C44.0109 74.5708 46.582 75.2651 48.9995 75.6189C51.417 75.9726 53.9477 76.1829 56.2253 75.1961C58.1416 74.3599 60.0686 72.3253 59.9319 70.0996C59.9059 69.9721 59.8434 69.8548 59.752 69.7622C59.6606 69.6695 59.5442 69.6055 59.4171 69.5778C59.2899 69.5501 59.1574 69.5599 59.0357 69.6061C58.9141 69.6523 58.8085 69.7329 58.7318 69.8381L58.7423 69.8331Z" fill="#B72A23"/>
<path d="M15.1068 38.1913C14.6868 38.6015 14.6446 39.1567 14.5468 39.7446C14.42 40.4492 14.3249 41.139 14.2351 41.8262C14.0591 43.1991 13.934 44.5888 13.8598 45.9955C13.7082 48.6921 13.6557 51.3937 13.7443 54.0936C13.8329 56.7934 14.034 59.4855 14.3186 62.177C14.4783 63.5598 14.6458 64.9453 14.8919 66.3197C14.9973 67.0114 15.1447 67.6961 15.3331 68.37C15.4877 69.0245 15.7186 69.6585 16.0211 70.2591C16.0814 70.362 16.1717 70.4439 16.2799 70.4939C16.3881 70.5438 16.509 70.5595 16.6264 70.5388C16.7438 70.518 16.852 70.4618 16.9365 70.3778C17.021 70.2937 17.0777 70.1858 17.0991 70.0685C17.1476 69.4038 17.1297 68.7358 17.0456 68.0746C17.0049 67.3842 16.8757 66.6838 16.7775 65.9946C16.5947 64.7001 16.3989 63.4053 16.2398 62.1061C15.92 59.4633 15.6866 56.8122 15.5999 54.1438C15.5131 51.4754 15.4705 48.8184 15.5612 46.1569C15.5928 44.8519 15.6245 43.5469 15.7195 42.2122C15.7599 41.5159 15.8081 40.8224 15.8277 40.123C15.8469 39.5463 15.9811 38.8575 15.6408 38.3531C15.618 38.3059 15.5856 38.2639 15.5457 38.2298C15.5059 38.1958 15.4594 38.1703 15.4092 38.1551C15.359 38.1399 15.3063 38.1353 15.2542 38.1415C15.2021 38.1477 15.1519 38.1647 15.1068 38.1913Z" fill="#B72A23"/>
<path d="M15.5834 39.096C15.2569 37.5917 14.3873 35.8653 12.8007 35.3854C11.4527 34.9741 10.0798 35.3743 8.80971 35.8423C7.53962 36.3102 6.31549 36.8211 4.99264 36.4496C4.15787 36.1969 3.3798 36.2981 2.90126 37.0778C2.48184 37.8758 2.14808 38.7159 1.90555 39.5842C-0.32123 46.2059 -0.602731 53.3272 1.09443 60.104C1.55626 62.0112 2.18572 63.8739 2.97548 65.6703C3.77015 67.3609 4.60974 69.353 5.96728 70.6629C6.06069 70.7626 6.18608 70.8263 6.32163 70.843C6.45718 70.8598 6.59431 70.8284 6.70915 70.7545C6.82399 70.6806 6.90928 70.5687 6.95017 70.4384C6.99106 70.3081 6.98496 70.1676 6.93294 70.0413C6.41782 68.5611 5.52885 67.2051 4.91895 65.7566C4.30441 64.3834 3.77347 62.9743 3.32905 61.537C2.40875 58.541 1.89472 55.435 1.80075 52.3023C1.69913 49.2081 2.01308 46.1143 2.7342 43.1037C3.099 41.6033 3.56577 40.1296 4.13127 38.6928C4.18664 38.5636 4.24612 38.2647 4.34776 38.1653C4.44941 38.0659 4.20269 38.1174 4.59292 38.1791C4.98314 38.2408 5.17947 38.3291 5.48707 38.3523C6.11017 38.3954 6.73612 38.3365 7.34024 38.1779C8.67242 37.8419 9.92148 37.1645 11.2868 36.9678C13.1217 36.6859 13.8447 38.2103 14.706 39.5213C14.9883 39.9433 15.6816 39.5658 15.583 39.109L15.5834 39.096Z" fill="#B72A23"/>
<path d="M5.15423 68.768C5.23756 69.4035 5.43497 70.0187 5.73694 70.5841C6.24127 71.4295 6.9181 72.159 7.72331 72.7253C8.52852 73.2915 9.44403 73.6817 10.4101 73.8704C11.6774 74.0921 12.9803 73.988 14.1963 73.5679C14.8207 73.3638 15.4071 73.0577 15.9314 72.662C16.4875 72.2394 17.135 71.5996 17.1269 70.8551C17.1182 70.3561 16.6179 69.7721 16.0612 70.1111C15.5046 70.4502 15.2937 70.8525 14.8549 71.1813C14.4549 71.4701 14.0158 71.7004 13.5508 71.8652C12.6163 72.1878 11.6151 72.2678 10.6412 72.0976C9.63276 71.8896 8.68212 71.4632 7.85607 70.8486C7.03001 70.2339 6.34858 69.4458 5.85965 68.5396C5.81683 68.464 5.74935 68.4054 5.6685 68.3736C5.58764 68.3418 5.49831 68.3386 5.41543 68.3648C5.33256 68.3909 5.26115 68.4447 5.21316 68.5171C5.16516 68.5895 5.14348 68.6762 5.15174 68.7627L5.15423 68.768Z" fill="#B72A23"/>
<path d="M16.3493 70.9303C20.023 74.08 25.2725 75.4635 29.9804 76.134C32.4202 76.4673 34.8878 76.5482 37.3442 76.3753C39.9182 76.1974 42.8716 75.9897 44.9771 74.3485C45.8157 73.6898 44.7182 72.4254 43.9005 73.0871C41.9721 74.6386 38.9582 74.649 36.5859 74.6933C34.3155 74.735 32.0457 74.5803 29.802 74.2311C27.5586 73.8852 25.3529 73.328 23.2143 72.5671C21.05 71.7912 18.9577 70.8395 16.8014 70.0533C16.232 69.8436 15.9346 70.5833 16.3365 70.9169L16.3493 70.9303Z" fill="#B72A23"/>
<path d="M29.4628 56.1489C30.8032 56.9623 32.0632 57.9014 33.2258 58.9535C33.7904 59.4686 34.3625 59.9996 34.8712 60.5603C35.1464 60.8438 35.4402 61.1121 35.7126 61.4034C35.9577 61.6892 36.2235 61.9567 36.5079 62.2035C36.5704 62.2466 36.6453 62.2679 36.7211 62.2641C36.7969 62.2603 36.8693 62.2315 36.9271 62.1823C36.9849 62.1331 37.0248 62.0662 37.0406 61.9919C37.0564 61.9177 37.0473 61.8403 37.0146 61.7718C36.649 61.0855 36.1857 60.4559 35.6393 59.9026C35.0882 59.3062 34.5009 58.7442 33.8808 58.2199C32.6532 57.1811 31.3277 56.2638 29.9229 55.4811C29.4747 55.2273 29.0099 55.8715 29.4628 56.1489Z" fill="#B72A23"/>
</svg>
