<svg width="89" height="62" viewBox="0 0 89 62" fill="none" xmlns="http://www.w3.org/2000/svg">
<path d="M35.1213 22.8263C33.0402 23.6963 31.0089 24.7041 30.3318 27.0821C30.0648 28.4139 29.7124 29.7266 29.2769 31.0116C28.73 32.296 27.9707 33.4755 27.0319 34.4989C26.9136 34.6297 26.8396 34.7956 26.8205 34.9722C26.8015 35.1489 26.8384 35.3271 26.9259 35.4809C27.0135 35.6347 27.147 35.756 27.3071 35.8271C27.4672 35.8983 27.6454 35.9156 27.8158 35.8764C29.0417 35.5429 27.8159 38.9649 27.7446 39.3782C27.6623 39.8854 27.7231 40.406 27.9199 40.8795C28.1167 41.353 28.4414 41.7601 28.8564 42.0535L28.5571 40.8862L26.7467 43.5398C26.2336 44.2648 25.2429 45.2362 25.2215 46.1715C25.2578 47.0361 25.0874 47.8968 24.725 48.6797C24.3625 49.4626 23.8187 50.1443 23.1403 50.6665C22.964 50.7743 22.8318 50.9431 22.7679 51.1419C22.704 51.3408 22.7126 51.5564 22.7923 51.7493C22.8719 51.9422 23.0173 52.0994 23.2016 52.1921C23.386 52.2849 23.597 52.307 23.796 52.2543C23.176 52.3558 23.0833 52.6676 22.7412 53.1461L21.943 54.2263C21.3728 54.9514 20.7955 55.6764 20.2039 56.4014C19.073 57.7885 17.8851 59.1346 16.6402 60.4397C16.0701 61.0487 16.6403 62.2666 17.5027 61.9476C19.9367 60.9441 22.1908 59.5379 24.1738 57.7861C26.4688 55.9156 28.6782 53.9363 30.9162 51.9861C33.3181 49.9198 35.6986 47.8245 38.1148 45.7727C40.1499 44.1832 42.0457 42.4173 43.781 40.4947C45.4345 38.4937 46.8101 35.9852 46.4252 33.2954C46.2969 32.3602 44.9998 32.7299 44.9356 33.5056C44.8024 34.9536 44.3649 36.3555 43.6527 37.6164C42.9236 38.8238 42.0497 39.9344 41.0512 40.9225C38.685 43.3367 36.0051 45.461 33.4393 47.6578C30.5884 50.0648 27.8087 52.4863 24.9934 54.9079C22.5416 57.0104 20.0685 59.0621 17.0322 60.2077L17.8875 61.7156C19.767 59.6894 21.544 57.5672 23.2116 55.3574C23.8673 54.4801 24.9649 53.3998 25.1075 52.2688C25.1473 52.0249 25.1276 51.7748 25.0501 51.5405C24.9726 51.3061 24.8396 51.0948 24.6628 50.9251C24.4861 50.7553 24.2711 50.6324 24.0366 50.5671C23.8022 50.5018 23.5556 50.4961 23.3185 50.5506L23.9814 52.1383C25.4835 51.0613 26.5078 49.4254 26.8323 47.5853C26.8375 47.1464 26.8685 46.7082 26.9249 46.273C27.1571 45.801 27.4495 45.3622 27.7944 44.968C28.5072 43.8805 29.2698 42.793 30.0039 41.72C30.1103 41.5234 30.1385 41.2928 30.0828 41.0757C30.0271 40.8586 29.8918 40.6714 29.7046 40.5527C29.0916 40.1467 29.448 39.1027 29.6191 38.5952C29.946 37.8262 30.0807 36.9868 30.0111 36.1519C29.9726 35.8476 29.8723 35.5547 29.7165 35.2919C29.5607 35.0291 29.3528 34.8022 29.1061 34.6256C28.8594 34.4489 28.5792 34.3265 28.2835 34.266C27.9877 34.2055 27.6829 34.2083 27.3882 34.2742L28.1722 35.6444C29.8217 33.8491 30.96 31.6311 31.465 29.2281C31.7145 27.9738 31.7857 26.8066 32.698 25.8278C33.528 24.9803 34.4652 24.2489 35.4848 23.6528C35.9125 23.3845 35.6274 22.5725 35.1213 22.79V22.8263Z" fill="#B72A23"/>
<path d="M45.0067 26.6975C45.6694 27.3349 46.1476 28.1449 46.3894 29.0393C46.5114 29.4743 46.5855 29.9217 46.6104 30.3733C46.617 30.8575 46.5956 31.3417 46.5463 31.8233C46.5463 31.9393 46.5463 32.0626 46.5463 32.1858C46.5473 32.309 46.5818 32.4294 46.646 32.5338L46.6959 32.6063C46.7577 32.6933 46.7577 32.6933 46.6959 32.6063C46.6959 32.4903 46.6959 32.6063 46.6959 32.6861C46.7223 32.7451 46.7585 32.7991 46.8028 32.8456C46.8498 32.893 46.9076 32.9277 46.9711 32.9466C47.0345 32.9656 47.1016 32.9683 47.1663 32.9543C47.2812 32.9232 47.3865 32.8634 47.4728 32.7803C47.2875 32.8818 47.4728 32.7803 47.4728 32.7803C47.5815 32.7354 47.6754 32.66 47.7436 32.5629C47.9069 32.3059 48.0228 32.0209 48.0857 31.7218C48.2942 30.6718 48.2053 29.5832 47.8292 28.5826C47.4397 27.4809 46.762 26.5083 45.8692 25.7695C45.7531 25.6595 45.6002 25.5982 45.4415 25.5982C45.2828 25.5982 45.13 25.6595 45.0139 25.7695C44.9024 25.886 44.84 26.042 44.84 26.2045C44.84 26.367 44.9024 26.5231 45.0139 26.6395L45.0067 26.6975Z" fill="#B72A23"/>
<path d="M48.4705 30.1272C48.5203 30.2633 48.5561 30.4041 48.5774 30.5477V30.6565C48.5774 30.7072 48.5774 30.7217 48.5774 30.6565V30.8739C48.5774 31.0189 48.5774 31.1639 48.5774 31.3089C48.5922 31.3807 48.5922 31.4548 48.5774 31.5265C48.5774 31.425 48.5774 31.4902 48.5774 31.5265C48.5774 31.628 48.5774 31.7077 48.5774 31.7875C48.5774 31.6715 48.5774 31.8672 48.5774 31.7875V31.8962L48.5347 32.1137C48.5347 32.2515 48.4705 32.3964 48.4349 32.5342C48.3973 32.6744 48.3521 32.8123 48.2995 32.9475C48.2426 33.1017 48.2426 33.2717 48.2995 33.426C48.2995 33.426 48.3707 33.6 48.2995 33.4912C48.3248 33.5736 48.3748 33.6459 48.4425 33.6979C48.5103 33.75 48.5924 33.7791 48.6772 33.7812C48.8991 33.7873 49.1143 33.7039 49.2759 33.5492C49.3948 33.3899 49.4953 33.2172 49.5753 33.0345C49.6643 32.8534 49.7359 32.664 49.7891 32.469C49.8339 32.2586 49.8649 32.0455 49.8818 31.831C49.9235 31.0946 49.7683 30.3605 49.4327 29.7067C49.3638 29.5978 49.2592 29.5171 49.1376 29.4788C49.0159 29.4404 48.8849 29.4469 48.7675 29.4971C48.6501 29.5473 48.5538 29.638 48.4956 29.7532C48.4374 29.8685 48.4209 30.0009 48.4492 30.1272H48.4705Z" fill="#B72A23"/>
<path d="M32.7052 25.1826C32.9254 23.9764 33.2917 22.8026 33.7957 21.6881C34.363 20.592 35.1439 19.625 36.0907 18.846C37.0742 18.0896 38.2193 17.5798 39.433 17.3581C40.6466 17.1364 41.8945 17.209 43.0754 17.57C45.5603 18.2835 47.6729 19.9564 48.9626 22.2318C49.6343 23.4022 50.1156 24.6753 50.388 26.0019C50.5377 26.6834 50.6232 27.3648 50.723 28.0463C50.76 28.6847 50.8554 29.3183 51.0081 29.9386C51.0449 30.0643 51.1207 30.1746 51.224 30.253C51.3274 30.3313 51.4529 30.3737 51.5818 30.3737C51.7108 30.3737 51.8363 30.3313 51.9397 30.253C52.0431 30.1746 52.1188 30.0643 52.1556 29.9386C52.4751 28.7798 52.4996 27.5573 52.2269 26.3861C52.0156 25.1366 51.6516 23.9188 51.1435 22.7611C50.2087 20.5389 48.6521 18.6455 46.6676 17.3163C42.7761 14.699 37.4377 14.815 34.1449 18.324C32.5413 20.0278 31.2227 22.7466 31.7858 25.1608C31.814 25.2628 31.8741 25.3526 31.9571 25.4166C32.0401 25.4805 32.1414 25.5151 32.2455 25.5151C32.3496 25.5151 32.4509 25.4805 32.5339 25.4166C32.6169 25.3526 32.677 25.2628 32.7052 25.1608V25.1826Z" fill="#B72A23"/>
<path d="M39.3692 27.1108C39.1387 27.2598 38.9237 27.4323 38.7277 27.6256C38.5709 27.7924 38.4212 27.9736 38.2644 28.1403L37.3593 29.1481C36.7107 29.8731 35.9837 30.8156 36.3828 31.8596C36.573 32.336 36.9228 32.7284 37.3704 32.9673C37.8179 33.2062 38.3341 33.2761 38.8275 33.1646C39.279 33.052 39.6921 32.8174 40.0233 32.4856C40.3545 32.1538 40.5915 31.7371 40.7091 31.2796C40.8535 30.8102 40.928 30.3215 40.93 29.8296C40.93 29.5976 40.93 29.3584 40.93 29.1046C40.93 28.8509 40.93 28.8436 40.93 28.7204C40.93 28.5971 40.8944 28.7204 40.93 28.7784C40.9657 28.8364 40.93 28.5899 40.9728 28.5536C41.0381 28.2967 41.0107 28.0246 40.8957 27.7865C40.7806 27.5484 40.5854 27.3601 40.3456 27.2559C40.1058 27.1505 39.8364 27.138 39.5883 27.2208C39.3401 27.3036 39.1303 27.476 38.9985 27.7054C38.635 28.4304 38.407 29.5469 38.9985 30.1994C39.1006 30.3027 39.2245 30.3811 39.3607 30.4285C39.497 30.4759 39.6421 30.4911 39.785 30.4729C39.9279 30.4547 40.0648 30.4037 40.1854 30.3236C40.306 30.2436 40.4071 30.1366 40.481 30.0109C40.5938 29.8092 40.6573 29.583 40.6663 29.3511V29.1771C40.6663 29.1771 40.6164 29.4526 40.6663 29.2206C40.6663 29.1844 40.759 28.9234 40.759 28.9234C40.759 28.9234 40.6449 29.1409 40.759 28.9886L40.8659 28.8146L38.8845 27.9663C38.7916 28.3933 38.7344 28.8274 38.7134 29.2641C38.7134 29.4309 38.7134 29.5976 38.7134 29.7716C38.7134 29.9456 38.7134 29.9239 38.7134 30.0036C38.7134 30.0834 38.7134 30.2211 38.7134 30.0036C38.6935 30.1366 38.6625 30.2676 38.6208 30.3951L38.5566 30.5981C38.5139 30.7141 38.5994 30.4604 38.6065 30.4749C38.6137 30.4894 38.5638 30.5691 38.5566 30.5836C38.5169 30.6414 38.4811 30.702 38.4497 30.7649C38.3927 30.8664 38.5424 30.6344 38.5352 30.6561C38.5129 30.6885 38.4866 30.7177 38.4568 30.7431C38.422 30.7895 38.3813 30.8309 38.3357 30.8664C38.3357 30.8664 38.5424 30.7214 38.4426 30.7794L38.3286 30.8519C38.1931 30.9462 38.578 30.7722 38.4212 30.8519C38.2644 30.9317 38.1575 30.9027 38.3785 30.8519C38.5994 30.8012 38.3785 30.8519 38.3357 30.8519H38.2644C38.1717 30.8519 38.5067 30.9027 38.4212 30.8519H38.2573C38.1005 30.8084 38.4854 30.9752 38.35 30.8519L38.2715 30.8011C38.2715 30.8011 38.464 30.9751 38.407 30.9026L38.3642 30.8591C38.243 30.7431 38.5067 31.0621 38.4426 30.9606C38.3784 30.8591 38.4996 31.1274 38.4783 31.0621C38.4569 30.9969 38.4783 30.8954 38.4783 31.0621C38.4783 31.1201 38.4783 31.2289 38.4783 31.0621C38.4783 31.0041 38.4212 31.3159 38.4783 31.1999V31.1056C38.4783 30.9389 38.4783 31.1709 38.4355 31.1926C38.461 31.1565 38.4825 31.1176 38.4996 31.0767C38.4996 31.0114 38.5851 30.9461 38.6208 30.8809C38.6564 30.8156 38.5495 30.9679 38.5495 30.9679C38.5747 30.9447 38.5963 30.9178 38.6137 30.8881C38.7348 30.7359 38.8631 30.5909 38.9843 30.4459C39.6153 29.794 40.1811 29.08 40.6734 28.3144C40.7775 28.1274 40.8191 27.9112 40.7921 27.6981C40.7652 27.485 40.671 27.2866 40.5238 27.1326C40.3736 26.9807 40.1784 26.8834 39.9683 26.8559C39.7583 26.8284 39.5452 26.8721 39.362 26.9804L39.3692 27.1108Z" fill="#B72A23"/>
<path d="M0.539518 56.684C1.25621 53.9845 2.74453 51.5622 4.8159 49.7239C5.79673 48.882 6.98882 48.3347 8.2584 48.1434C9.54145 48.0644 10.825 48.2903 12.0074 48.8032C13.1372 49.2703 14.3163 49.6036 15.5211 49.7964C16.7988 49.9102 18.0823 49.6591 19.2273 49.0714C21.7718 47.8679 24.1238 46.0336 26.4259 44.4314C27.8513 43.4671 29.1984 42.4811 30.5597 41.4733C31.9312 40.5685 33.2067 39.5213 34.3657 38.3486C34.4242 38.301 34.4729 38.2421 34.509 38.1754C34.5452 38.1086 34.568 38.0353 34.5763 37.9595C34.5846 37.8838 34.5781 37.8071 34.5572 37.7339C34.5364 37.6607 34.5016 37.5924 34.4548 37.5329C34.408 37.4734 34.3501 37.4239 34.2845 37.3871C34.2189 37.3504 34.1468 37.3271 34.0723 37.3187C33.9979 37.3103 33.9225 37.3169 33.8506 37.3381C33.7786 37.3593 33.7115 37.3947 33.653 37.4423C32.3359 38.2022 31.0821 39.0703 29.904 40.0378C28.6258 40.9804 27.3406 41.9035 26.0481 42.8074C24.7557 43.7112 23.4965 44.5691 22.2706 45.3811C21.0895 46.2284 19.8538 46.9937 18.5716 47.6721C17.2858 48.3176 15.8101 48.4546 14.4306 48.0564C13.1263 47.7084 11.8862 47.1284 10.5605 46.8457C9.3941 46.6112 8.19032 46.6527 7.04222 46.967C5.89412 47.2813 4.83245 47.8599 3.93925 48.6582C1.57299 50.6737 0.781846 53.6317 0.00497035 56.5317C-0.00784483 56.5979 0.00433539 56.6666 0.0390321 56.724C0.0737288 56.7815 0.128394 56.8235 0.192201 56.8418C0.256009 56.8601 0.324269 56.8532 0.383347 56.8227C0.442426 56.7921 0.488007 56.74 0.511024 56.6768L0.539518 56.684Z" fill="#B72A23"/>
<path d="M7.38177 43.612C9.93334 39.929 15.6993 41.8865 19.3057 42.0967C20.9196 42.2012 22.5085 41.6512 23.7247 40.567C24.3374 40.0222 24.9181 39.4412 25.4637 38.827C26.0638 38.2713 26.606 37.6542 27.0816 36.9854C27.2526 36.6954 26.9605 36.2605 26.6183 36.3765C25.1572 36.9565 24.2022 38.6602 23.0191 39.6607C22.2902 40.3245 21.3855 40.7556 20.4176 40.9005C19.331 40.9559 18.2417 40.8951 17.1675 40.7192C13.6538 40.3712 9.01393 39.6099 6.89712 43.322C6.85931 43.3874 6.84857 43.4653 6.86728 43.5388C6.88599 43.6122 6.9326 43.6751 6.99687 43.7135C7.06114 43.752 7.13781 43.7629 7.20998 43.7438C7.28216 43.7248 7.34397 43.6774 7.38177 43.612Z" fill="#B72A23"/>
<path d="M38.2073 16.7944C41.664 12.9954 45.3346 9.46459 49.7392 6.86181C54.2411 4.17145 59.2572 2.4929 64.45 1.93904C69.8667 1.41703 75.4474 2.43203 79.795 5.91931C83.5478 8.91129 86.0257 13.2567 86.7157 18.0559C87.1083 20.9068 86.8647 23.811 86.0029 26.553C85.577 27.8998 85.0182 29.1994 84.3351 30.4318C83.6224 31.7005 82.6674 32.8026 82.0758 34.1148C81.9751 34.2527 81.9257 34.4224 81.9365 34.5938C81.9473 34.7652 82.0176 34.9271 82.1349 35.0507C82.2521 35.1743 82.4087 35.2516 82.5767 35.2687C82.7447 35.2859 82.9132 35.2418 83.0522 35.1443C85.2973 33.8756 86.7157 30.8378 87.6066 28.4815C89.0621 24.7026 89.386 20.5701 88.5375 16.6043C87.689 12.6385 85.7061 9.01668 82.8384 6.19482C74.3569 -2.46176 60.9861 -0.968239 51.0649 4.11406C45.698 6.86908 40.5521 10.9001 37.3591 16.1419C37.0526 16.6566 37.7796 17.2439 38.1859 16.7944H38.2073Z" fill="#B72A23"/>
<path d="M51.8632 29.9242C52.6031 30.097 53.3755 30.0607 54.0965 29.8192C54.8176 29.5777 55.4601 29.1401 55.9543 28.5539C56.5353 27.9302 57.0848 27.2769 57.6007 26.5964C57.9 26.2339 58.1852 25.8714 58.4774 25.4872C58.7696 25.1029 58.7838 24.9797 59.2899 25.0014C62.4045 25.1174 65.4336 22.4639 66.7664 19.7669C66.8418 19.6274 66.8656 19.4651 66.8336 19.3094C66.8017 19.1536 66.716 19.0145 66.5921 18.9174C66.4682 18.8202 66.3142 18.7713 66.1579 18.7795C66.0017 18.7878 65.8535 18.8525 65.7401 18.9621C64.5997 19.9264 63.7801 21.2169 62.5542 22.1014C61.9796 22.5248 61.3385 22.8459 60.6583 23.0512C60.011 23.162 59.3539 23.2008 58.6983 23.1672C57.9856 23.2107 57.5651 23.7834 57.1303 24.3199C56.61 24.9797 56.0826 25.6394 55.5694 26.3064C54.707 27.4302 53.5738 28.873 52.0058 28.757C51.3429 28.7062 51.2217 29.7575 51.8489 29.9242H51.8632Z" fill="#B72A23"/>
<path d="M66.4171 20.064C67.4325 20.6286 68.6111 20.8108 69.7456 20.5787C70.3285 20.5106 70.9021 20.3769 71.4561 20.18C71.7271 20.082 71.9914 19.9658 72.2472 19.832C72.4326 19.7377 72.8174 19.3825 73.0098 19.3752C73.1239 19.2375 73.1951 19.281 73.2308 19.5057L73.3591 19.6942C73.5283 19.9243 73.7328 20.1251 73.9649 20.2888C74.3936 20.5826 74.88 20.778 75.3904 20.8615C75.9622 20.9377 76.5385 20.974 77.1152 20.9703C77.4359 20.9703 77.7851 20.9122 77.9989 21.1732C78.1081 21.3816 78.2033 21.5972 78.284 21.8185C78.7901 22.6378 79.8093 23.0148 80.1443 23.9573C80.4035 25.0851 80.4782 26.2486 80.3652 27.4011C80.3836 28.5767 80.2761 29.7509 80.0445 30.9028C79.7514 32.0069 79.3552 33.08 78.8614 34.1074C78.8033 34.184 78.7607 34.2715 78.7359 34.3649C78.7112 34.4583 78.7047 34.5558 78.7169 34.6517C78.7292 34.7476 78.7599 34.8402 78.8073 34.9241C78.8547 35.0079 78.9179 35.0815 78.9932 35.1405C79.0686 35.1995 79.1546 35.2429 79.2464 35.2681C79.3382 35.2933 79.434 35.2999 79.5283 35.2874C79.6226 35.275 79.7136 35.2437 79.7961 35.1955C79.8785 35.1473 79.9508 35.083 80.0088 35.0064C81.9261 33.3606 82.147 30.3011 82.147 27.9085C82.2056 26.5864 82.1244 25.2618 81.9047 23.9573C81.6268 22.674 80.8499 22.1158 79.9732 21.2675C79.5598 20.8687 79.5599 20.3323 79.1964 19.919C78.7388 19.5317 78.1504 19.3418 77.557 19.3897C76.8202 19.4347 76.0807 19.3885 75.3547 19.252C74.642 19.0345 74.5636 18.527 74.0932 18.063C73.1096 17.0552 71.7483 18.2007 70.7291 18.5632C69.3678 19.049 68.0706 18.8242 66.6808 18.9692C66.5571 18.9756 66.4385 19.0218 66.3423 19.1012C66.2461 19.1805 66.1771 19.2889 66.1454 19.4107C66.1136 19.5326 66.1208 19.6615 66.1658 19.7789C66.2108 19.8963 66.2913 19.9962 66.3957 20.064H66.4171Z" fill="#B72A23"/>
<path d="M79.4885 33.7012C79.741 34.0946 80.0964 34.4084 80.5148 34.6074C80.7765 34.7359 81.0592 34.8145 81.3487 34.8394C81.4946 34.8685 81.6447 34.8685 81.7906 34.8394C82.013 34.7622 82.2036 34.6116 82.3323 34.4117C82.4165 34.2596 82.4395 34.0803 82.3964 33.9114L82.3323 33.7519C82.2747 33.6579 82.1967 33.5785 82.1042 33.5199C81.9563 33.4049 81.7771 33.3391 81.5911 33.3314C81.5127 33.3314 81.4271 33.3314 81.3487 33.3314H81.5483L81.1848 33.2879H81.3915C81.2204 33.2659 81.0528 33.222 80.8926 33.1574L81.0707 33.2299C80.9291 33.1659 80.7952 33.0856 80.6716 32.9906L80.8142 33.1066C80.7225 33.0339 80.6389 32.9512 80.5647 32.8601C80.4344 32.7323 80.2611 32.6597 80.0801 32.6572C79.9307 32.6602 79.7861 32.7109 79.6667 32.8021C79.5397 32.9081 79.4526 33.0555 79.4201 33.2194C79.3876 33.3832 79.4118 33.5534 79.4885 33.7012Z" fill="#B72A23"/>
<path d="M79.1109 33.6072C77.6078 33.4817 76.0954 33.6767 74.6706 34.18C73.2641 34.5725 71.8892 35.0742 70.5582 35.6808C67.8715 36.8995 65.3933 38.5467 63.2171 40.56C62.2976 41.4083 61.5065 42.7858 62.6968 43.8081C63.6946 44.6636 65.4052 44.9319 66.6738 45.0769C68.1844 45.2626 69.7159 45.1518 71.1854 44.7506C72.8318 44.2938 74.3214 43.3006 76.032 43.0686L75.2123 42.4378C75.7469 43.8878 76.2957 45.2726 76.873 46.6791C77.3291 47.7883 77.7069 49.1514 78.5693 50.0214C80.3654 51.8266 82.6746 49.7169 83.3731 47.9189C84.2284 45.7438 83.872 43.2353 83.7223 40.9516L83.423 36.4493C83.3303 35.1007 83.5299 33.339 82.5606 32.3022C82.4895 32.2302 82.4011 32.1783 82.3043 32.1516C82.2075 32.1249 82.1054 32.1243 82.0083 32.1499C81.9112 32.1755 81.8223 32.2264 81.7504 32.2976C81.6785 32.3689 81.6261 32.4579 81.5984 32.556C81.2777 33.5855 81.5414 34.731 81.5984 35.7605L81.8194 39.3855C82.0352 41.4246 82.109 43.4767 82.0403 45.5264C82.0057 46.3333 81.7912 47.1216 81.4131 47.8319C80.9641 48.5569 80.1159 49.3326 79.5101 48.3539C78.982 47.382 78.5315 46.3686 78.163 45.3233C77.6879 44.2165 77.246 43.1 76.8374 41.9738C76.7162 41.6548 76.4097 41.2488 76.0248 41.3358C73.402 41.6838 71.1996 43.3223 68.5126 43.4311C67.248 43.4819 65.9854 43.2875 64.7922 42.8583C64.6568 42.8148 63.9797 42.6553 63.9441 42.503C63.9084 42.3508 64.3361 41.9738 64.4857 41.8433C64.9775 41.3938 65.4907 40.966 66.0181 40.56C67.9704 39.0872 70.0967 37.8693 72.3471 36.935C73.4383 36.476 74.5572 36.0886 75.697 35.775C76.9089 35.5245 78.1002 35.1804 79.2606 34.7455C79.3606 34.6834 79.4407 34.5932 79.4913 34.4858C79.5419 34.3783 79.5608 34.2583 79.5457 34.1402C79.5306 34.022 79.4822 33.9109 79.4063 33.8201C79.3304 33.7294 79.2303 33.663 79.1181 33.629L79.1109 33.6072Z" fill="#B72A23"/>
<path d="M64.9348 44.0831C65.2127 46.0406 67.073 46.9831 68.8976 46.8889C69.9144 46.799 70.9093 46.5368 71.8411 46.1131C72.3353 45.9122 72.8121 45.6697 73.2666 45.3881C73.4808 45.2214 73.6855 45.0422 73.8795 44.8516C74.0965 44.6855 74.2803 44.4788 74.4212 44.2426C74.4696 44.1559 74.4949 44.0577 74.4946 43.958C74.4943 43.8582 74.4683 43.7603 74.4194 43.6738C74.3704 43.5874 74.3001 43.5155 74.2154 43.4652C74.1308 43.4149 74.0346 43.388 73.9366 43.3871C73.5285 43.4622 73.1295 43.5813 72.7463 43.7423C72.3411 43.8897 71.9479 44.069 71.5703 44.2788C70.8139 44.6614 70.0145 44.9487 69.1898 45.1343C67.9639 45.3809 66.2889 44.9966 65.7259 43.7423C65.505 43.2348 64.8635 43.6336 64.9276 44.0831H64.9348Z" fill="#B72A23"/>
<path d="M53.4455 14.4671C54.691 15.9395 55.7034 17.6004 56.4461 19.3899C56.7895 20.2571 56.9917 21.1753 57.0448 22.1087C57.0876 23.0439 56.717 24.0735 57.0448 24.958C57.0622 25.0195 57.0932 25.0761 57.1355 25.1236C57.1777 25.1711 57.23 25.2081 57.2885 25.2318C57.3469 25.2556 57.4099 25.2655 57.4726 25.2608C57.5354 25.256 57.5963 25.2368 57.6506 25.2045C58.5415 24.6099 58.5772 23.3847 58.5415 22.3842C58.4946 21.2554 58.2534 20.1438 57.8288 19.0999C56.9403 17.0977 55.7069 15.2734 54.1868 13.7131C53.7235 13.1911 53.025 13.9451 53.474 14.4381L53.4455 14.4671Z" fill="#B72A23"/>
<path d="M57.7719 3.43227C59.2829 3.43227 60.3164 4.817 61.0932 5.97701C61.9763 7.30009 62.7193 8.71447 63.3098 10.1966C63.8778 11.6036 64.3214 13.0594 64.6355 14.5466C64.9633 16.1271 64.9847 17.7366 65.2627 19.3244C65.3031 19.4577 65.3845 19.5742 65.4948 19.657C65.6051 19.7398 65.7386 19.7845 65.8757 19.7845C66.0128 19.7845 66.1462 19.7398 66.2565 19.657C66.3668 19.5742 66.4482 19.4577 66.4886 19.3244C66.6638 17.5388 66.5189 15.7357 66.061 14.0028C65.6753 12.2217 65.0944 10.4901 64.329 8.84079C63.6083 7.25994 62.7038 5.77274 61.6349 4.41102C60.6941 3.2365 59.3257 2.236 57.7719 2.41725C57.1661 2.4825 57.1305 3.4105 57.7719 3.4105V3.43227Z" fill="#B72A23"/>
<path d="M71.4419 3.56272C72.4644 5.99717 72.9087 8.64233 72.7391 11.284C72.6745 12.5451 72.4615 13.7938 72.1047 15.0033C71.9098 15.6593 71.6717 16.3011 71.392 16.9246C71.0705 17.4373 70.8771 18.0222 70.8289 18.6283C70.8303 18.7218 70.8557 18.8134 70.9025 18.8938C70.9493 18.9743 71.016 19.0409 71.096 19.0871C71.1759 19.1332 71.2664 19.1573 71.3583 19.157C71.4502 19.1566 71.5405 19.1319 71.6201 19.0851C72.1394 18.716 72.5171 18.1755 72.6892 17.5553C72.9687 16.8897 73.2067 16.2069 73.4019 15.5108C73.7916 14.1344 74.0166 12.7152 74.0719 11.284C74.1686 8.44279 73.5451 5.62405 72.2615 3.09871C71.9836 2.5332 71.1996 3.02619 71.4419 3.58445V3.56272Z" fill="#B72A23"/>
<path d="M78.1915 20.2885C79.3918 19.9788 80.5156 19.4183 81.4914 18.6427C81.9948 18.2555 82.4454 17.8021 82.8314 17.2942C82.9231 17.1806 83.0088 17.062 83.0879 16.939C83.1447 16.8653 83.1926 16.785 83.2305 16.6997C83.2338 16.6442 83.2338 16.5885 83.2305 16.533C83.3826 16.2341 83.4907 15.9141 83.5512 15.5832C83.5505 15.5224 83.5342 15.463 83.5039 15.4106C83.4736 15.3583 83.4303 15.3149 83.3784 15.2849C83.3266 15.2548 83.2678 15.2391 83.2081 15.2393C83.1484 15.2395 83.0898 15.2556 83.038 15.2859C82.8323 15.488 82.6372 15.7009 82.4536 15.9239C82.3502 16.0037 82.2547 16.0935 82.1685 16.1922L81.912 16.4967C81.542 16.9358 81.1418 17.3477 80.7145 17.7292C79.8798 18.4412 78.9091 18.9695 77.8636 19.2807C77.7986 19.2993 77.7378 19.3307 77.6846 19.3732C77.6315 19.4156 77.5872 19.4684 77.5541 19.5283C77.521 19.5882 77.4998 19.6542 77.4918 19.7224C77.4838 19.7906 77.489 19.8598 77.5072 19.926C77.5255 19.9922 77.5564 20.054 77.5982 20.108C77.6399 20.1621 77.6917 20.2072 77.7506 20.2409C77.8095 20.2745 77.8744 20.296 77.9414 20.3042C78.0085 20.3124 78.0765 20.3071 78.1416 20.2885H78.1915Z" fill="#B72A23"/>
<path d="M81.7622 25.6393C82.4932 25.6359 83.2175 25.4984 83.9004 25.2333C84.1998 25.1173 84.4991 25.0158 84.6131 24.6895C84.7272 24.3633 84.4492 24.878 84.5775 24.7475C84.6142 24.7173 84.6477 24.6833 84.6773 24.646C84.7514 24.5705 84.8182 24.488 84.8769 24.3995C84.916 24.3344 84.9395 24.2608 84.9455 24.1848C84.9515 24.1087 84.9398 24.0322 84.9114 23.9616C84.8829 23.891 84.8385 23.8282 84.7818 23.7783C84.725 23.7284 84.6575 23.6929 84.5846 23.6745C84.3592 23.6613 84.1334 23.6959 83.9218 23.776H84.2496C84.0097 23.714 83.7557 23.7451 83.5369 23.863L83.2803 24.0007L83.1521 24.0587L83.0665 24.1022H83.1164L82.8242 24.2182C82.6253 24.2848 82.4231 24.3405 82.2184 24.385L81.9404 24.443C81.805 24.443 81.8834 24.443 81.9404 24.443H81.748C81.593 24.443 81.4443 24.5056 81.3347 24.6171C81.2251 24.7286 81.1635 24.8798 81.1635 25.0375C81.1635 25.1952 81.2251 25.3464 81.3347 25.4579C81.4443 25.5694 81.593 25.632 81.748 25.632L81.7622 25.6393Z" fill="#B72A23"/>
<path d="M55.3771 28.2568C57.1518 28.061 58.9408 27.8725 60.6941 27.5318L59.6749 27.1112C59.9671 27.7927 59.3043 28.7932 59.0121 29.3587L57.7149 31.86L56.4248 34.3613C56.0257 35.0863 55.2274 36.2028 55.4341 37.0946C55.479 37.2568 55.5852 37.3942 55.7294 37.4771C55.8736 37.5599 56.0442 37.5814 56.2039 37.5368C57.1162 37.1888 57.5438 35.8693 57.9786 35.0501L59.5395 32.15C60.0241 31.2293 60.5587 30.323 60.9649 29.3733C61.2213 28.9328 61.383 28.4422 61.4395 27.9336C61.496 27.425 61.446 26.91 61.2928 26.4225C61.2203 26.1949 61.0667 26.0033 60.8623 25.8852C60.6578 25.7671 60.4172 25.7311 60.188 25.7845C58.4989 26.0962 56.8382 26.5602 55.1989 27.017C54.529 27.1982 54.6359 28.3582 55.3629 28.2785L55.3771 28.2568Z" fill="#B72A23"/>
<path d="M62.3831 23.3557C63.5804 23.4717 63.3737 25.0667 62.9889 25.8062C62.4019 26.7574 61.7109 27.6378 60.9291 28.4307C59.4538 30.1708 58.0782 31.9688 56.6955 33.803C55.3128 35.6373 54.037 37.5803 52.8254 39.5524C51.6137 41.5244 50.3308 43.5326 49.8319 45.7947C49.8104 45.8906 49.8194 45.991 49.8576 46.0814C49.8959 46.1717 49.9614 46.2474 50.0447 46.2974C50.128 46.3475 50.2248 46.3693 50.321 46.3597C50.4173 46.3501 50.5081 46.3097 50.5803 46.2442C52.4405 44.2649 53.6664 41.6983 55.1275 39.4218C56.5886 37.1453 58.2065 34.818 59.8956 32.6285C60.7177 31.5603 61.5587 30.514 62.4187 29.4893C63.294 28.6126 64.0362 27.6083 64.621 26.5095C65.3338 24.7694 64.621 22.1087 62.3831 22.2029C62.2437 22.2188 62.115 22.2864 62.0216 22.3928C61.9282 22.4991 61.8765 22.6367 61.8765 22.7793C61.8765 22.922 61.9282 23.0595 62.0216 23.1659C62.115 23.2722 62.2437 23.3398 62.3831 23.3557Z" fill="#B72A23"/>
<path d="M54.5932 28.8223C56.2609 30.323 55.6052 32.8678 54.8355 34.6658C54.2947 35.7498 53.8187 36.8659 53.41 38.0081C53.0964 39.0521 52.7899 40.4151 53.3245 41.4229C53.3824 41.5203 53.467 41.5985 53.5678 41.648C53.6687 41.6974 53.7814 41.716 53.8925 41.7014C54.0035 41.6868 54.108 41.6397 54.1932 41.5658C54.2783 41.4919 54.3405 41.3943 54.3722 41.2851C54.5646 40.7051 54.5932 40.0454 54.7428 39.4509C54.9364 38.7897 55.1745 38.1429 55.4556 37.5151C56.026 36.3203 56.5282 35.093 56.9594 33.8393C57.5652 31.7296 57.2089 29.2283 55.2987 27.9305C55.1817 27.861 55.0437 27.8373 54.9107 27.864C54.7777 27.8906 54.6589 27.9658 54.5766 28.0754C54.4943 28.185 54.4542 28.3213 54.4638 28.4589C54.4734 28.5964 54.5321 28.7256 54.6288 28.8223H54.5932Z" fill="#B72A23"/>
<path d="M68.2776 20.0348C68.7523 20.4909 69.2843 20.881 69.8598 21.1949C70.3658 21.5284 70.7079 21.8473 70.2661 22.4418C69.6352 23.1547 68.9329 23.7987 68.1706 24.3631C67.4579 25.0011 66.7452 25.6536 65.9825 26.2916C64.5143 27.5676 63.0247 28.8146 61.5208 30.0472C59.9331 31.2316 58.417 32.5124 56.9808 33.8825C56.889 33.9881 56.8362 34.1229 56.8312 34.2639C56.8262 34.4048 56.8695 34.543 56.9536 34.6551C57.0377 34.7672 57.1575 34.8461 57.2924 34.8784C57.4273 34.9107 57.5691 34.8944 57.6935 34.8322C59.6224 33.6974 61.4431 32.3818 63.1316 30.9027C64.9087 29.4865 66.6572 28.0365 68.3773 26.5526C69.2183 25.8276 70.0522 25.1026 70.8576 24.3341C71.564 23.7852 72.0401 22.985 72.1904 22.0939C72.2116 21.7121 72.1355 21.3313 71.9694 20.9883C71.8033 20.6454 71.5529 20.3519 71.2425 20.1363C70.6153 19.6868 69.817 19.5708 69.2112 19.0778C69.0867 18.9546 68.9195 18.8861 68.7458 18.887C68.572 18.8879 68.4055 18.9582 68.2822 19.0827C68.1589 19.2072 68.0886 19.3759 68.0864 19.5527C68.0842 19.7294 68.1502 19.8999 68.2704 20.0276L68.2776 20.0348Z" fill="#B72A23"/>
</svg>
