<svg width="114" height="90" viewBox="0 0 114 90" fill="none" xmlns="http://www.w3.org/2000/svg">
<path d="M52.3614 27.8901C53.8348 27.3684 54.3634 25.8183 54.3033 24.3733C54.2332 22.6085 53.9036 20.9647 54.1745 19.1866C54.4316 17.4954 55.1052 15.8948 56.1349 14.5288C56.9307 13.4503 58.5027 11.7048 60.0403 12.0065C60.214 12.0175 60.3814 12.0763 60.5238 12.1764C60.6662 12.2765 60.7782 12.414 60.8473 12.5737C60.9165 12.7334 60.9402 12.9092 60.9158 13.0816C60.8913 13.2539 60.8197 13.4161 60.7089 13.5503C60.1708 14.2795 59.2168 14.5977 58.4849 15.0893C57.1276 16.1091 56.194 17.5936 55.8627 19.2587C55.161 22.0439 54.6197 26.0737 56.8492 28.3623C57.93 29.4627 59.6631 30.0127 60.9977 29.0762C62.5094 28.015 62.1307 25.9374 63.2583 24.64L62.4605 24.8747C63.4457 25.2326 62.9671 27.3306 62.8117 28.1055C62.6968 28.6576 62.464 29.1783 62.1292 29.632C61.7944 30.0857 61.3655 30.4617 60.8719 30.7343C60.8057 30.7917 60.7573 30.867 60.7326 30.9511C60.7079 31.0352 60.708 31.1246 60.7327 31.2087C60.7575 31.2929 60.8059 31.3681 60.8722 31.4254C60.9385 31.4827 61.0198 31.5198 61.1066 31.5321C62.92 31.6398 63.8333 29.607 64.1076 28.068C64.3819 26.5291 64.6676 24.3076 62.9499 23.5701C62.8393 23.525 62.7186 23.5105 62.6005 23.5283C62.4824 23.5462 62.3713 23.5955 62.279 23.6713C61.7861 24.1807 61.41 24.7913 61.1765 25.4605C61.0105 26.2045 60.7048 26.9103 60.2758 27.5404C58.9723 28.9351 57.3976 26.6186 57.1254 25.4997C56.8269 23.9 56.855 22.2564 57.208 20.6678C57.5267 18.7736 58.2019 17.0761 59.9441 16.0618C61.2162 15.3254 62.6946 14.4761 62.7318 12.8095C62.6917 12.1086 62.3886 11.4487 61.883 10.9616C61.3774 10.4745 60.7067 10.1961 60.0048 10.1821C56.9631 9.982 54.5176 13.3733 53.5911 15.8601C52.9659 17.5734 52.6725 19.39 52.7267 21.213C52.7589 22.7983 53.9277 25.9984 51.9156 26.7757C51.211 27.0508 51.6791 28.0965 52.3763 27.8443L52.3614 27.8901Z" fill="#B72A23"/>
<path d="M52.7078 26.8308C52.0482 27.9813 50.3167 27.4419 49.5373 26.7154C48.7579 25.9888 48.7204 24.693 47.8678 23.9503C46.2973 22.5643 44.243 23.6039 42.7668 24.54C42.2106 24.8961 42.6683 25.7638 43.2585 25.6693C44.6322 25.4621 44.9764 27.5994 45.4218 28.458C45.9615 29.4721 46.8783 30.2335 47.9743 30.578C49.1319 30.9359 50.3344 31.1286 51.5459 31.1503C52.6387 31.2623 53.7384 31.0181 54.6811 30.454L53.7206 30.3321C54.6273 31.7583 56.3467 32.9039 58.0823 32.604C58.2446 32.5983 58.3981 32.5284 58.5088 32.4095C58.6196 32.2907 58.6786 32.1327 58.6729 31.9704C58.6671 31.808 58.5972 31.6546 58.4783 31.5439C58.3595 31.4331 58.2015 31.3741 58.0392 31.3798C56.6722 31.0904 55.5664 30.6909 54.7786 29.4755C54.664 29.3351 54.4994 29.2446 54.3195 29.223C54.1395 29.2014 53.9582 29.2504 53.8136 29.3597C52.8422 29.9963 51.5171 29.804 50.4227 29.6968C49.3282 29.5896 47.8021 29.4005 46.9493 28.44C46.2193 27.6079 46.114 26.404 45.4627 25.5165C45.203 25.125 44.8392 24.8137 44.4124 24.6174C43.9855 24.4211 43.5123 24.3476 43.046 24.4052L43.5332 25.5407C44.4409 24.9518 45.6789 24.1334 46.7876 24.6959C47.3778 24.9989 47.5006 25.7047 47.7836 26.2447C48.0113 26.6806 48.3157 27.0719 48.6821 27.3998C49.9075 28.4839 52.4769 29.0548 53.2081 27.1147C53.3245 26.8031 52.8623 26.5189 52.6849 26.8233L52.7078 26.8308Z" fill="#B72A23"/>
<path d="M53.0148 30.4163C50.9859 30.4194 48.9621 30.2137 46.9754 29.8024C44.8987 29.3206 42.9199 28.5135 40.8121 28.1507C37.3721 27.6124 33.8514 27.9671 30.5879 29.181C23.3932 31.7746 18.1271 37.7316 15.2784 44.6962C13.7012 48.6163 12.7513 52.7604 12.4636 56.9761C12.1631 61.0132 12.568 64.8894 14.3983 68.5397C16.3638 72.1647 18.7723 75.5313 21.5682 78.5622C24.3285 81.7346 27.5175 84.6082 31.413 86.2806C35.0597 87.833 39.043 88.4264 42.9838 88.0043C45 87.7901 46.9765 87.2958 48.8562 86.5359C50.8983 85.7051 52.7525 84.4234 54.9962 84.2429C56.6051 84.1146 56.2313 81.4916 54.6265 81.7555C52.8098 82.1605 51.0668 82.8441 49.4591 83.7819C44.943 86.1656 39.6936 86.7571 34.7603 85.4381C31.1595 84.4006 27.888 82.4496 25.2636 79.7747C22.4283 76.9342 19.9021 73.8013 17.7274 70.4283C15.5362 67.2496 14.3569 63.483 14.3439 59.6223C14.3764 55.6412 14.9869 51.6859 16.1561 47.8802C18.3266 40.86 22.7825 34.5134 29.5891 31.3684C32.9542 29.7588 36.7149 29.1632 40.4126 29.6541C42.6085 29.9873 44.6999 30.7828 46.8476 31.194C48.8939 31.6268 51.0093 31.616 53.051 31.1623C53.4464 31.0755 53.4975 30.4034 53.0345 30.4024L53.0148 30.4163Z" fill="#B72A23"/>
<path d="M59.4008 32.9329C63.8752 32.0892 68.2314 30.9311 72.6763 29.8196C76.5071 28.8606 80.5027 28.345 84.0514 30.4619C87.3736 32.4495 90.0489 35.6728 92.1106 38.907C94.1219 42.0911 95.5602 45.6028 96.3604 49.2829C97.96 56.967 96.7947 64.9692 93.0702 71.878C89.3864 78.7943 83.0749 84.8599 75.1784 86.3396C71.2921 87.0425 67.2958 86.8344 63.5035 85.7316C61.6431 85.1848 59.8407 84.4571 58.1222 83.559C56.449 82.6841 54.6423 81.862 52.9078 83.0712C52.804 83.1549 52.7272 83.2673 52.687 83.3944C52.6467 83.5215 52.6449 83.6576 52.6817 83.7858C52.7184 83.9139 52.7922 84.0284 52.8937 84.1149C52.9952 84.2013 53.1199 84.2559 53.2523 84.2718C55.0792 84.3611 56.6047 85.4489 58.1417 86.2517C59.8244 87.119 61.5929 87.8086 63.4186 88.3094C67.0908 89.3397 70.9364 89.5995 74.7138 89.0726C83.2016 87.8305 90.0849 82.0163 94.3235 74.7713C98.5823 67.5889 100.182 59.1382 98.842 50.8963C97.512 43.0535 93.4217 35.3601 87.2136 30.3062C85.3664 28.7257 83.1381 27.6557 80.7497 27.2023C78.5972 26.9013 76.408 26.9953 74.2893 27.4797C71.9596 27.9563 69.6868 28.7021 67.4106 29.3885C64.6237 30.2282 61.8785 31.1269 59.1509 32.1428C59.0546 32.1831 58.9764 32.2573 58.9312 32.3513C58.8859 32.4453 58.8767 32.5527 58.9052 32.653C58.9338 32.7534 58.9981 32.8398 59.0861 32.8959C59.1741 32.952 59.2797 32.9739 59.3827 32.9574L59.4008 32.9329Z" fill="#B72A23"/>
<path d="M46.7247 38.6842C47.112 39.6366 47.4461 40.6099 47.7254 41.5993C47.857 42.075 48.0657 42.6643 47.8515 43.1214C47.5044 43.5883 47.0387 43.9537 46.5027 44.1799C44.6966 45.2165 43.0259 46.4728 41.5284 47.9199C40.2742 49.3161 39.3385 50.9683 38.7863 52.7621C38.2341 54.5558 38.0785 56.4482 38.3303 58.3081C38.7659 62.2069 40.5873 66.0873 42.6615 69.3686C43.1968 70.2294 43.8374 71.02 44.5685 71.7222C45.3112 72.4216 46.1959 72.9798 46.884 73.7146C47.4756 74.3508 47.8174 75.1794 47.8463 76.0477C47.8752 76.916 47.5893 77.7655 47.0413 78.4397C44.4615 81.8076 39.5124 80.1906 36.4865 78.5068C32.6408 76.3908 29.3237 73.432 26.7838 69.852C24.5112 66.5189 24.5327 62.2571 24.4214 58.342C24.3135 54.2686 24.7394 50.3051 26.9892 46.8072C29.2389 43.3094 32.1377 39.6374 35.9796 37.9579C39.8215 36.2783 44.1834 37.6135 47.8032 39.48C48.9777 40.0816 49.7182 38.1674 48.5421 37.5552C45.0201 35.7229 40.9095 34.3933 36.9344 35.4068C32.9594 36.4202 29.9497 39.5372 27.4705 42.7048C25.971 44.498 24.7228 46.4872 23.7606 48.6175C22.9864 50.6158 22.5469 52.7281 22.46 54.8694C22.3694 56.9749 22.393 59.0838 22.5306 61.1868C22.5527 63.3971 22.8696 65.5946 23.4727 67.7212C24.1913 69.7386 25.3361 71.5774 26.8291 73.1127C28.4655 74.9187 30.2795 76.5552 32.2438 77.9977C35.5528 80.4393 40.0366 82.9434 44.312 81.9717C47.7464 81.1651 50.8484 77.5768 49.1507 73.9391C48.2056 71.8979 45.9347 70.9226 44.6762 69.1138C43.4281 67.1959 42.4038 65.1413 41.6233 62.9903C39.8435 58.412 39.3039 52.7045 43.0607 48.9085C43.9644 48.0392 44.9476 47.2564 45.9973 46.5705C47.0049 45.8848 48.4379 45.2766 49.1933 44.2913C49.8489 43.4028 49.6747 42.3563 49.3805 41.3442C49.0805 40.1495 48.5631 39.0202 47.8542 38.0129C47.3862 37.3646 46.4803 38.0023 46.7399 38.6765L46.7247 38.6842Z" fill="#B72A23"/>
<path d="M69.4514 39.7053C65.9113 38.8724 63.3652 43.0413 65.0653 46.0088C66.1015 47.8238 67.9988 48.9209 69.2984 50.5328C70.5702 52.1071 71.4776 53.9434 71.9556 55.91C72.4543 58.0479 72.473 60.2698 72.0105 62.4159C71.5479 64.5619 70.6155 66.5788 69.2804 68.3214C67.8113 70.1683 66.0168 71.7309 63.9855 72.9321C62.2423 74.0119 60.6969 75.6446 61.2001 77.8613C62.2621 82.5915 68.2704 81.7723 71.768 81.0596C75.2637 80.5683 78.554 79.1147 81.2712 76.8614C83.9885 74.608 86.0258 71.6435 87.1555 68.2991C88.0289 66.1223 88.7639 63.8925 89.356 61.6229C90.4514 57.3679 91.0114 52.8125 89.9724 48.4874C88.858 43.8795 85.9861 39.6783 81.56 37.7374C79.2672 36.8114 76.7779 36.4782 74.3222 36.7686C71.8665 37.059 69.5236 37.9637 67.5101 39.3991C66.7014 39.9949 67.6628 41.2058 68.4915 40.6343C70.1616 39.4864 72.0859 38.7622 74.0983 38.5241C76.1108 38.2861 78.1509 38.5413 80.0428 39.2678C83.5202 40.6602 86.0665 43.9302 87.423 47.3634C88.8468 51.026 88.8283 55.0914 88.1681 58.9104C87.4964 63.1701 86.0516 67.2711 83.9049 71.0113C82.8145 72.8886 81.3447 74.5181 79.5893 75.7956C77.9453 76.8954 76.1278 77.7108 74.2132 78.2075C72.3065 78.7472 70.354 79.1092 68.3805 79.2888C66.79 79.4306 64.7323 79.4361 63.6684 77.9791C62.37 76.1219 64.9415 74.83 66.2173 73.9732C67.8354 72.8844 69.2785 71.5559 70.497 70.033C72.9764 66.9945 74.3357 63.1959 74.3472 59.2741C74.3291 55.2719 72.7872 51.4269 70.0351 48.5211C68.773 47.2302 66.4219 45.9403 66.2267 43.9602C66.0648 42.3455 67.7344 40.8139 69.3006 40.8717C69.442 40.8744 69.5792 40.8239 69.685 40.7302C69.7909 40.6365 69.8577 40.5065 69.8721 40.3658C69.8866 40.2252 69.8476 40.0842 69.7629 39.971C69.6783 39.8577 69.5542 39.7804 69.4152 39.7544L69.4514 39.7053Z" fill="#B72A23"/>
<path d="M42.5442 41.4766C42.3311 41.2062 42.0291 41.0203 41.6918 40.9517C41.3672 40.8884 41.0311 40.9239 40.7269 41.0536C40.3997 41.1981 40.1297 41.4471 39.9593 41.7616C39.7889 42.0761 39.7277 42.4383 39.7855 42.7913C39.8088 42.9758 39.8617 43.1554 39.942 43.3232C39.9986 43.4336 40.069 43.5364 40.1515 43.6292C40.2625 43.7238 40.3983 43.7846 40.5428 43.8043C40.6008 43.8094 40.6592 43.8013 40.7137 43.7807C40.7681 43.7601 40.8173 43.7276 40.8574 43.6854C40.8976 43.6433 40.9278 43.5926 40.9457 43.5372C40.9637 43.4819 40.969 43.4232 40.9613 43.3655C40.9444 43.2405 40.9003 43.1207 40.8321 43.0146C40.8321 43.0146 40.7918 42.9281 40.7524 42.9558L40.7012 42.8328C40.6609 42.7463 40.714 42.918 40.7012 42.8328C40.6883 42.7476 40.6803 42.6944 40.6707 42.6305C40.661 42.5666 40.6933 42.5999 40.6707 42.6305L40.7069 42.5815C40.7038 42.5483 40.7061 42.5149 40.7137 42.4824L40.7312 42.3818C40.695 42.4308 40.695 42.4308 40.7312 42.3818C40.7764 42.3205 40.8216 42.2592 40.8239 42.1663L40.8962 42.0682C40.8962 42.0682 40.8963 42.0682 40.8736 42.0989C40.851 42.1295 40.9008 42.0621 40.9098 42.0498C40.9259 42.0208 40.9456 41.994 40.9686 41.9702C41.0015 41.9476 41.0372 41.9295 41.0748 41.9161L41.1826 41.8726C41.1142 41.8883 41.2707 41.8429 41.1826 41.8726C41.251 41.8568 41.3256 41.8456 41.3956 41.8405L41.4947 41.8473L41.5892 41.8603C41.5892 41.8603 41.7189 41.8897 41.6731 41.8748C41.7117 41.8929 41.7541 41.9015 41.7967 41.8998L41.9069 41.9811C41.9692 42.0233 42.0444 42.0422 42.1193 42.0345C42.1941 42.0267 42.2638 41.9928 42.3161 41.9387C42.3684 41.8847 42.4 41.8139 42.4053 41.7389C42.4107 41.6638 42.3894 41.5893 42.3452 41.5284L42.5442 41.4766Z" fill="#B72A23"/>
<path d="M36.226 43.0237C35.9419 42.8322 35.6082 42.7274 35.2656 42.7221C35.0893 42.7288 34.9188 42.7873 34.7755 42.8902C34.6322 42.9932 34.5224 43.1361 34.4598 43.3011C34.3921 43.6566 34.4573 44.0247 34.643 44.3353C34.7209 44.4901 34.8107 44.6386 34.9116 44.7795L35.0605 44.9368C35.1892 45.0317 35.3091 45.177 35.487 45.1284L35.3102 45.1115C35.3622 45.1295 35.4179 45.1341 35.4722 45.1249C35.5265 45.1157 35.5776 45.0929 35.6207 45.0587C35.6639 45.0245 35.6977 44.98 35.7191 44.9293C35.7405 44.8785 35.7487 44.8232 35.7431 44.7684L35.7657 44.7378L35.6961 44.9988C35.7425 44.939 35.7699 44.8668 35.775 44.7913C35.7802 44.7159 35.7627 44.6407 35.7249 44.5752L35.6442 44.4021L35.488 44.0881C35.4243 43.9817 35.3708 43.8694 35.3285 43.7527L35.2663 43.5933C35.2383 43.5159 35.2869 43.6937 35.2663 43.5933C35.2458 43.493 35.298 43.5504 35.2535 43.5081C35.209 43.4658 35.2557 43.5949 35.2535 43.5081C35.2128 43.5632 35.2037 43.5755 35.2309 43.5387C35.2378 43.5281 35.2453 43.5178 35.2535 43.5081C35.2941 43.4529 35.1902 43.5939 35.2535 43.5081C35.2595 43.4939 35.2688 43.4813 35.2806 43.4713L35.2399 43.5265C35.2536 43.5021 35.2704 43.4794 35.2896 43.459C35.2031 43.4993 35.3303 43.4039 35.2896 43.459L35.3213 43.4162C35.3453 43.4128 35.3698 43.4147 35.393 43.4217L35.4981 43.4331L35.8326 43.5569C35.9131 43.5945 36.0048 43.6 36.0892 43.5725C36.1736 43.5451 36.2445 43.4865 36.2874 43.4088C36.3304 43.3311 36.3421 43.2399 36.3204 43.1538C36.2987 43.0677 36.2452 42.9931 36.1706 42.945L36.226 43.0237Z" fill="#B72A23"/>
<path d="M34.6689 48.2252C34.3342 48.1441 33.9837 48.1553 33.6549 48.2576C33.326 48.36 33.0311 48.5496 32.8015 48.8064C32.5769 49.1015 32.4676 49.4684 32.4943 49.8384C32.5124 50.2114 32.7721 50.8856 33.2465 50.7814L32.9351 50.7031C33.0084 50.7507 33.0857 50.7919 33.1661 50.8262C33.2473 50.8861 33.349 50.9114 33.4489 50.8963C33.5488 50.8812 33.6386 50.8271 33.6985 50.7459C33.7585 50.6646 33.7837 50.5629 33.7686 50.463C33.7536 50.3631 33.6995 50.2734 33.6182 50.2134C33.6182 50.2134 33.538 50.0785 33.5815 50.1863L33.5855 50.5016C33.6117 50.4315 33.6214 50.3563 33.614 50.2819C33.6065 50.2075 33.5821 50.1358 33.5425 50.0724C33.5161 50.0407 33.4943 50.0055 33.4777 49.9678C33.5206 49.9994 33.5329 50.0085 33.4777 49.9678L33.4409 49.9406L33.4113 49.8525C33.3771 49.7706 33.3842 49.8893 33.4113 49.8525L33.3856 49.6821L33.3986 49.5876C33.3398 49.6673 33.3986 49.5876 33.4212 49.557L33.4754 49.4835C33.5252 49.416 33.4393 49.5325 33.4754 49.4835C33.4922 49.4549 33.5119 49.4282 33.5342 49.4038L33.6473 49.2506C33.6702 49.2019 33.7025 49.1582 33.7422 49.1219C33.7422 49.1219 33.7784 49.0729 33.7965 49.0484L33.9649 48.974L34.0485 48.9504L34.2464 48.9261L34.3393 48.9284C34.4064 48.9313 34.4731 48.9394 34.539 48.9527C34.5898 48.9656 34.6428 48.9675 34.6944 48.9582C34.746 48.9488 34.7949 48.9285 34.8379 48.8986C34.881 48.8687 34.9171 48.8298 34.9438 48.7847C34.9705 48.7396 34.9871 48.6893 34.9927 48.6372C34.9982 48.585 34.9925 48.5324 34.9759 48.4826C34.9593 48.4329 34.9322 48.3874 34.8965 48.3491C34.8607 48.3108 34.8171 48.2806 34.7686 48.2606C34.7202 48.2406 34.668 48.2312 34.6156 48.2332L34.6689 48.2252Z" fill="#B72A23"/>
<path d="M37.2752 50.7343C36.8366 50.7192 36.4084 50.8694 36.0752 51.1549C35.9092 51.3023 35.7752 51.4824 35.6819 51.6838C35.5886 51.8853 35.538 52.1039 35.5329 52.3259C35.5256 52.4577 35.54 52.5898 35.5756 52.7169C35.587 52.7687 35.6037 52.8191 35.6255 52.8674C35.6529 52.9224 35.69 52.9721 35.7348 53.0142C35.7671 53.0618 35.8146 53.0969 35.8696 53.1137L35.7593 53.0323L35.937 53.1634C35.99 53.1966 36.0515 53.2135 36.114 53.2121C36.1765 53.2106 36.2373 53.191 36.2887 53.1554C36.3401 53.1198 36.38 53.0699 36.4033 53.0119C36.4267 52.954 36.4326 52.8904 36.4203 52.8291C36.427 52.9098 36.4745 52.7556 36.3841 52.8782C36.2937 53.0007 36.4157 52.8353 36.4429 52.7985C36.4553 52.7209 36.4563 52.6419 36.4457 52.564C36.463 52.643 36.4451 52.4878 36.4773 52.5211L36.4673 52.4191L36.4771 52.3032L36.5675 52.1807C36.584 52.131 36.604 52.0824 36.6273 52.0355C36.5776 52.1029 36.6273 52.0355 36.6499 52.0049C36.6785 51.9598 36.7102 51.9168 36.7449 51.8762C36.7609 51.8472 36.7807 51.8204 36.8036 51.7965C36.828 51.7578 36.8552 51.7209 36.885 51.6862C36.9334 51.663 36.983 51.6428 37.0338 51.6256L37.1236 51.6067L37.2788 51.5888C37.3692 51.5722 37.4508 51.5241 37.509 51.453C37.5673 51.382 37.5984 51.2925 37.597 51.2006C37.5955 51.1087 37.5616 51.0203 37.5011 50.9512C37.4406 50.882 37.3576 50.8365 37.2667 50.8227L37.2752 50.7343Z" fill="#B72A23"/>
<path d="M36.1107 55.5441C35.842 55.5791 35.586 55.6799 35.3656 55.8376C35.1453 55.9953 34.9673 56.205 34.8475 56.4481C34.7176 56.7042 34.6628 56.9919 34.6895 57.2779C34.6992 57.4095 34.7279 57.5391 34.7747 57.6626L34.8352 57.8113C34.8572 57.869 34.8874 57.9231 34.9249 57.9721C34.9865 58.0371 35.0591 58.0906 35.1394 58.1304L34.9494 57.9902C35.0061 58.0413 35.0677 58.0867 35.1332 58.1258C35.2454 58.1963 35.379 58.2244 35.51 58.2051L35.3439 58.1867L35.5178 58.2203C35.5574 58.2237 35.5973 58.2182 35.6345 58.2042C35.6717 58.1901 35.7052 58.1679 35.7327 58.1392C35.7603 58.1105 35.7811 58.0761 35.7935 58.0384C35.806 58.0006 35.8099 57.9605 35.8049 57.9211L35.7903 57.8252L35.7718 57.9914C35.8201 57.8899 35.828 57.7738 35.7937 57.6668L35.7422 57.5058L35.7714 57.7355C35.7786 57.632 35.761 57.5282 35.7203 57.4328L35.6646 57.316L35.6426 57.243C35.5997 57.2114 35.6616 57.3327 35.6426 57.243L35.6172 57.1107L35.6025 56.9768L35.6035 56.9113C35.6035 56.9113 35.6623 56.8316 35.6252 56.7664C35.5881 56.7012 35.5755 56.8338 35.6252 56.7664L35.6659 56.7113C35.693 56.6745 35.7156 56.6439 35.7428 56.6071C35.7428 56.6071 35.7789 56.5581 35.788 56.5458L35.901 56.3926C35.9231 56.3554 35.9488 56.3205 35.9779 56.2884C35.9871 56.2702 35.9993 56.2536 36.0141 56.2394C36.0514 56.2146 36.0932 56.1973 36.1371 56.1883C36.1464 56.1731 36.157 56.1588 36.1687 56.1454C36.2639 56.1292 36.3491 56.0767 36.4065 55.999C36.4638 55.9213 36.4888 55.8244 36.4762 55.7287C36.4695 55.6817 36.4535 55.6364 36.4291 55.5956C36.4048 55.5549 36.3725 55.5193 36.3343 55.4911C36.2961 55.4629 36.2527 55.4427 36.2066 55.4314C36.1605 55.4202 36.1125 55.4183 36.0656 55.4257L36.1107 55.5441Z" fill="#B72A23"/>
<path d="M35.7741 61.3621C35.4574 61.7552 35.2888 62.2471 35.2976 62.7518C35.2922 63.0146 35.3501 63.2749 35.4665 63.5106C35.5318 63.6584 35.6346 63.7866 35.7646 63.8825C35.8946 63.9785 36.0474 64.0388 36.2079 64.0577C36.2985 64.0631 36.3892 64.0494 36.4742 64.0175L36.5058 63.9746C36.5759 63.9433 36.6412 63.9022 36.6998 63.8528C36.7774 63.789 36.8366 63.7057 36.8712 63.6115C36.9058 63.5172 36.9146 63.4154 36.8967 63.3166C36.8864 63.2536 36.8578 63.1949 36.8145 63.1479C36.7713 63.1009 36.7152 63.0676 36.6533 63.0521C36.5913 63.0365 36.5261 63.0394 36.4658 63.0605C36.4055 63.0815 36.3526 63.1197 36.3138 63.1704C36.3138 63.1704 36.3138 63.1704 36.3364 63.1398C36.359 63.1091 36.3364 63.1398 36.3138 63.1704C36.3635 63.103 36.2911 63.2011 36.3138 63.1704C36.3065 63.1839 36.2974 63.1963 36.2866 63.2072L36.3138 63.1704C36.5028 63.1964 36.5196 63.1993 36.3138 63.1704L36.1995 63.1713C36.2757 63.1707 36.297 63.1674 36.2301 63.1939C36.2301 63.1939 36.175 63.1532 36.1627 63.1441L36.2547 63.212L36.1566 63.1396L36.2485 63.2074L36.1138 63.108C36.0945 63.0742 36.0798 63.0379 36.0702 63.0002L36.0349 62.7659L36.0314 62.7065C36.0585 62.6697 36.0275 62.7888 36.0314 62.7065L36.0396 62.58L36.0607 62.359L36.0968 62.31C36.1108 62.2689 36.1227 62.2271 36.1324 62.1848C36.1569 62.1157 36.1848 62.0479 36.2161 61.9816C36.2161 61.9816 36.2433 61.9448 36.2523 61.9326C36.2613 61.9203 36.1935 62.0122 36.2523 61.9326C36.2749 61.8957 36.3006 61.8609 36.3292 61.8284C36.3854 61.7459 36.4083 61.6451 36.3934 61.5464C36.3785 61.4477 36.3269 61.3582 36.2488 61.296C36.1676 61.236 36.0658 61.2107 35.9659 61.2258C35.8661 61.2408 35.7763 61.295 35.7164 61.3763L35.7741 61.3621Z" fill="#B72A23"/>
<path d="M39.64 45.4385C39.4483 45.1886 39.1945 44.9932 38.9039 44.8718C38.6133 44.7503 38.296 44.707 37.9835 44.7462C37.6766 44.8125 37.3976 44.9721 37.1848 45.203C36.972 45.434 36.8358 45.7251 36.7949 46.0364C36.7718 46.1516 36.7737 46.2703 36.8003 46.3846C36.827 46.499 36.8778 46.6063 36.9494 46.6993C37.1026 46.8124 36.8675 46.5537 36.882 46.6496L36.9699 46.7997C37.0073 46.8577 37.0575 46.9063 37.1167 46.9418C37.1759 46.9772 37.2424 46.9986 37.3112 47.0042C37.3846 47.0094 37.4578 46.9913 37.5204 46.9525C37.583 46.9138 37.6318 46.8563 37.6598 46.7882C37.6834 46.7274 37.6945 46.6624 37.6921 46.5972C37.6898 46.532 37.6742 46.468 37.6462 46.4091C37.5972 46.3729 37.6758 46.4972 37.6462 46.4091C37.6166 46.321 37.6462 46.4091 37.6274 46.5372C37.6531 46.4665 37.6604 46.3904 37.6485 46.3161L37.6479 46.24L37.6609 46.1454C37.7377 46.0413 37.6835 46.1148 37.6609 46.1454C37.6808 46.0826 37.7042 46.0209 37.731 45.9606C37.7943 45.8748 37.7537 45.93 37.731 45.9606C37.731 45.9606 37.7672 45.9116 37.7898 45.881C37.8048 45.8543 37.8231 45.8296 37.8441 45.8074C37.93 45.691 37.8757 45.7645 37.8441 45.8074C37.8757 45.7645 37.9119 45.7155 37.9481 45.6665C37.9843 45.6174 37.9029 45.7277 37.9481 45.6665C37.9791 45.6495 38.0116 45.6355 38.0452 45.6246L38.0723 45.5878C38.121 45.5732 38.121 45.5732 38.0723 45.5878C38.0723 45.5878 38.1576 45.575 38.1789 45.5718L38.2854 45.5557C38.2854 45.5557 38.3344 45.5918 38.366 45.549C38.2899 45.5495 38.3977 45.5061 38.366 45.549L38.4028 45.5761L38.5125 45.5814L38.5492 45.6085C38.5492 45.6085 38.6228 45.6627 38.635 45.6718C38.7002 45.6831 38.7618 45.7092 38.8154 45.7481L39.0421 45.9153C39.1078 45.9964 39.2029 46.0481 39.3067 46.059C39.4105 46.0699 39.5143 46.0391 39.5954 45.9735C39.6765 45.9078 39.7282 45.8126 39.7391 45.7088C39.75 45.605 39.7192 45.5012 39.6536 45.4201L39.64 45.4385Z" fill="#B72A23"/>
<path d="M30.1652 51.9429C29.8239 51.8309 29.4638 51.7871 29.1056 51.814C28.8943 51.841 28.694 51.9236 28.5251 52.0534C28.3562 52.1831 28.2248 52.3555 28.1442 52.5527C28.0663 52.7486 28.0298 52.9585 28.0372 53.1692C28.0446 53.38 28.0958 53.5869 28.1873 53.7769C28.2848 53.9718 28.4109 54.151 28.5615 54.3085L28.6719 54.39C28.7162 54.4509 28.7783 54.4968 28.8496 54.5211C28.8875 54.5491 28.9338 54.5632 28.9808 54.5612C28.9012 54.5024 28.8828 54.4888 28.938 54.5295L29.0421 54.6064L29.1734 54.6465C29.3399 54.7031 29.5704 54.5703 29.514 54.3773C29.494 54.2848 29.4657 54.1943 29.4297 54.1068C29.4787 54.143 29.4297 54.1068 29.4139 54.0384C29.3916 53.981 29.3615 53.9269 29.3243 53.8777C29.2734 53.8185 29.2289 53.754 29.1918 53.6852C29.2286 53.7124 29.2286 53.7124 29.1918 53.6852L29.1254 53.57L29.0825 53.5384C29.0399 53.4672 29.0031 53.3925 28.9727 53.3153C28.9606 53.2832 28.9537 53.2493 28.9521 53.215L28.9344 53.0978L28.9616 53.0611C28.9541 52.9901 28.9619 52.9184 28.9843 52.8507C28.9843 52.8507 29.025 52.7956 29.0385 52.7772C29.0521 52.7588 29.0024 52.8262 29.0385 52.7772L29.0973 52.6975C29.0702 52.7343 29.0611 52.7465 29.0973 52.6975C29.1157 52.667 29.1369 52.6382 29.1606 52.6117C29.2058 52.5504 29.1244 52.6607 29.1606 52.6117L29.2425 52.5775C29.3063 52.5579 29.3722 52.5461 29.4388 52.5425L29.5469 52.5371C29.6872 52.5402 29.8271 52.5519 29.966 52.5719C30.0421 52.5788 30.1182 52.5582 30.1804 52.5138C30.2426 52.4695 30.287 52.4043 30.3053 52.3301C30.3236 52.2542 30.3141 52.1743 30.2787 52.1048C30.2432 52.0352 30.1841 51.9807 30.112 51.9509L30.1652 51.9429Z" fill="#B72A23"/>
<path d="M31.5776 55.8904C31.2136 55.9621 30.8763 56.132 30.602 56.3817C30.3277 56.6314 30.1268 56.9513 30.0213 57.3069C29.9255 57.682 29.936 58.0764 30.0516 58.4459C30.0995 58.6187 30.185 58.7787 30.302 58.9146C30.3809 58.9827 30.4649 59.0447 30.5532 59.1C30.604 59.1383 30.6625 59.165 30.7247 59.1782C30.7869 59.1914 30.8513 59.1908 30.9132 59.1764C30.9759 59.1657 31.0336 59.1352 31.0776 59.0894C31.1217 59.0435 31.1499 58.9847 31.158 58.9216C31.18 58.8431 31.175 58.7595 31.144 58.6841C31.1202 58.6251 31.0933 58.5673 31.0634 58.5111L30.9355 58.1329L30.9211 58.037C30.9033 57.9746 30.8937 57.9102 30.8922 57.8454L30.8958 57.725C30.9275 57.6821 30.9039 57.5985 30.9156 57.5314C30.9273 57.4643 30.9376 57.4246 30.9427 57.4946C30.9479 57.5646 30.9789 57.4456 30.9789 57.4456C30.9988 57.3827 31.0223 57.321 31.0491 57.2608C31.0491 57.2608 31.1169 57.1689 31.0898 57.2056L31.2435 56.9973C31.2435 56.9973 31.3204 56.8931 31.2797 56.9482C31.239 57.0034 31.3113 56.9054 31.3249 56.887C31.3805 56.8382 31.4392 56.7929 31.5005 56.7515C31.6042 56.6874 31.7153 56.6359 31.8313 56.5982C32.1989 56.4719 32.0251 55.861 31.645 55.9401L31.5776 55.8904Z" fill="#B72A23"/>
<path d="M29.8234 62.3851C29.5259 62.4036 29.2403 62.509 29.0021 62.6882C28.7639 62.8674 28.5835 63.1125 28.4833 63.3932C28.3802 63.6755 28.3587 63.9812 28.4213 64.2752C28.484 64.5692 28.6282 64.8395 28.8374 65.0553C28.9681 65.2036 29.129 65.3224 29.3093 65.4034L29.4467 65.448C29.5005 65.4611 29.5564 65.4638 29.6113 65.4559C29.6113 65.4559 29.7058 65.4689 29.7165 65.4673C29.7963 65.477 29.8773 65.4648 29.9507 65.4319C30.0008 65.4108 30.0452 65.3783 30.0806 65.3371C30.1159 65.2958 30.1411 65.2469 30.1543 65.1942C30.1675 65.1415 30.1682 65.0865 30.1565 65.0334C30.1447 64.9804 30.1208 64.9308 30.0866 64.8886C30.0335 64.8257 29.9663 64.7761 29.8905 64.7439C30.0192 64.8389 29.7863 64.667 29.9395 64.7801L29.5658 64.5043C29.4616 64.4274 29.6209 64.545 29.5658 64.5043L29.4984 64.4545C29.4698 64.3995 29.4346 64.3481 29.3936 64.3015L29.3568 64.2744L29.3149 64.1773L29.2869 64.0998L29.3399 64.0537C29.3399 64.0537 29.3357 63.9182 29.3171 63.8665L29.3256 63.7781L29.3708 63.7169C29.3883 63.6858 29.4095 63.6569 29.4341 63.6311C29.4341 63.6311 29.5109 63.5269 29.4612 63.5943C29.4115 63.6617 29.4612 63.5943 29.4929 63.5514L29.5561 63.4656C29.5968 63.4105 29.633 63.3615 29.6692 63.3124C29.7053 63.2634 29.6194 63.3798 29.6692 63.3124C29.6829 63.282 29.703 63.2549 29.728 63.2328C29.7448 63.2043 29.7645 63.1776 29.7867 63.1531L29.8839 63.1112C29.9704 63.0959 30.0478 63.048 30.0999 62.9773C30.1521 62.9066 30.1751 62.8185 30.1642 62.7313C30.1507 62.6439 30.1032 62.5654 30.032 62.5129C29.9609 62.4604 29.8718 62.4381 29.7843 62.451L29.8234 62.3851Z" fill="#B72A23"/>
<path d="M30.2671 63.8486L30.4303 64.0636L30.5056 64.1666C30.533 64.2009 30.569 64.2274 30.6098 64.2435L30.6588 64.2796C30.6958 64.3045 30.7387 64.3192 30.7831 64.322C30.8276 64.3249 30.872 64.3159 30.9118 64.2959C30.9502 64.2714 30.9807 64.2362 30.9996 64.1947C31.0184 64.1532 31.0249 64.1072 31.0182 64.0621C31.0161 64.0005 31.0033 63.9397 30.9802 63.8826L30.9183 63.7613L30.8007 63.5231C30.7546 63.4566 30.6878 63.4073 30.6107 63.3829C30.5615 63.3627 30.5079 63.3558 30.4552 63.3628C30.4149 63.3677 30.3761 63.381 30.3413 63.4018C30.2721 63.4449 30.2219 63.5129 30.2011 63.5918C30.1892 63.6308 30.1879 63.6723 30.1975 63.7121C30.2047 63.766 30.2255 63.8172 30.258 63.8609L30.2671 63.8486Z" fill="#B72A23"/>
<path d="M32.1479 57.1058C31.9792 57.2384 31.8495 57.4141 31.7726 57.6144C31.7351 57.7126 31.7102 57.8151 31.6988 57.9196C31.6933 58.0519 31.7151 58.1839 31.7628 58.3075C31.8059 58.3767 31.8739 58.4269 31.9527 58.4477C32.0128 58.4681 32.0776 58.4697 32.1386 58.4523C32.2025 58.4339 32.2595 58.3969 32.3023 58.346C32.3446 58.2787 32.3632 58.1992 32.3554 58.1201L32.3559 58.1963C32.3573 58.1313 32.3639 58.0666 32.3757 58.0027C32.4119 57.9536 32.3839 57.8762 32.4 57.803L32.381 57.893C32.3974 57.8096 32.4276 57.7295 32.4705 57.6562L32.4207 57.7235C32.4612 57.6559 32.5082 57.5923 32.5609 57.5336L32.5293 57.5765C32.5985 57.5334 32.6486 57.4654 32.6694 57.3865C32.677 57.3272 32.6664 57.2669 32.6392 57.2137C32.6119 57.1604 32.5692 57.1166 32.5166 57.0881C32.464 57.0595 32.404 57.0475 32.3445 57.0536C32.285 57.0597 32.2287 57.0837 32.183 57.1223L32.1479 57.1058Z" fill="#B72A23"/>
<path d="M29.5355 53.4377C29.5802 53.4591 29.631 53.4642 29.6791 53.4522C29.7272 53.4402 29.7696 53.4118 29.7991 53.3719C29.8285 53.332 29.8431 53.2831 29.8404 53.2336C29.8377 53.1841 29.8178 53.1371 29.7841 53.1007C29.7394 53.0792 29.6886 53.074 29.6405 53.086C29.5923 53.098 29.5499 53.1264 29.5204 53.1663C29.491 53.2062 29.4764 53.2552 29.4791 53.3047C29.4819 53.3542 29.5018 53.4013 29.5355 53.4377Z" fill="#B72A23"/>
<path d="M33.825 49.3813C33.8514 49.4093 33.8824 49.4322 33.9169 49.4491L34.0088 49.517L34.0314 49.4863C34.0467 49.4726 34.059 49.4559 34.0676 49.4373C34.0794 49.4273 34.0887 49.4147 34.0947 49.4005L34.1219 49.3638L34.1168 49.2938L34.0249 49.2259C33.9985 49.198 33.9674 49.175 33.9329 49.1581C33.9329 49.1581 33.9329 49.1581 33.9103 49.1887C33.8925 49.1999 33.8796 49.2175 33.8741 49.2378L33.8199 49.3113L33.8628 49.343L33.825 49.3813Z" fill="#B72A23"/>
<path d="M33.8121 68.6126C33.4207 68.7736 33.087 69.0489 32.8547 69.4026C32.6224 69.7564 32.5022 70.172 32.51 70.5951C32.5279 71.0514 32.696 71.489 32.9882 71.8398C33.2805 72.1907 33.6805 72.4351 34.126 72.5352C34.3709 72.5969 34.6242 72.6175 34.8759 72.5964C35.0167 72.5811 35.1522 72.5339 35.272 72.4582C35.3918 72.3826 35.4927 72.2806 35.567 72.1599C35.5972 72.08 35.5949 71.9915 35.5607 71.9132C35.5265 71.8349 35.4631 71.7731 35.384 71.7409C35.3089 71.7077 35.2261 71.6957 35.1446 71.7062L35.0639 71.713C34.9387 71.7035 34.813 71.7025 34.6877 71.7098C34.7958 71.7044 34.651 71.6827 34.6387 71.6737L34.4893 71.6581L34.4341 71.6174L34.286 71.5744L34.0064 71.4531C34.1044 71.5255 34.0064 71.4532 33.9512 71.4125L33.8287 71.3221C33.8287 71.3221 33.6816 71.2135 33.7796 71.2858L33.6571 71.1954L33.5678 71.0727C33.531 71.0456 33.531 71.0456 33.5678 71.0727L33.5065 71.0275L33.4476 70.8894L33.4256 70.8165L33.3807 70.5183L33.3801 70.4421C33.3835 70.3899 33.3902 70.338 33.4002 70.2866C33.3991 70.2375 33.4064 70.1885 33.422 70.1418C33.3767 70.2031 33.4626 70.0867 33.4717 70.0744C33.5607 69.7359 33.7759 69.4443 34.0731 69.2594C34.1564 69.223 34.2218 69.1549 34.255 69.0703C34.2882 68.9856 34.2864 68.8913 34.25 68.8079C34.2136 68.7246 34.1456 68.6591 34.0609 68.6259C33.9762 68.5928 33.8819 68.5945 33.7985 68.6309L33.8121 68.6126Z" fill="#B72A23"/>
<path d="M34.2255 70.4126L34.3479 70.6827L34.4069 70.8209L34.6091 70.9701C34.6391 70.9964 34.6762 71.0135 34.7157 71.0191C34.7552 71.0247 34.7955 71.0187 34.8317 71.0018C34.8707 70.9867 34.9045 70.9608 34.9293 70.9272C34.9541 70.8936 34.9689 70.8536 34.9719 70.8119L35.0035 70.769C35.0096 70.7384 35.0104 70.707 35.0059 70.6761L34.9763 70.588L34.9218 70.4437L34.8146 70.1658C34.7934 70.1127 34.7566 70.0672 34.709 70.0355C34.6614 70.0038 34.6053 69.9873 34.5481 69.9882C34.4909 69.9891 34.4354 70.0075 34.3888 70.0407C34.3423 70.074 34.307 70.1207 34.2876 70.1745C34.2634 70.2451 34.2635 70.3218 34.2878 70.3923L34.2255 70.4126Z" fill="#B72A23"/>
<path d="M37.1429 67.5875C36.9479 67.7551 36.7934 67.9646 36.6908 68.2003C36.5896 68.4564 36.551 68.7329 36.5783 69.0069C36.5913 69.2596 36.6621 69.506 36.785 69.7272C36.8586 69.8753 36.96 70.0079 37.0835 70.1179C37.1693 70.2281 37.2837 70.3125 37.4144 70.362C37.4821 70.3888 37.5568 70.3923 37.6267 70.3719C37.6966 70.3515 37.7577 70.3084 37.8004 70.2494C37.8418 70.1902 37.8636 70.1195 37.8625 70.0473C37.8614 69.9751 37.8374 69.9051 37.7941 69.8473C37.7206 69.793 37.6348 69.7297 37.5975 69.6264L37.5005 69.4886L37.4515 69.4525C37.3841 69.4027 37.5127 69.4977 37.4515 69.4525C37.404 69.3631 37.3611 69.2715 37.3229 69.1778L37.2738 69.1416C37.2581 69.0732 37.2973 69.2252 37.2738 69.1416L37.2452 68.9879L37.235 68.8479L37.2389 68.7657C37.2409 68.6654 37.2513 68.5654 37.2701 68.4668L37.3108 68.4117C37.3197 68.3584 37.3357 68.3066 37.3583 68.2575C37.3583 68.2575 37.3855 68.2207 37.399 68.2024L37.494 68.0737C37.6703 67.8347 37.3372 67.5037 37.1225 67.7049L37.1429 67.5875Z" fill="#B72A23"/>
<path d="M37.9703 69.3519L38.0872 69.6937L38.1403 69.8654C38.1869 69.9789 38.2725 70.0722 38.3815 70.1285C38.4322 70.1485 38.4884 70.1496 38.5399 70.1318C38.5942 70.1194 38.6419 70.087 38.6733 70.0409C38.7154 70.0104 38.747 69.9676 38.7637 69.9184L38.7863 69.8877C38.7896 69.8533 38.7898 69.8186 38.787 69.7841C38.779 69.7469 38.768 69.7103 38.7542 69.6747L38.6859 69.5108L38.5522 69.1661C38.5104 69.1026 38.4475 69.0562 38.3745 69.035C38.3039 69.0108 38.2272 69.0108 38.1566 69.0351C38.0932 69.0769 38.0468 69.1399 38.0255 69.2128C38.0013 69.2834 38.0014 69.3601 38.0257 69.4306L37.9703 69.3519Z" fill="#B72A23"/>
<path d="M41.0096 72.0306C40.6292 72.3506 40.3891 72.8068 40.3406 73.3015C40.2921 73.7963 40.4389 74.2904 40.7499 74.6782C40.9165 74.8669 41.1193 75.0202 41.3462 75.1291C41.5731 75.238 41.8195 75.3002 42.0709 75.3121C42.3281 75.3351 42.587 75.2951 42.8253 75.1956C43.0637 75.096 43.2742 74.94 43.4387 74.741C43.4897 74.6683 43.5159 74.5812 43.5133 74.4925C43.5106 74.4038 43.4794 74.3183 43.4242 74.2488C43.369 74.1793 43.2928 74.1295 43.2069 74.1069C43.1211 74.0843 43.0303 74.0901 42.948 74.1234C42.866 74.1575 42.7918 74.2069 42.7037 74.2365C42.6156 74.2661 42.5701 74.2893 42.6811 74.2672L42.4926 74.3174C42.5975 74.2906 42.4655 74.3541 42.4197 74.3392L42.3025 74.3569L42.1838 74.3639C42.0926 74.3624 42.0018 74.3525 41.9125 74.3341L41.8205 74.2662C41.8205 74.2662 41.6735 74.1577 41.7654 74.2256L41.5326 74.0537L41.3816 73.8478L41.3243 73.7202C41.3243 73.7202 41.2805 73.5744 41.2814 73.6886L41.2576 73.5669L41.2461 73.4543L41.2348 73.3798C41.2371 73.2966 41.2446 73.2136 41.2573 73.1313C41.2573 73.1313 41.2883 73.0123 41.2889 73.0884C41.2976 73.0434 41.311 72.9994 41.329 72.9571C41.3912 72.8131 41.4855 72.6853 41.6048 72.5833C41.6532 72.5155 41.6752 72.4323 41.6667 72.3494C41.6582 72.2665 41.6198 72.1895 41.5586 72.1329C41.4999 72.074 41.4218 72.0385 41.3388 72.033C41.2558 72.0274 41.1736 72.0523 41.1075 72.1029L41.0096 72.0306Z" fill="#B72A23"/>
<path d="M41.9179 73.7884C41.9812 73.8351 42.0606 73.8548 42.1385 73.8431C42.2164 73.8313 42.2864 73.7891 42.3332 73.7258C42.3799 73.6624 42.3996 73.583 42.3879 73.5051C42.3761 73.4272 42.3339 73.3572 42.2705 73.3104C42.2071 73.2636 42.1278 73.244 42.0499 73.2557C41.972 73.2675 41.9019 73.3097 41.8552 73.3731C41.8084 73.4364 41.7888 73.5158 41.8005 73.5937C41.8123 73.6716 41.8545 73.7416 41.9179 73.7884Z" fill="#B72A23"/>
<path d="M37.1152 74.1533C37.001 74.5026 36.9673 74.8732 37.0166 75.2373C37.0658 75.6014 37.1968 75.9497 37.3997 76.2561C37.6808 76.5739 38.0626 76.7855 38.4812 76.8554C38.697 76.8967 38.9169 76.9129 39.1365 76.9035C39.3969 76.8969 39.6422 76.8981 39.8217 76.6804L39.5776 76.8316C39.7796 76.8053 39.9682 76.7158 40.1164 76.5761C40.1394 76.5484 40.1564 76.5163 40.1663 76.4817C40.1763 76.4471 40.1789 76.4108 40.174 76.3752C40.1691 76.3395 40.1569 76.3053 40.1381 76.2747C40.1192 76.244 40.0943 76.2176 40.0647 76.1972C39.9088 76.1133 39.7335 76.0722 39.5565 76.0778L39.7414 76.1479C39.5698 76.0213 39.3736 76.0564 39.1709 76.0488C38.9683 76.0413 38.8418 76.0331 38.6756 76.0146C38.4094 75.9921 38.16 75.8752 37.9724 75.685C37.6252 75.2962 37.6753 74.6897 37.7276 74.1699C37.7799 73.6501 37.1803 73.7188 37.1026 74.1063L37.1152 74.1533Z" fill="#B72A23"/>
<path d="M41.0124 76.4517C40.9318 76.7289 40.9591 77.0264 41.089 77.2842C41.2247 77.5455 41.4332 77.7619 41.6893 77.9071C41.9604 78.0472 42.2634 78.1142 42.5682 78.1013C42.7122 78.0959 42.855 78.0743 42.9941 78.037C43.0501 78.0279 43.1044 78.0105 43.1552 77.9855C43.1924 77.9735 43.2266 77.9535 43.2553 77.9268C43.2327 77.9575 43.2327 77.9575 43.2553 77.9268L43.4464 77.8218C43.5115 77.789 43.563 77.7345 43.5921 77.6678C43.6213 77.601 43.6261 77.5261 43.6059 77.4561C43.5856 77.3861 43.5415 77.3254 43.4812 77.2845C43.4209 77.2436 43.3483 77.2251 43.2757 77.2321L43.1144 77.2456L42.9727 77.2451L42.6349 77.2798L42.5374 77.2836C42.4825 77.2873 42.4272 77.2847 42.3729 77.2757L42.2722 77.2582L42.1119 77.2062L41.8913 77.0434L41.8097 76.9359C41.7729 76.9088 41.8439 77.0179 41.8097 76.9359L41.7607 76.8998C41.7607 76.8998 41.7178 76.8681 41.7343 76.833C41.7508 76.7978 41.7517 76.912 41.7343 76.833L41.7246 76.769L41.7699 76.7077C41.7777 76.6171 41.7529 76.5266 41.6998 76.4527C41.6466 76.3788 41.5688 76.3263 41.4804 76.3049C41.3909 76.2795 41.2951 76.2893 41.2125 76.3321C41.1299 76.3749 41.0667 76.4475 41.0359 76.5353L41.0124 76.4517Z" fill="#B72A23"/>
<path d="M44.7547 76.2796C44.7581 76.3662 44.784 76.4505 44.8297 76.5242C44.8554 76.5781 44.8887 76.6282 44.9284 76.6728C45.0062 76.7617 45.1023 76.8327 45.2103 76.8807C45.2632 76.909 45.3214 76.9261 45.3812 76.9312C45.494 76.9378 45.6067 76.9171 45.7098 76.8708C45.7853 76.8193 45.8411 76.7436 45.868 76.6563C45.886 76.5865 45.888 76.5136 45.8739 76.443C45.8555 76.3706 45.8111 76.3075 45.7492 76.2657C45.7133 76.2383 45.6722 76.2184 45.6284 76.2072C45.5846 76.196 45.539 76.1938 45.4944 76.2007L45.5811 76.1985L45.526 76.1578L45.5934 76.2076L45.4346 76.1661L45.5081 76.2204L45.4224 76.1571L45.496 76.2114L45.4102 76.1481L45.4776 76.1978L45.4224 76.1571L45.4459 76.2407C45.4396 76.1943 45.424 76.1496 45.4001 76.1092C45.3762 76.0689 45.3444 76.0338 45.3067 76.006C45.269 75.9781 45.2261 75.9582 45.1806 75.9473C45.135 75.9363 45.0877 75.9346 45.0415 75.9423C44.9967 75.9488 44.9538 75.9644 44.9153 75.988C44.8767 76.0116 44.8433 76.0428 44.8171 76.0796L44.7583 76.1593C44.7389 76.2145 44.7311 76.2731 44.7353 76.3315L44.7547 76.2796Z" fill="#B72A23"/>
<path d="M39.3808 75.8539C39.4359 75.8946 39.4972 75.9398 39.593 75.9253C39.6349 75.928 39.6768 75.9198 39.7147 75.9015C39.7559 75.8876 39.7919 75.8613 39.8178 75.8263C39.8437 75.7912 39.8582 75.749 39.8594 75.7054C39.8657 75.6639 39.8611 75.6215 39.8462 75.5822C39.8086 75.5175 39.7648 75.4567 39.7154 75.4005C39.6845 75.3588 39.6418 75.3272 39.5928 75.31C39.548 75.2876 39.4973 75.28 39.4479 75.2883L39.3689 75.3057C39.3301 75.3394 39.2992 75.3813 39.2784 75.4283C39.2479 75.4521 39.2244 75.4839 39.2106 75.5201C39.1953 75.5548 39.1934 75.5939 39.2054 75.6298C39.211 75.6812 39.2311 75.7299 39.2632 75.7703C39.2953 75.8107 39.3381 75.8413 39.3868 75.8584L39.3808 75.8539Z" fill="#B72A23"/>
<path d="M69.516 74.3256C69.5859 74.5002 69.7343 74.5813 69.8439 74.7663L69.8806 74.7934L69.9364 74.9103L69.9754 75.0242L70.0183 75.0559C70.0364 75.1402 70.0493 75.2256 70.0568 75.3115L70.0297 75.3482L70.0231 75.4853L70.0134 75.6012L69.9726 75.6563L69.8876 75.887L69.7655 76.0524C69.7549 76.0728 69.7412 76.0914 69.7248 76.1075C69.7043 76.1427 69.6801 76.1756 69.6525 76.2056C69.6525 76.2056 69.5418 76.2658 69.6163 76.2546C69.6909 76.2434 69.6163 76.2546 69.5847 76.2975L69.4662 76.3426L69.4346 76.3855L69.3297 76.4122L69.2233 76.4283C69.1319 76.4366 69.26 76.4554 69.2233 76.4283L69.0038 76.4179L68.8971 76.3958L68.8297 76.3461C68.7483 76.3232 68.669 76.2932 68.5928 76.2565L68.4948 76.1842C68.5928 76.2565 68.4948 76.1842 68.4581 76.1571L68.2007 75.9671C68.144 75.8968 68.0701 75.8423 67.9862 75.8089C67.9343 75.7889 67.8785 75.7811 67.823 75.7859C67.7676 75.7908 67.7139 75.8082 67.6663 75.837C67.6186 75.8657 67.5781 75.9049 67.5479 75.9517C67.5177 75.9984 67.4986 76.0514 67.492 76.1067C67.4861 76.2407 67.5252 76.3728 67.6031 76.4821L67.6679 76.5867C67.6188 76.5505 67.7108 76.6183 67.6679 76.5867C67.7114 76.6848 67.7767 76.7718 67.8587 76.8411C68.0174 76.9868 68.2009 77.103 68.4006 77.1841C68.8072 77.342 69.2529 77.3699 69.676 77.264C69.915 77.2092 70.1399 77.105 70.3363 76.9581C70.5326 76.8113 70.6961 76.625 70.8163 76.4112C71.0488 75.9853 71.1154 75.4883 71.0034 75.0161C70.9368 74.7332 70.8095 74.4681 70.6302 74.2392C70.5443 74.1136 70.4317 74.0085 70.3005 73.9313C70.1694 73.8542 70.0229 73.8069 69.8713 73.7928C69.8225 73.8003 69.7759 73.8187 69.7352 73.8468C69.6944 73.8748 69.6606 73.9117 69.6361 73.9547C69.6117 73.9977 69.5973 74.0456 69.5941 74.095C69.5908 74.1443 69.5988 74.1937 69.6174 74.2395L69.516 74.3256Z" fill="#B72A23"/>
<path d="M69.5497 75.742L69.4051 75.7584L69.3825 75.789L69.2977 75.8399L69.1575 76.0299C69.1394 76.0679 69.1344 76.1107 69.1432 76.1519C69.1472 76.1971 69.1651 76.2401 69.1944 76.2749L69.2802 76.3382C69.2872 76.3524 69.2975 76.3648 69.3103 76.3742C69.3231 76.3837 69.338 76.3899 69.3538 76.3924C69.384 76.4274 69.4217 76.4551 69.464 76.4738L69.5554 76.4655L69.6984 76.4385C69.7451 76.436 69.79 76.4197 69.8275 76.3917C69.8633 76.3622 69.8912 76.3243 69.9089 76.2814C69.9442 76.2515 69.9721 76.2138 69.9902 76.1711C70.0025 76.1284 70.0032 76.0832 69.9923 76.0401L69.9732 75.9504C69.9483 75.8943 69.909 75.8458 69.8594 75.8097L69.7798 75.7509C69.7232 75.7305 69.6624 75.7247 69.603 75.734L69.5497 75.742Z" fill="#B72A23"/>
<path d="M74.8753 72.8858C75.0029 73.3915 74.9966 73.9218 74.8569 74.4243C74.8109 74.5186 74.7481 74.6038 74.6715 74.6755C74.6398 74.7184 74.6398 74.7184 74.5991 74.7736C74.5572 74.8099 74.5132 74.8438 74.4674 74.8751C74.3583 74.9247 74.2468 74.9688 74.1333 75.0072C73.9768 75.0526 73.8416 75.0948 73.6941 75.1279C73.6038 75.1502 73.5251 75.2054 73.4734 75.2827C73.4217 75.36 73.4007 75.4539 73.4146 75.5458C73.4285 75.6378 73.4762 75.7212 73.5484 75.7799C73.6206 75.8385 73.712 75.868 73.8049 75.8627C73.9707 75.864 74.1362 75.8464 74.298 75.8101C74.4779 75.7684 74.6511 75.7019 74.8128 75.6127C75.1438 75.4258 75.4011 75.1315 75.542 74.7784C75.7271 74.1211 75.7035 73.4225 75.4746 72.7791C75.4604 72.6981 75.4156 72.6256 75.3494 72.5767C75.2832 72.5279 75.2007 72.5064 75.1191 72.5168C75.0389 72.5326 74.9676 72.5779 74.9191 72.6437C74.8706 72.7094 74.8483 72.7909 74.8569 72.8722L74.8753 72.8858Z" fill="#B72A23"/>
<path d="M78.9423 70.6056C78.8872 70.5649 79.0159 70.6599 78.9423 70.6056L78.9974 70.6463L79.0564 70.7844L79.0738 70.8635L79.0917 71.0187C79.0941 70.9258 79.0918 71.0187 79.0691 71.0494L79.0536 71.1987C79.0419 71.2215 79.0266 71.2422 79.0083 71.26C79.0001 71.3103 78.9835 71.3588 78.9592 71.4036C78.9334 71.4444 78.9047 71.4833 78.8733 71.52L78.8236 71.5874C78.7712 71.6777 78.709 71.762 78.6382 71.8387L78.5975 71.8938C78.5731 71.9326 78.5459 71.9694 78.5161 72.0041C78.4845 72.047 78.4528 72.0899 78.4212 72.1328L78.376 72.1941C78.3 72.2315 78.2391 72.2937 78.2031 72.3704C78.1672 72.4471 78.1584 72.5336 78.1782 72.616C78.1975 72.6989 78.2457 72.7722 78.3142 72.8227C78.3827 72.8733 78.4671 72.8978 78.552 72.8918C78.7059 72.8667 78.8547 72.8167 78.9925 72.7436C79.1313 72.6592 79.255 72.5522 79.3586 72.427C79.5268 72.2306 79.6535 72.0021 79.7311 71.7555C79.8219 71.4807 79.8486 71.1888 79.8091 70.9022C79.7696 70.6155 79.665 70.3417 79.5034 70.1016C79.4423 70.0246 79.3533 69.9747 79.2557 69.9629C79.1581 69.9512 79.0597 69.9783 78.982 70.0387C78.9066 70.1009 78.8581 70.1897 78.8463 70.2868C78.8346 70.3839 78.8606 70.4817 78.9191 70.56L78.9423 70.6056Z" fill="#B72A23"/>
<path d="M81.8419 64.8423C81.9865 65.0335 82.0773 65.2601 82.1046 65.4983C82.1319 65.7365 82.0948 65.9777 81.9972 66.1967C81.9445 66.2959 81.8775 66.3867 81.7983 66.4663C81.7747 66.5117 81.7442 66.553 81.7078 66.5888C81.6552 66.6363 81.6001 66.6809 81.5428 66.7226C81.4473 66.7993 81.3442 66.8659 81.2352 66.9215C81.0985 66.9778 80.9666 67.0451 80.8408 67.1226C80.8043 67.1524 80.7761 67.191 80.7589 67.2348C80.7417 67.2787 80.736 67.3261 80.7425 67.3728C80.749 67.4194 80.7674 67.4635 80.7959 67.501C80.8244 67.5384 80.8621 67.568 80.9053 67.5867C81.0999 67.6307 81.3019 67.6314 81.4968 67.5888C81.6918 67.5462 81.875 67.4614 82.0335 67.3402C82.3304 67.1108 82.5575 66.8031 82.6891 66.4517C82.8201 66.1116 82.8603 65.7434 82.806 65.383C82.7516 65.0227 82.6046 64.6828 82.3792 64.3964C82.3218 64.3228 82.2376 64.2748 82.1449 64.2633C82.0523 64.2517 81.9588 64.2774 81.8852 64.3348C81.8115 64.3921 81.7636 64.4764 81.7521 64.569C81.7405 64.6616 81.7662 64.7551 81.8235 64.8288L81.8419 64.8423Z" fill="#B72A23"/>
<path d="M83.039 59.3845L83.2413 59.5338C83.2581 59.5626 83.2701 59.5938 83.277 59.6264L83.2915 59.7222L83.2936 59.809L83.2807 59.9036C83.2807 59.9036 83.2813 59.9797 83.2677 59.9981C83.3129 59.9368 83.2541 60.0164 83.2677 59.9981L83.2412 60.111L83.2141 60.1478C83.1929 60.2096 83.1674 60.2698 83.1378 60.3281L83.192 60.2545C83.1555 60.2969 83.1223 60.342 83.0926 60.3893C83.071 60.4548 83.0684 60.5251 83.085 60.592C83.0947 60.6493 83.123 60.702 83.1653 60.7418C83.2077 60.7816 83.262 60.8064 83.3198 60.8126C83.3678 60.8203 83.4169 60.8177 83.4638 60.805C83.5107 60.7923 83.5543 60.7697 83.5918 60.7388C83.6338 60.6944 83.6702 60.645 83.7003 60.5918C83.7525 60.509 83.7977 60.4221 83.8354 60.3318C83.9052 60.1408 83.9266 59.9356 83.8978 59.7343C83.8807 59.5471 83.8258 59.3652 83.7362 59.1999C83.6467 59.0346 83.5245 58.8892 83.377 58.7726C83.3457 58.7483 83.3098 58.7304 83.2715 58.7202C83.2332 58.7099 83.1933 58.7074 83.154 58.7128C83.1147 58.7183 83.0769 58.7314 83.0428 58.7517C83.0087 58.772 82.979 58.7988 82.9555 58.8308C82.9094 58.8964 82.8905 58.9773 82.9024 59.0566C82.9144 59.1359 82.9564 59.2076 83.0198 59.2568L83.039 59.3845Z" fill="#B72A23"/>
<path d="M76.3635 66.1099L76.4785 66.4029L76.5268 66.5427L76.5487 66.6157C76.5725 66.7134 76.5911 66.8124 76.6043 66.9122L76.6094 66.9822C76.6094 67.0337 76.6063 67.0851 76.5999 67.1361L76.5638 67.1851C76.5954 67.1422 76.5231 67.2403 76.5638 67.1851C76.5378 67.2164 76.5137 67.2492 76.4914 67.2832L76.4191 67.3812C76.4733 67.3077 76.3874 67.4241 76.4191 67.3812C76.4116 67.3976 76.4008 67.4122 76.3874 67.4241C76.3664 67.459 76.3422 67.4918 76.3151 67.5222L76.2518 67.608C76.1634 67.6646 76.099 67.7519 76.0709 67.8531L76.2111 67.6631C76.2048 67.6772 76.1955 67.6897 76.1839 67.6999C76.1556 67.7127 76.1262 67.7226 76.0959 67.7295L75.9713 67.7701C75.8209 67.82 75.7995 68.003 75.9359 68.1131C76.1035 68.2136 76.3034 68.2459 76.4941 68.2032L76.3447 68.1875C76.6137 68.3103 76.9011 68.0492 77.0609 67.8454C77.2072 67.6565 77.2958 67.4295 77.3163 67.1915C77.3194 66.6879 77.1883 66.1926 76.9364 65.7566C76.905 65.6819 76.8451 65.6228 76.77 65.5923C76.695 65.5617 76.6108 65.5622 76.5361 65.5937C76.4614 65.6252 76.4023 65.6851 76.3718 65.7602C76.3413 65.8352 76.3417 65.9194 76.3732 65.994L76.3635 66.1099Z" fill="#B72A23"/>
<path d="M73.5275 68.9663C73.5651 69.1076 73.5963 69.2064 73.631 69.3645C73.6584 69.5038 73.6779 69.6445 73.6892 69.7859C73.7118 69.7553 73.6892 69.7859 73.6575 69.8288L73.6523 69.9386C73.6522 69.9762 73.6468 70.0137 73.6364 70.0499C73.6364 70.0499 73.616 70.1673 73.6138 70.0805C73.5965 70.1482 73.5756 70.2149 73.5514 70.2805C73.5514 70.2805 73.479 70.3786 73.5062 70.3418C73.5333 70.305 73.4791 70.3785 73.47 70.3908L73.4202 70.4582C73.4564 70.4092 73.366 70.5318 73.4202 70.4582C73.3841 70.5072 73.3173 70.5337 73.2643 70.5798L73.1718 70.6156L73.0943 70.6435L73.0716 70.6742C73.0988 70.6374 73.0943 70.6436 73.0716 70.6742C73.0467 70.6852 73.0199 70.6911 72.9926 70.6916C73.0778 70.6787 72.7899 70.684 72.8951 70.6953L72.8067 70.6869C72.7244 70.683 72.8496 70.7186 72.8067 70.6869L72.6781 70.592C72.6565 70.5664 72.6292 70.5463 72.5984 70.5332C72.5508 70.5175 72.4999 70.5141 72.4506 70.5234C72.4013 70.5327 72.3552 70.5543 72.3165 70.5863C72.2778 70.6182 72.2479 70.6594 72.2294 70.706C72.211 70.7527 72.2046 70.8033 72.211 70.853C72.2759 71.0541 72.412 71.2246 72.5937 71.3326C72.7754 71.4405 72.9903 71.4785 73.198 71.4393C73.3894 71.4186 73.5748 71.3597 73.7431 71.266C73.9114 71.1723 74.0591 71.0458 74.1776 70.894C74.3469 70.5577 74.4333 70.1858 74.4295 69.8093C74.4258 69.4329 74.3321 69.0627 74.1562 68.7298C74.1135 68.6588 74.0464 68.6056 73.9675 68.5801C73.8886 68.5547 73.8031 68.5587 73.727 68.5915C73.6508 68.6242 73.5891 68.6835 73.5533 68.7583C73.5175 68.8331 73.51 68.9184 73.5323 68.9982L73.5275 68.9663Z" fill="#B72A23"/>
<path d="M72.6381 69.6452L72.6125 69.8723L72.601 69.9775C72.5873 70.0444 72.596 70.1138 72.6255 70.1753L72.6622 70.2024C72.6921 70.2378 72.7299 70.2657 72.7725 70.2838C72.7815 70.2999 72.7938 70.3138 72.8086 70.3247C72.8234 70.3357 72.8404 70.3433 72.8583 70.3471C72.8903 70.3578 72.9243 70.3602 72.9574 70.354C73.0018 70.3467 73.0439 70.3292 73.0803 70.3028L73.1075 70.266C73.1295 70.2413 73.1492 70.2147 73.1662 70.1863C73.203 70.1372 73.2262 70.0792 73.2335 70.0183L73.2513 69.9557L73.3044 69.7298C73.313 69.6847 73.3079 69.6381 73.2896 69.596C73.2836 69.5522 73.2641 69.5113 73.2338 69.4791C73.2043 69.4433 73.1665 69.4154 73.1236 69.3977C73.086 69.3744 73.0426 69.362 72.9984 69.3621C72.9111 69.3512 72.8229 69.3743 72.7522 69.4265C72.6766 69.478 72.6209 69.5536 72.5939 69.641L72.6381 69.6452Z" fill="#B72A23"/>
<path d="M73.1673 73.9817L73.0732 74.2246L73.0009 74.3226C72.9853 74.356 72.9778 74.3925 72.9789 74.4294L72.9472 74.4723C72.9446 74.5085 72.9501 74.5449 72.9633 74.5788C72.9908 74.6131 73.0266 74.6395 73.0675 74.6556C73.1037 74.6752 73.1448 74.6839 73.1859 74.6806C73.227 74.6773 73.2662 74.6621 73.2988 74.637C73.3425 74.5975 73.3779 74.5496 73.4028 74.4961L73.6289 74.1897C73.6638 74.1594 73.6916 74.1218 73.7103 74.0794L73.7052 74.0094C73.7005 73.9608 73.6822 73.9145 73.6523 73.8758C73.6284 73.849 73.5992 73.8274 73.5665 73.8125C73.5313 73.7943 73.4928 73.7837 73.4533 73.781C73.4138 73.7784 73.3742 73.7838 73.3369 73.7971C73.2996 73.8104 73.2654 73.8312 73.2365 73.8582C73.2075 73.8853 73.1844 73.9179 73.1686 73.9542L73.1673 73.9817Z" fill="#B72A23"/>
<path d="M76.5581 57.4706L76.7848 57.6379L77.0031 57.8936L77.114 58.0511L77.163 58.0873L77.2281 58.23L77.2516 58.3136C77.2081 58.2058 77.2209 58.291 77.2516 58.3136L77.2673 58.382L77.2562 58.5252C77.3195 58.4394 77.2462 58.6029 77.2562 58.5252L77.1341 58.6907C77.1748 58.6355 77.1703 58.6416 77.1341 58.6907L77.0392 58.8193C77.0754 58.7703 77.0754 58.7703 77.0392 58.8193C76.9633 58.8739 76.8943 58.9373 76.8336 59.0083C76.7522 59.1186 76.7522 59.1186 76.8336 59.0083L76.8019 59.0512C76.7889 59.0761 76.7721 59.0988 76.7522 59.1186L76.7115 59.1737C76.6637 59.213 76.6264 59.2636 76.603 59.3208C76.5689 59.3702 76.5549 59.4308 76.5639 59.4901C76.5728 59.5495 76.604 59.6032 76.6512 59.6403C76.7332 59.6981 76.8343 59.7218 76.9335 59.7066L77.1206 59.6838C77.0838 59.6567 77.1432 59.6532 77.1206 59.6838C77.193 59.6865 77.2653 59.6757 77.3336 59.6517C77.4195 59.6176 77.5006 59.5724 77.5748 59.5173C77.7087 59.431 77.8224 59.3169 77.9083 59.1827C77.9943 59.0485 78.0503 58.8974 78.0728 58.7397C78.0923 58.5012 78.0595 58.2613 77.9767 58.0368C77.894 57.8122 77.7632 57.6084 77.5935 57.4396C77.4169 57.2553 77.2256 57.0856 77.0214 56.9323C76.9461 56.8767 76.852 56.8528 76.7593 56.8658C76.6666 56.8788 76.5826 56.9276 76.5254 57.0017C76.471 57.0788 76.4485 57.1739 76.4625 57.2672C76.4766 57.3605 76.5262 57.4446 76.6009 57.5022L76.5581 57.4706Z" fill="#B72A23"/>
<path d="M76.7395 61.3807L76.7907 61.5037C76.7907 61.5037 76.768 61.5343 76.8064 61.5721L76.8212 61.706C76.8573 61.657 76.8324 61.7806 76.8212 61.706C76.8161 61.7296 76.8143 61.7537 76.8157 61.7777L76.7968 61.9058C76.8421 61.8445 76.7562 61.9609 76.7968 61.9058L76.7561 61.9609C76.729 61.9977 76.7064 62.0283 76.6793 62.0651C76.6522 62.1018 76.6476 62.108 76.6386 62.1202C76.7019 62.0345 76.6657 62.0835 76.6386 62.1202C76.5906 62.1982 76.5361 62.272 76.4758 62.3408L76.4351 62.396C76.3718 62.4818 76.3809 62.4695 76.3537 62.5063L76.3176 62.5553C76.3447 62.5185 76.2678 62.6227 76.3176 62.5553L76.1901 62.6127C76.0872 62.6629 75.9905 62.7249 75.9021 62.7977C75.8614 62.8325 75.8304 62.8772 75.8119 62.9274C75.7935 62.9777 75.7882 63.0318 75.7968 63.0847C75.8053 63.1375 75.8273 63.1873 75.8606 63.2292C75.8939 63.2711 75.9374 63.3038 75.987 63.324C76.0661 63.362 76.1519 63.3839 76.2395 63.3885C76.3272 63.393 76.4148 63.3801 76.4974 63.3505C76.6233 63.306 76.7423 63.2441 76.8509 63.1665C77.0625 63.018 77.2329 62.818 77.3459 62.5854C77.4625 62.3636 77.5227 62.1166 77.521 61.8661C77.5193 61.6155 77.4558 61.3693 77.3362 61.1491C77.2953 61.0652 77.2245 60.9996 77.1377 60.9653C77.0509 60.931 76.9544 60.9306 76.8672 60.964C76.8232 60.9823 76.7833 61.0092 76.7499 61.0432C76.7164 61.0771 76.6901 61.1174 76.6724 61.1616C76.6547 61.2059 76.646 61.2532 76.6469 61.3009C76.6478 61.3485 76.6582 61.3955 76.6774 61.4391L76.7395 61.3807Z" fill="#B72A23"/>
<path d="M69.1414 46.0258C69.2296 45.7126 69.3339 45.4043 69.454 45.1019L69.5574 44.8848C69.6298 44.7868 69.5168 44.94 69.5891 44.8419C69.6614 44.7439 69.6343 44.7806 69.6615 44.7439C69.7004 44.6782 69.7459 44.6166 69.7971 44.56C69.7519 44.6213 69.7971 44.56 69.8242 44.5233L69.8694 44.462C69.8694 44.462 69.9788 44.4292 69.9011 44.4191L69.9685 44.4688L70.1427 44.5406C70.0814 44.4954 70.2101 44.5903 70.1427 44.5406L70.3387 44.6852L70.488 44.8806C70.5246 44.9505 70.5674 45.0169 70.6159 45.0791C70.678 45.1446 70.7328 45.2167 70.7791 45.2941C70.9287 45.5275 71.2989 45.3464 71.2558 45.0969L71.2317 44.9372C71.2011 44.9146 71.2279 44.8397 71.2138 44.782C71.1924 44.6713 71.1524 44.565 71.0955 44.4676C71.0003 44.258 70.8588 44.0727 70.6816 43.9256C70.5275 43.793 70.3412 43.7033 70.1415 43.6656C69.9417 43.6278 69.7355 43.6433 69.5437 43.7106C69.3449 43.8126 69.1703 43.9559 69.0314 44.1309C68.8925 44.3059 68.7926 44.5085 68.7383 44.7252C68.5744 45.1214 68.5394 45.5592 68.6384 45.9765C68.6531 46.022 68.6816 46.0617 68.7201 46.0901C68.7586 46.1185 68.805 46.1341 68.8529 46.1347C68.9006 46.1432 68.9497 46.1339 68.9911 46.1086C69.0324 46.0833 69.0631 46.0438 69.0772 45.9974L69.1414 46.0258Z" fill="#B72A23"/>
<path d="M71.9965 47.4794C72.0497 47.4263 72.111 47.3821 72.1782 47.3485C72.1845 47.3345 72.1938 47.3219 72.2054 47.3118L72.3145 47.2409C72.3145 47.2409 72.4616 47.1696 72.5391 47.1416L72.6759 47.1101L72.7992 47.0969L72.836 47.1241L73.0799 47.1526C72.9961 47.138 73.1228 47.1843 73.1351 47.1933L73.3679 47.3651C73.4537 47.4284 73.3679 47.3651 73.4047 47.3922L73.515 47.4736L73.5723 47.6012L73.6081 47.6938L73.6238 47.7622L73.6399 47.8686C73.6399 47.8686 73.6472 48.0255 73.6496 47.9326C73.6456 48.0148 73.6417 48.0972 73.6317 48.1749C73.6216 48.2527 73.5819 48.2423 73.5977 48.3107C73.5757 48.3866 73.5467 48.4602 73.511 48.5307C73.5789 48.4388 73.4477 48.6165 73.4341 48.6349C73.4206 48.6533 73.3799 48.7084 73.3573 48.739C73.3395 48.7916 73.335 48.8477 73.3442 48.9024C73.3534 48.9571 73.376 49.0086 73.41 49.0524C73.4441 49.0974 73.4895 49.1326 73.5416 49.1544C73.5936 49.1762 73.6505 49.1838 73.7065 49.1765C73.9042 49.1004 74.076 48.9695 74.2018 48.7991C74.3275 48.6286 74.402 48.4258 74.4164 48.2145C74.4725 47.8514 74.4164 47.4799 74.2557 47.1495C74.0824 46.7926 73.7796 46.515 73.4089 46.3733C73.0399 46.2483 72.6403 46.2455 72.2695 46.3654C72.0664 46.4241 71.8814 46.5331 71.7316 46.6823C71.5818 46.8315 71.4721 47.016 71.4126 47.2189C71.3958 47.2738 71.3982 47.3328 71.4196 47.3861C71.4409 47.4394 71.4799 47.4837 71.5299 47.5118C71.58 47.5399 71.6381 47.55 71.6947 47.5404C71.7513 47.5309 71.8029 47.5023 71.8409 47.4593L71.9965 47.4794Z" fill="#B72A23"/>
<path d="M74.7432 50.7088L74.9025 50.8263C74.9025 50.8263 75.0129 50.9077 74.9393 50.8535L75.0067 50.9032C75.0984 50.9974 75.1813 51.0997 75.2543 51.2089L75.3052 51.2938L75.3735 51.4578L75.4103 51.4849L75.4277 51.564L75.4422 51.6599C75.4422 51.6599 75.4151 51.6966 75.406 51.7089L75.393 51.8034L75.3568 51.8524C75.3424 51.9035 75.3245 51.9535 75.3032 52.0021C75.2914 52.0121 75.2821 52.0247 75.2761 52.0389C75.3168 51.9837 75.3213 51.9776 75.2987 52.0082L75.2535 52.0695C75.2281 52.1167 75.1961 52.16 75.1585 52.1982C75.2173 52.1185 75.1133 52.2595 75.1585 52.1982L75.1133 52.2595L75.1359 52.2288C75.1359 52.2288 75.0997 52.2779 75.0539 52.263C74.9612 52.2987 75.0081 52.2481 75.0539 52.263C74.9781 52.2775 74.9065 52.3087 74.8444 52.3544C74.8032 52.3911 74.7703 52.4361 74.7478 52.4864C74.7254 52.5367 74.714 52.5913 74.7142 52.6464C74.7134 52.6999 74.7256 52.7526 74.7499 52.8002C74.7741 52.8478 74.8097 52.8888 74.8534 52.9195C74.9539 52.9821 75.0735 53.0065 75.1905 52.9884C75.2626 52.9807 75.3333 52.9627 75.4003 52.935C75.5136 52.8925 75.6203 52.8342 75.7173 52.7619C75.9253 52.6069 76.0827 52.3937 76.1694 52.1491C76.2451 51.89 76.254 51.616 76.1952 51.3525C76.1364 51.089 76.0119 50.8448 75.8333 50.6424C75.6479 50.4162 75.4309 50.2178 75.189 50.0534C75.1168 50.0026 75.0278 49.9815 74.9405 49.9947C74.8532 50.0079 74.7743 50.0542 74.7203 50.1241C74.669 50.1968 74.6472 50.2863 74.6595 50.3745C74.6718 50.4627 74.7173 50.5429 74.7866 50.5988L74.7432 50.7088Z" fill="#B72A23"/>
<path d="M76.1859 54.0249L75.9649 54.4013C75.8697 54.5479 75.7874 54.7024 75.7187 54.8632C75.6903 54.943 75.6912 55.0303 75.7211 55.1095C75.751 55.1888 75.808 55.2548 75.882 55.296C75.9511 55.3314 76.029 55.3461 76.1063 55.3384C76.1965 55.3177 76.2772 55.2672 76.3351 55.195C76.4028 55.1223 76.462 55.0421 76.5115 54.956L76.6426 54.7783L76.8513 54.3928C76.8812 54.3044 76.8783 54.2082 76.8431 54.1217C76.8061 54.0554 76.7528 53.9997 76.688 53.96C76.6213 53.9181 76.5412 53.9029 76.4638 53.9176C76.4172 53.9234 76.3723 53.9388 76.3319 53.9627C76.2914 53.9865 76.2563 54.0185 76.2288 54.0565L76.1859 54.0249Z" fill="#B72A23"/>
<path d="M76.6596 45.1099C76.7967 44.9495 76.9221 44.7796 77.0349 44.6013C77.0982 44.5155 77.1615 44.4297 77.2248 44.3439L77.2926 44.252C77.3243 44.2091 77.3243 44.2091 77.2926 44.252C77.261 44.2949 77.3198 44.2152 77.3288 44.203C77.3378 44.1907 77.4576 44.1182 77.3605 44.1601L77.4773 44.1044C77.4773 44.1044 77.6248 44.0713 77.5045 44.0676C77.3841 44.064 77.5987 44.0425 77.6277 44.0545C77.5848 44.0228 77.6568 44.0664 77.6277 44.0545L77.6706 44.0861C77.6216 44.0499 77.6277 44.0544 77.6706 44.0861L77.7074 44.1132C77.6932 44.0555 77.6932 44.0555 77.7074 44.1132L77.717 44.1771C77.7486 44.1342 77.7441 44.1404 77.717 44.1771L77.7056 44.2823C77.6625 44.4878 77.6077 44.6906 77.5413 44.8898C77.4776 45.1172 77.4032 45.3462 77.3501 45.5721L77.2751 45.9047C77.2442 46.0446 77.2511 46.1902 77.2951 46.3265C77.3157 46.3727 77.3464 46.4137 77.3851 46.4464C77.4238 46.479 77.4694 46.5025 77.5185 46.515C77.5675 46.5276 77.6188 46.5288 77.6684 46.5187C77.718 46.5086 77.7646 46.4873 77.8049 46.4565C77.9647 46.2878 78.0762 46.0791 78.1276 45.8524C78.2023 45.6614 78.2495 45.4691 78.3074 45.2752C78.4565 44.9157 78.5461 44.5344 78.5727 44.1461C78.5745 43.935 78.5013 43.7302 78.3662 43.568C78.231 43.4059 78.0427 43.297 77.8348 43.2608C77.638 43.2327 77.4373 43.2542 77.2508 43.3232C77.0644 43.3922 76.8981 43.5065 76.7671 43.656C76.6232 43.8229 76.5064 44.0115 76.4211 44.2147C76.3479 44.4025 76.2587 44.5835 76.1543 44.7559C76.1058 44.8248 76.0857 44.9098 76.0983 44.9931C76.1109 45.0764 76.155 45.1516 76.2217 45.2032C76.29 45.2512 76.3745 45.2705 76.4569 45.257C76.5393 45.2436 76.6133 45.1984 76.6628 45.1312L76.6596 45.1099Z" fill="#B72A23"/>
<path d="M80.1587 49.2435C80.3252 49.3 80.4855 49.3521 80.6429 49.4209L80.7839 49.5249C80.8495 49.5639 80.911 49.6093 80.9677 49.6605L81.2067 49.8369L81.2485 49.934C81.2418 49.8534 81.2904 50.0312 81.2485 49.934L81.2676 50.0238L81.2726 50.0938C81.2732 50.17 81.2616 50.2371 81.2561 50.3087C81.3013 50.2474 81.2505 50.3803 81.2561 50.3087C81.2108 50.37 81.2199 50.3577 81.1973 50.3884C81.1783 50.4516 81.1548 50.5133 81.1271 50.5732C81.0954 50.6161 81.0774 50.6406 81.1271 50.5732C81.1031 50.6121 81.0758 50.649 81.0457 50.6835C80.9962 50.7634 80.9402 50.8393 80.8784 50.9102C80.8513 50.947 80.8287 50.9776 80.8016 51.0144C80.8558 50.9408 80.7744 51.0511 80.7699 51.0573L80.6478 51.2227C80.589 51.3024 80.6749 51.186 80.6162 51.2656C80.5501 51.3296 80.4951 51.4042 80.4534 51.4862L80.3991 51.5597C80.3523 51.626 80.3279 51.7054 80.3293 51.7865C80.3308 51.8676 80.358 51.9461 80.4072 52.0105C80.4584 52.0766 80.5303 52.1236 80.6114 52.144C80.6925 52.1644 80.7781 52.1569 80.8544 52.1228C80.8544 52.1228 81.0045 52.0348 80.9087 52.0493C80.9831 52.0387 81.0537 52.0094 81.1136 51.9639L81.1634 51.8965C81.2357 51.7985 81.3448 51.7276 81.44 51.6369C81.5863 51.4775 81.7151 51.3028 81.8244 51.1161C82.0373 50.77 82.131 50.3638 82.091 49.9595C82.0672 49.7553 81.9987 49.559 81.8905 49.3842C81.7822 49.2095 81.6369 49.0608 81.4648 48.9485C81.0978 48.7267 80.6927 48.5753 80.2702 48.5023C80.1905 48.4918 80.11 48.5117 80.0443 48.5579C79.9786 48.6042 79.9327 48.6734 79.9157 48.7519C79.8966 48.8292 79.9064 48.9108 79.9431 48.9814C79.9798 49.0521 80.041 49.1069 80.1152 49.1357L80.1587 49.2435Z" fill="#B72A23"/>
<path d="M80.8799 54.6022L80.9351 54.6429C80.9193 54.5745 80.9586 54.7265 80.9351 54.6429C80.9499 54.693 80.9594 54.7444 80.9637 54.7964L80.9704 54.8771L80.9548 55.0265C80.939 55.0431 80.9253 55.0617 80.9141 55.0817C80.8891 55.123 80.8603 55.162 80.8282 55.1981C80.8152 55.2491 80.7951 55.298 80.7684 55.3433C80.8091 55.2881 80.8001 55.3004 80.7684 55.3433L80.6961 55.4413C80.6676 55.4864 80.6358 55.5294 80.6011 55.57C80.6011 55.57 80.574 55.6068 80.5605 55.6251C80.5469 55.6435 80.5605 55.6252 80.5876 55.5884C80.6147 55.5516 80.5378 55.6558 80.5152 55.6865C80.5152 55.6865 80.4881 55.7232 80.4746 55.7416C80.436 55.777 80.3955 55.8104 80.3535 55.8415L80.3082 55.9028C80.3082 55.9028 80.1249 56.0231 80.1733 55.9831C80.1389 56.0173 80.1099 56.0565 80.0874 56.0995C80.1191 56.0566 80.1145 56.0628 80.0874 56.0995C80.1371 56.0321 80.0422 56.1608 80.0467 56.1546C80.0032 56.1943 79.9678 56.2422 79.9427 56.2956C79.917 56.3374 79.9037 56.3856 79.9043 56.4347C79.905 56.4838 79.9196 56.5317 79.9464 56.5728C79.9947 56.637 80.0607 56.6857 80.1363 56.7129L80.2812 56.7346C80.2812 56.7346 80.4641 56.756 80.3635 56.7385C80.5224 56.7551 80.6821 56.7156 80.815 56.6269C81.0817 56.4855 81.3026 56.2708 81.4514 56.0081C81.6066 55.7622 81.6987 55.4818 81.7196 55.1918C81.7404 54.9017 81.6893 54.611 81.5709 54.3455C81.5335 54.2601 81.4637 54.1931 81.3769 54.1592C81.29 54.1254 81.1933 54.1273 81.108 54.1648C81.0226 54.2022 80.9557 54.272 80.9218 54.3588C80.8879 54.4457 80.8899 54.5424 80.9273 54.6277L80.8799 54.6022Z" fill="#B72A23"/>
<path d="M83.5333 54.0331L83.5701 54.0603L83.4966 54.006L83.5903 54.1226L83.5229 54.0728L83.5958 54.2307L83.5661 54.1425C83.5849 54.2028 83.5962 54.2651 83.5996 54.3281L83.5913 54.2368C83.5957 54.3054 83.5896 54.3743 83.5731 54.4411L83.6273 54.3675L83.5756 54.5659L83.6298 54.4924C83.6174 54.5467 83.5978 54.599 83.5716 54.6482L83.6304 54.5685C83.6035 54.6178 83.5701 54.6631 83.5309 54.7033L83.5852 54.6298C83.5536 54.6664 83.5249 54.7053 83.4993 54.7462C83.4646 54.7976 83.4436 54.857 83.4382 54.9188C83.4304 54.9906 83.447 55.0629 83.4855 55.1241C83.5198 55.1804 83.5696 55.2257 83.629 55.2544C83.6884 55.2831 83.7548 55.2941 83.8203 55.2859C84.0094 55.2313 84.17 55.1056 84.2685 54.9352L84.3679 54.8004C84.3894 54.7449 84.4062 54.6876 84.4183 54.6294C84.4309 54.5734 84.4351 54.5159 84.4307 54.4587C84.4422 54.2879 84.4126 54.1169 84.3446 53.9598C84.2743 53.8041 84.1658 53.6688 84.0292 53.5663C83.9927 53.53 83.9489 53.5021 83.9007 53.4843C83.8524 53.4666 83.8009 53.4594 83.7497 53.4634C83.6984 53.4673 83.6486 53.4823 83.6036 53.5072C83.5587 53.5321 83.5196 53.5664 83.4891 53.6078C83.4586 53.6491 83.4373 53.6966 83.4268 53.7469C83.4162 53.7972 83.4166 53.8492 83.428 53.8993C83.4393 53.9494 83.4614 53.9966 83.4926 54.0374C83.5238 54.0783 83.5634 54.112 83.6087 54.1361L83.5333 54.0331Z" fill="#B72A23"/>
<path d="M73.3636 42.5352C73.4175 42.4844 73.4763 42.439 73.5392 42.3998C73.5454 42.3857 73.5547 42.3732 73.5663 42.363C73.607 42.3079 73.5301 42.412 73.5663 42.363L73.668 42.315C73.7323 42.2827 73.7994 42.2562 73.8685 42.2358C73.9065 42.2246 73.9459 42.2187 73.9856 42.2181C74.0201 42.2074 74.0559 42.202 74.092 42.2021L74.1288 42.2292C74.086 42.1976 74.2095 42.2225 74.1288 42.2292L74.3483 42.2397L74.4596 42.2556L74.4963 42.2827C74.4473 42.2465 74.5802 42.2972 74.4963 42.2827L74.7192 42.3525C74.8021 42.3812 74.8924 42.3797 74.9743 42.3485C75.0563 42.3172 75.1245 42.2581 75.1672 42.1815C75.212 42.1049 75.2267 42.0145 75.2086 41.9277C75.1905 41.8409 75.1408 41.7639 75.0691 41.7116C74.8934 41.6073 74.6986 41.5393 74.4961 41.5119C74.2936 41.4844 74.0877 41.498 73.8905 41.5518C73.4995 41.6389 73.1473 41.8506 72.8869 42.1551C72.8404 42.2175 72.8189 42.295 72.8266 42.3724C72.8342 42.4498 72.8705 42.5216 72.9283 42.5737C72.981 42.6295 73.0533 42.6627 73.13 42.6664C73.2067 42.67 73.2818 42.6439 73.3396 42.5933L73.3636 42.5352Z" fill="#B72A23"/>
<path d="M79.8732 50.1689L79.9153 50.4839L79.9333 50.6391L79.9399 50.7198L79.9776 50.8611C80.0014 50.8881 80.0306 50.9097 80.0634 50.9244C80.0844 50.9543 80.1145 50.9765 80.1492 50.9877C80.2046 51.0122 80.2673 51.0144 80.3244 50.994C80.3545 50.9883 80.3832 50.9767 80.4087 50.9597C80.4342 50.9428 80.4561 50.9209 80.4729 50.8953L80.5181 50.8341C80.5322 50.7893 80.5381 50.7422 80.5354 50.6953L80.5006 50.5372L80.3828 50.0812C80.3773 50.0493 80.3634 50.0195 80.3425 49.9947L80.269 49.9404C80.2435 49.9207 80.2142 49.9061 80.183 49.8977C80.1519 49.8894 80.1193 49.8872 80.0873 49.8915C80.0221 49.9012 79.9629 49.9355 79.9221 49.9873C79.8866 50.0425 79.8715 50.1083 79.8793 50.1734L79.8732 50.1689Z" fill="#B72A23"/>
<path d="M72.9104 48.3053L72.9158 48.4134L72.9393 48.4969L73.1477 48.6507C73.1839 48.6677 73.225 48.6711 73.2636 48.6605C73.2886 48.6526 73.3125 48.6417 73.3348 48.6279C73.3348 48.6279 73.3348 48.6279 73.3575 48.5972L73.3846 48.5605C73.4069 48.5428 73.424 48.5196 73.4343 48.4931L73.5609 48.3215C73.5609 48.3215 73.5609 48.3215 73.5835 48.2908L73.5507 48.1815C73.5503 48.1379 73.5343 48.0958 73.5056 48.063C73.4782 48.0287 73.4423 48.0022 73.4015 47.9862C73.3754 47.9541 73.3417 47.9292 73.3034 47.9138C73.2636 47.8961 73.2187 47.8932 73.1769 47.9057L73.104 47.9276C73.0497 47.9506 73.0026 47.9877 72.9677 48.0352L72.918 48.1026C72.9001 48.1561 72.8938 48.2127 72.8995 48.2688L72.9104 48.3053Z" fill="#B72A23"/>
</svg>
